%TF.GenerationSoftware,KiCad,Pcbnew,9.0.2*%
%TF.CreationDate,2025-12-14T11:37:20+02:00*%
%TF.ProjectId,Sewer,53657765-722e-46b6-9963-61645f706362,1*%
%TF.SameCoordinates,Original*%
%TF.FileFunction,Legend,Top*%
%TF.FilePolarity,Positive*%
%FSLAX46Y46*%
G04 Gerber Fmt 4.6, Leading zero omitted, Abs format (unit mm)*
G04 Created by KiCad (PCBNEW 9.0.2) date 2025-12-14 11:37:20*
%MOMM*%
%LPD*%
G01*
G04 APERTURE LIST*
%ADD10C,0.150000*%
%ADD11C,0.300000*%
%ADD12C,0.089408*%
%ADD13C,0.097536*%
%ADD14C,0.032512*%
%ADD15C,0.120000*%
%ADD16C,0.127000*%
%ADD17C,0.152400*%
G04 APERTURE END LIST*
D10*
X76395112Y-122346009D02*
X76537969Y-122393628D01*
X76537969Y-122393628D02*
X76585588Y-122441247D01*
X76585588Y-122441247D02*
X76633207Y-122536485D01*
X76633207Y-122536485D02*
X76633207Y-122679342D01*
X76633207Y-122679342D02*
X76585588Y-122774580D01*
X76585588Y-122774580D02*
X76537969Y-122822200D01*
X76537969Y-122822200D02*
X76442731Y-122869819D01*
X76442731Y-122869819D02*
X76061779Y-122869819D01*
X76061779Y-122869819D02*
X76061779Y-121869819D01*
X76061779Y-121869819D02*
X76395112Y-121869819D01*
X76395112Y-121869819D02*
X76490350Y-121917438D01*
X76490350Y-121917438D02*
X76537969Y-121965057D01*
X76537969Y-121965057D02*
X76585588Y-122060295D01*
X76585588Y-122060295D02*
X76585588Y-122155533D01*
X76585588Y-122155533D02*
X76537969Y-122250771D01*
X76537969Y-122250771D02*
X76490350Y-122298390D01*
X76490350Y-122298390D02*
X76395112Y-122346009D01*
X76395112Y-122346009D02*
X76061779Y-122346009D01*
X77252255Y-121869819D02*
X77442731Y-121869819D01*
X77442731Y-121869819D02*
X77537969Y-121917438D01*
X77537969Y-121917438D02*
X77633207Y-122012676D01*
X77633207Y-122012676D02*
X77680826Y-122203152D01*
X77680826Y-122203152D02*
X77680826Y-122536485D01*
X77680826Y-122536485D02*
X77633207Y-122726961D01*
X77633207Y-122726961D02*
X77537969Y-122822200D01*
X77537969Y-122822200D02*
X77442731Y-122869819D01*
X77442731Y-122869819D02*
X77252255Y-122869819D01*
X77252255Y-122869819D02*
X77157017Y-122822200D01*
X77157017Y-122822200D02*
X77061779Y-122726961D01*
X77061779Y-122726961D02*
X77014160Y-122536485D01*
X77014160Y-122536485D02*
X77014160Y-122203152D01*
X77014160Y-122203152D02*
X77061779Y-122012676D01*
X77061779Y-122012676D02*
X77157017Y-121917438D01*
X77157017Y-121917438D02*
X77252255Y-121869819D01*
X78109398Y-121869819D02*
X78109398Y-122679342D01*
X78109398Y-122679342D02*
X78157017Y-122774580D01*
X78157017Y-122774580D02*
X78204636Y-122822200D01*
X78204636Y-122822200D02*
X78299874Y-122869819D01*
X78299874Y-122869819D02*
X78490350Y-122869819D01*
X78490350Y-122869819D02*
X78585588Y-122822200D01*
X78585588Y-122822200D02*
X78633207Y-122774580D01*
X78633207Y-122774580D02*
X78680826Y-122679342D01*
X78680826Y-122679342D02*
X78680826Y-121869819D01*
X79014160Y-121869819D02*
X79585588Y-121869819D01*
X79299874Y-122869819D02*
X79299874Y-121869819D01*
X69685588Y-119017438D02*
X69590350Y-118969819D01*
X69590350Y-118969819D02*
X69447493Y-118969819D01*
X69447493Y-118969819D02*
X69304636Y-119017438D01*
X69304636Y-119017438D02*
X69209398Y-119112676D01*
X69209398Y-119112676D02*
X69161779Y-119207914D01*
X69161779Y-119207914D02*
X69114160Y-119398390D01*
X69114160Y-119398390D02*
X69114160Y-119541247D01*
X69114160Y-119541247D02*
X69161779Y-119731723D01*
X69161779Y-119731723D02*
X69209398Y-119826961D01*
X69209398Y-119826961D02*
X69304636Y-119922200D01*
X69304636Y-119922200D02*
X69447493Y-119969819D01*
X69447493Y-119969819D02*
X69542731Y-119969819D01*
X69542731Y-119969819D02*
X69685588Y-119922200D01*
X69685588Y-119922200D02*
X69733207Y-119874580D01*
X69733207Y-119874580D02*
X69733207Y-119541247D01*
X69733207Y-119541247D02*
X69542731Y-119541247D01*
X70161779Y-119969819D02*
X70161779Y-118969819D01*
X70161779Y-118969819D02*
X70733207Y-119969819D01*
X70733207Y-119969819D02*
X70733207Y-118969819D01*
X71209398Y-119969819D02*
X71209398Y-118969819D01*
X71209398Y-118969819D02*
X71447493Y-118969819D01*
X71447493Y-118969819D02*
X71590350Y-119017438D01*
X71590350Y-119017438D02*
X71685588Y-119112676D01*
X71685588Y-119112676D02*
X71733207Y-119207914D01*
X71733207Y-119207914D02*
X71780826Y-119398390D01*
X71780826Y-119398390D02*
X71780826Y-119541247D01*
X71780826Y-119541247D02*
X71733207Y-119731723D01*
X71733207Y-119731723D02*
X71685588Y-119826961D01*
X71685588Y-119826961D02*
X71590350Y-119922200D01*
X71590350Y-119922200D02*
X71447493Y-119969819D01*
X71447493Y-119969819D02*
X71209398Y-119969819D01*
X63114160Y-121222200D02*
X63257017Y-121269819D01*
X63257017Y-121269819D02*
X63495112Y-121269819D01*
X63495112Y-121269819D02*
X63590350Y-121222200D01*
X63590350Y-121222200D02*
X63637969Y-121174580D01*
X63637969Y-121174580D02*
X63685588Y-121079342D01*
X63685588Y-121079342D02*
X63685588Y-120984104D01*
X63685588Y-120984104D02*
X63637969Y-120888866D01*
X63637969Y-120888866D02*
X63590350Y-120841247D01*
X63590350Y-120841247D02*
X63495112Y-120793628D01*
X63495112Y-120793628D02*
X63304636Y-120746009D01*
X63304636Y-120746009D02*
X63209398Y-120698390D01*
X63209398Y-120698390D02*
X63161779Y-120650771D01*
X63161779Y-120650771D02*
X63114160Y-120555533D01*
X63114160Y-120555533D02*
X63114160Y-120460295D01*
X63114160Y-120460295D02*
X63161779Y-120365057D01*
X63161779Y-120365057D02*
X63209398Y-120317438D01*
X63209398Y-120317438D02*
X63304636Y-120269819D01*
X63304636Y-120269819D02*
X63542731Y-120269819D01*
X63542731Y-120269819D02*
X63685588Y-120317438D01*
X64018922Y-120269819D02*
X64257017Y-121269819D01*
X64257017Y-121269819D02*
X64447493Y-120555533D01*
X64447493Y-120555533D02*
X64637969Y-121269819D01*
X64637969Y-121269819D02*
X64876065Y-120269819D01*
X57695112Y-120646009D02*
X57837969Y-120693628D01*
X57837969Y-120693628D02*
X57885588Y-120741247D01*
X57885588Y-120741247D02*
X57933207Y-120836485D01*
X57933207Y-120836485D02*
X57933207Y-120979342D01*
X57933207Y-120979342D02*
X57885588Y-121074580D01*
X57885588Y-121074580D02*
X57837969Y-121122200D01*
X57837969Y-121122200D02*
X57742731Y-121169819D01*
X57742731Y-121169819D02*
X57361779Y-121169819D01*
X57361779Y-121169819D02*
X57361779Y-120169819D01*
X57361779Y-120169819D02*
X57695112Y-120169819D01*
X57695112Y-120169819D02*
X57790350Y-120217438D01*
X57790350Y-120217438D02*
X57837969Y-120265057D01*
X57837969Y-120265057D02*
X57885588Y-120360295D01*
X57885588Y-120360295D02*
X57885588Y-120455533D01*
X57885588Y-120455533D02*
X57837969Y-120550771D01*
X57837969Y-120550771D02*
X57790350Y-120598390D01*
X57790350Y-120598390D02*
X57695112Y-120646009D01*
X57695112Y-120646009D02*
X57361779Y-120646009D01*
X58361779Y-121169819D02*
X58361779Y-120169819D01*
X58837969Y-121169819D02*
X58837969Y-120169819D01*
X58837969Y-120169819D02*
X59409397Y-121169819D01*
X59409397Y-121169819D02*
X59409397Y-120169819D01*
D11*
X82508082Y-123129400D02*
X82722368Y-123200828D01*
X82722368Y-123200828D02*
X83079510Y-123200828D01*
X83079510Y-123200828D02*
X83222368Y-123129400D01*
X83222368Y-123129400D02*
X83293796Y-123057971D01*
X83293796Y-123057971D02*
X83365225Y-122915114D01*
X83365225Y-122915114D02*
X83365225Y-122772257D01*
X83365225Y-122772257D02*
X83293796Y-122629400D01*
X83293796Y-122629400D02*
X83222368Y-122557971D01*
X83222368Y-122557971D02*
X83079510Y-122486542D01*
X83079510Y-122486542D02*
X82793796Y-122415114D01*
X82793796Y-122415114D02*
X82650939Y-122343685D01*
X82650939Y-122343685D02*
X82579510Y-122272257D01*
X82579510Y-122272257D02*
X82508082Y-122129400D01*
X82508082Y-122129400D02*
X82508082Y-121986542D01*
X82508082Y-121986542D02*
X82579510Y-121843685D01*
X82579510Y-121843685D02*
X82650939Y-121772257D01*
X82650939Y-121772257D02*
X82793796Y-121700828D01*
X82793796Y-121700828D02*
X83150939Y-121700828D01*
X83150939Y-121700828D02*
X83365225Y-121772257D01*
X84579510Y-123129400D02*
X84436653Y-123200828D01*
X84436653Y-123200828D02*
X84150939Y-123200828D01*
X84150939Y-123200828D02*
X84008081Y-123129400D01*
X84008081Y-123129400D02*
X83936653Y-122986542D01*
X83936653Y-122986542D02*
X83936653Y-122415114D01*
X83936653Y-122415114D02*
X84008081Y-122272257D01*
X84008081Y-122272257D02*
X84150939Y-122200828D01*
X84150939Y-122200828D02*
X84436653Y-122200828D01*
X84436653Y-122200828D02*
X84579510Y-122272257D01*
X84579510Y-122272257D02*
X84650939Y-122415114D01*
X84650939Y-122415114D02*
X84650939Y-122557971D01*
X84650939Y-122557971D02*
X83936653Y-122700828D01*
X85150938Y-122200828D02*
X85436653Y-123200828D01*
X85436653Y-123200828D02*
X85722367Y-122486542D01*
X85722367Y-122486542D02*
X86008081Y-123200828D01*
X86008081Y-123200828D02*
X86293795Y-122200828D01*
X87436653Y-123129400D02*
X87293796Y-123200828D01*
X87293796Y-123200828D02*
X87008082Y-123200828D01*
X87008082Y-123200828D02*
X86865224Y-123129400D01*
X86865224Y-123129400D02*
X86793796Y-122986542D01*
X86793796Y-122986542D02*
X86793796Y-122415114D01*
X86793796Y-122415114D02*
X86865224Y-122272257D01*
X86865224Y-122272257D02*
X87008082Y-122200828D01*
X87008082Y-122200828D02*
X87293796Y-122200828D01*
X87293796Y-122200828D02*
X87436653Y-122272257D01*
X87436653Y-122272257D02*
X87508082Y-122415114D01*
X87508082Y-122415114D02*
X87508082Y-122557971D01*
X87508082Y-122557971D02*
X86793796Y-122700828D01*
X88150938Y-123200828D02*
X88150938Y-122200828D01*
X88150938Y-122486542D02*
X88222367Y-122343685D01*
X88222367Y-122343685D02*
X88293796Y-122272257D01*
X88293796Y-122272257D02*
X88436653Y-122200828D01*
X88436653Y-122200828D02*
X88579510Y-122200828D01*
X90079509Y-122200828D02*
X90436652Y-123200828D01*
X90436652Y-123200828D02*
X90793795Y-122200828D01*
X92150938Y-123200828D02*
X91293795Y-123200828D01*
X91722366Y-123200828D02*
X91722366Y-121700828D01*
X91722366Y-121700828D02*
X91579509Y-121915114D01*
X91579509Y-121915114D02*
X91436652Y-122057971D01*
X91436652Y-122057971D02*
X91293795Y-122129400D01*
X92793794Y-123057971D02*
X92865223Y-123129400D01*
X92865223Y-123129400D02*
X92793794Y-123200828D01*
X92793794Y-123200828D02*
X92722366Y-123129400D01*
X92722366Y-123129400D02*
X92793794Y-123057971D01*
X92793794Y-123057971D02*
X92793794Y-123200828D01*
X93793795Y-121700828D02*
X93936652Y-121700828D01*
X93936652Y-121700828D02*
X94079509Y-121772257D01*
X94079509Y-121772257D02*
X94150938Y-121843685D01*
X94150938Y-121843685D02*
X94222366Y-121986542D01*
X94222366Y-121986542D02*
X94293795Y-122272257D01*
X94293795Y-122272257D02*
X94293795Y-122629400D01*
X94293795Y-122629400D02*
X94222366Y-122915114D01*
X94222366Y-122915114D02*
X94150938Y-123057971D01*
X94150938Y-123057971D02*
X94079509Y-123129400D01*
X94079509Y-123129400D02*
X93936652Y-123200828D01*
X93936652Y-123200828D02*
X93793795Y-123200828D01*
X93793795Y-123200828D02*
X93650938Y-123129400D01*
X93650938Y-123129400D02*
X93579509Y-123057971D01*
X93579509Y-123057971D02*
X93508080Y-122915114D01*
X93508080Y-122915114D02*
X93436652Y-122629400D01*
X93436652Y-122629400D02*
X93436652Y-122272257D01*
X93436652Y-122272257D02*
X93508080Y-121986542D01*
X93508080Y-121986542D02*
X93579509Y-121843685D01*
X93579509Y-121843685D02*
X93650938Y-121772257D01*
X93650938Y-121772257D02*
X93793795Y-121700828D01*
X88093796Y-104900828D02*
X87379510Y-104900828D01*
X87379510Y-104900828D02*
X87379510Y-103400828D01*
X88593796Y-104900828D02*
X88593796Y-103400828D01*
X90165225Y-104757971D02*
X90093797Y-104829400D01*
X90093797Y-104829400D02*
X89879511Y-104900828D01*
X89879511Y-104900828D02*
X89736654Y-104900828D01*
X89736654Y-104900828D02*
X89522368Y-104829400D01*
X89522368Y-104829400D02*
X89379511Y-104686542D01*
X89379511Y-104686542D02*
X89308082Y-104543685D01*
X89308082Y-104543685D02*
X89236654Y-104257971D01*
X89236654Y-104257971D02*
X89236654Y-104043685D01*
X89236654Y-104043685D02*
X89308082Y-103757971D01*
X89308082Y-103757971D02*
X89379511Y-103615114D01*
X89379511Y-103615114D02*
X89522368Y-103472257D01*
X89522368Y-103472257D02*
X89736654Y-103400828D01*
X89736654Y-103400828D02*
X89879511Y-103400828D01*
X89879511Y-103400828D02*
X90093797Y-103472257D01*
X90093797Y-103472257D02*
X90165225Y-103543685D01*
X90808082Y-104900828D02*
X90808082Y-103400828D01*
X91665225Y-104900828D02*
X91022368Y-104043685D01*
X91665225Y-103400828D02*
X90808082Y-104257971D01*
X85679510Y-102200828D02*
X85679510Y-100700828D01*
X85679510Y-100700828D02*
X86036653Y-100700828D01*
X86036653Y-100700828D02*
X86250939Y-100772257D01*
X86250939Y-100772257D02*
X86393796Y-100915114D01*
X86393796Y-100915114D02*
X86465225Y-101057971D01*
X86465225Y-101057971D02*
X86536653Y-101343685D01*
X86536653Y-101343685D02*
X86536653Y-101557971D01*
X86536653Y-101557971D02*
X86465225Y-101843685D01*
X86465225Y-101843685D02*
X86393796Y-101986542D01*
X86393796Y-101986542D02*
X86250939Y-102129400D01*
X86250939Y-102129400D02*
X86036653Y-102200828D01*
X86036653Y-102200828D02*
X85679510Y-102200828D01*
X87465225Y-100700828D02*
X87750939Y-100700828D01*
X87750939Y-100700828D02*
X87893796Y-100772257D01*
X87893796Y-100772257D02*
X88036653Y-100915114D01*
X88036653Y-100915114D02*
X88108082Y-101200828D01*
X88108082Y-101200828D02*
X88108082Y-101700828D01*
X88108082Y-101700828D02*
X88036653Y-101986542D01*
X88036653Y-101986542D02*
X87893796Y-102129400D01*
X87893796Y-102129400D02*
X87750939Y-102200828D01*
X87750939Y-102200828D02*
X87465225Y-102200828D01*
X87465225Y-102200828D02*
X87322368Y-102129400D01*
X87322368Y-102129400D02*
X87179510Y-101986542D01*
X87179510Y-101986542D02*
X87108082Y-101700828D01*
X87108082Y-101700828D02*
X87108082Y-101200828D01*
X87108082Y-101200828D02*
X87179510Y-100915114D01*
X87179510Y-100915114D02*
X87322368Y-100772257D01*
X87322368Y-100772257D02*
X87465225Y-100700828D01*
X89893796Y-102200828D02*
X89893796Y-100700828D01*
X89893796Y-100700828D02*
X90750939Y-102200828D01*
X90750939Y-102200828D02*
X90750939Y-100700828D01*
X91750940Y-100700828D02*
X92036654Y-100700828D01*
X92036654Y-100700828D02*
X92179511Y-100772257D01*
X92179511Y-100772257D02*
X92322368Y-100915114D01*
X92322368Y-100915114D02*
X92393797Y-101200828D01*
X92393797Y-101200828D02*
X92393797Y-101700828D01*
X92393797Y-101700828D02*
X92322368Y-101986542D01*
X92322368Y-101986542D02*
X92179511Y-102129400D01*
X92179511Y-102129400D02*
X92036654Y-102200828D01*
X92036654Y-102200828D02*
X91750940Y-102200828D01*
X91750940Y-102200828D02*
X91608083Y-102129400D01*
X91608083Y-102129400D02*
X91465225Y-101986542D01*
X91465225Y-101986542D02*
X91393797Y-101700828D01*
X91393797Y-101700828D02*
X91393797Y-101200828D01*
X91393797Y-101200828D02*
X91465225Y-100915114D01*
X91465225Y-100915114D02*
X91608083Y-100772257D01*
X91608083Y-100772257D02*
X91750940Y-100700828D01*
X92822369Y-100700828D02*
X93679512Y-100700828D01*
X93250940Y-102200828D02*
X93250940Y-100700828D01*
D10*
X63961779Y-73688866D02*
X64723684Y-73688866D01*
X64342731Y-74069819D02*
X64342731Y-73307914D01*
X65247493Y-74069819D02*
X65437969Y-74069819D01*
X65437969Y-74069819D02*
X65533207Y-74022200D01*
X65533207Y-74022200D02*
X65580826Y-73974580D01*
X65580826Y-73974580D02*
X65676064Y-73831723D01*
X65676064Y-73831723D02*
X65723683Y-73641247D01*
X65723683Y-73641247D02*
X65723683Y-73260295D01*
X65723683Y-73260295D02*
X65676064Y-73165057D01*
X65676064Y-73165057D02*
X65628445Y-73117438D01*
X65628445Y-73117438D02*
X65533207Y-73069819D01*
X65533207Y-73069819D02*
X65342731Y-73069819D01*
X65342731Y-73069819D02*
X65247493Y-73117438D01*
X65247493Y-73117438D02*
X65199874Y-73165057D01*
X65199874Y-73165057D02*
X65152255Y-73260295D01*
X65152255Y-73260295D02*
X65152255Y-73498390D01*
X65152255Y-73498390D02*
X65199874Y-73593628D01*
X65199874Y-73593628D02*
X65247493Y-73641247D01*
X65247493Y-73641247D02*
X65342731Y-73688866D01*
X65342731Y-73688866D02*
X65533207Y-73688866D01*
X65533207Y-73688866D02*
X65628445Y-73641247D01*
X65628445Y-73641247D02*
X65676064Y-73593628D01*
X65676064Y-73593628D02*
X65723683Y-73498390D01*
X66009398Y-73069819D02*
X66342731Y-74069819D01*
X66342731Y-74069819D02*
X66676064Y-73069819D01*
X76733557Y-116838570D02*
X76304985Y-117138570D01*
X76733557Y-117352856D02*
X75833557Y-117352856D01*
X75833557Y-117352856D02*
X75833557Y-117009999D01*
X75833557Y-117009999D02*
X75876414Y-116924284D01*
X75876414Y-116924284D02*
X75919271Y-116881427D01*
X75919271Y-116881427D02*
X76004985Y-116838570D01*
X76004985Y-116838570D02*
X76133557Y-116838570D01*
X76133557Y-116838570D02*
X76219271Y-116881427D01*
X76219271Y-116881427D02*
X76262128Y-116924284D01*
X76262128Y-116924284D02*
X76304985Y-117009999D01*
X76304985Y-117009999D02*
X76304985Y-117352856D01*
X76819271Y-116667142D02*
X76819271Y-115981427D01*
X76647842Y-115252856D02*
X76690700Y-115295713D01*
X76690700Y-115295713D02*
X76733557Y-115424285D01*
X76733557Y-115424285D02*
X76733557Y-115509999D01*
X76733557Y-115509999D02*
X76690700Y-115638570D01*
X76690700Y-115638570D02*
X76604985Y-115724285D01*
X76604985Y-115724285D02*
X76519271Y-115767142D01*
X76519271Y-115767142D02*
X76347842Y-115809999D01*
X76347842Y-115809999D02*
X76219271Y-115809999D01*
X76219271Y-115809999D02*
X76047842Y-115767142D01*
X76047842Y-115767142D02*
X75962128Y-115724285D01*
X75962128Y-115724285D02*
X75876414Y-115638570D01*
X75876414Y-115638570D02*
X75833557Y-115509999D01*
X75833557Y-115509999D02*
X75833557Y-115424285D01*
X75833557Y-115424285D02*
X75876414Y-115295713D01*
X75876414Y-115295713D02*
X75919271Y-115252856D01*
X76733557Y-114438570D02*
X76733557Y-114867142D01*
X76733557Y-114867142D02*
X75833557Y-114867142D01*
X76733557Y-113624285D02*
X76304985Y-113924285D01*
X76733557Y-114138571D02*
X75833557Y-114138571D01*
X75833557Y-114138571D02*
X75833557Y-113795714D01*
X75833557Y-113795714D02*
X75876414Y-113709999D01*
X75876414Y-113709999D02*
X75919271Y-113667142D01*
X75919271Y-113667142D02*
X76004985Y-113624285D01*
X76004985Y-113624285D02*
X76133557Y-113624285D01*
X76133557Y-113624285D02*
X76219271Y-113667142D01*
X76219271Y-113667142D02*
X76262128Y-113709999D01*
X76262128Y-113709999D02*
X76304985Y-113795714D01*
X76304985Y-113795714D02*
X76304985Y-114138571D01*
X50633557Y-115517142D02*
X50204985Y-115817142D01*
X50633557Y-116031428D02*
X49733557Y-116031428D01*
X49733557Y-116031428D02*
X49733557Y-115688571D01*
X49733557Y-115688571D02*
X49776414Y-115602856D01*
X49776414Y-115602856D02*
X49819271Y-115559999D01*
X49819271Y-115559999D02*
X49904985Y-115517142D01*
X49904985Y-115517142D02*
X50033557Y-115517142D01*
X50033557Y-115517142D02*
X50119271Y-115559999D01*
X50119271Y-115559999D02*
X50162128Y-115602856D01*
X50162128Y-115602856D02*
X50204985Y-115688571D01*
X50204985Y-115688571D02*
X50204985Y-116031428D01*
X50633557Y-114659999D02*
X50633557Y-115174285D01*
X50633557Y-114917142D02*
X49733557Y-114917142D01*
X49733557Y-114917142D02*
X49862128Y-115002856D01*
X49862128Y-115002856D02*
X49947842Y-115088571D01*
X49947842Y-115088571D02*
X49990700Y-115174285D01*
X49733557Y-114102856D02*
X49733557Y-114017142D01*
X49733557Y-114017142D02*
X49776414Y-113931428D01*
X49776414Y-113931428D02*
X49819271Y-113888571D01*
X49819271Y-113888571D02*
X49904985Y-113845713D01*
X49904985Y-113845713D02*
X50076414Y-113802856D01*
X50076414Y-113802856D02*
X50290700Y-113802856D01*
X50290700Y-113802856D02*
X50462128Y-113845713D01*
X50462128Y-113845713D02*
X50547842Y-113888571D01*
X50547842Y-113888571D02*
X50590700Y-113931428D01*
X50590700Y-113931428D02*
X50633557Y-114017142D01*
X50633557Y-114017142D02*
X50633557Y-114102856D01*
X50633557Y-114102856D02*
X50590700Y-114188571D01*
X50590700Y-114188571D02*
X50547842Y-114231428D01*
X50547842Y-114231428D02*
X50462128Y-114274285D01*
X50462128Y-114274285D02*
X50290700Y-114317142D01*
X50290700Y-114317142D02*
X50076414Y-114317142D01*
X50076414Y-114317142D02*
X49904985Y-114274285D01*
X49904985Y-114274285D02*
X49819271Y-114231428D01*
X49819271Y-114231428D02*
X49776414Y-114188571D01*
X49776414Y-114188571D02*
X49733557Y-114102856D01*
X49733557Y-113502856D02*
X49733557Y-112945713D01*
X49733557Y-112945713D02*
X50076414Y-113245713D01*
X50076414Y-113245713D02*
X50076414Y-113117142D01*
X50076414Y-113117142D02*
X50119271Y-113031428D01*
X50119271Y-113031428D02*
X50162128Y-112988570D01*
X50162128Y-112988570D02*
X50247842Y-112945713D01*
X50247842Y-112945713D02*
X50462128Y-112945713D01*
X50462128Y-112945713D02*
X50547842Y-112988570D01*
X50547842Y-112988570D02*
X50590700Y-113031428D01*
X50590700Y-113031428D02*
X50633557Y-113117142D01*
X50633557Y-113117142D02*
X50633557Y-113374285D01*
X50633557Y-113374285D02*
X50590700Y-113459999D01*
X50590700Y-113459999D02*
X50547842Y-113502856D01*
X53203557Y-115517142D02*
X52774985Y-115817142D01*
X53203557Y-116031428D02*
X52303557Y-116031428D01*
X52303557Y-116031428D02*
X52303557Y-115688571D01*
X52303557Y-115688571D02*
X52346414Y-115602856D01*
X52346414Y-115602856D02*
X52389271Y-115559999D01*
X52389271Y-115559999D02*
X52474985Y-115517142D01*
X52474985Y-115517142D02*
X52603557Y-115517142D01*
X52603557Y-115517142D02*
X52689271Y-115559999D01*
X52689271Y-115559999D02*
X52732128Y-115602856D01*
X52732128Y-115602856D02*
X52774985Y-115688571D01*
X52774985Y-115688571D02*
X52774985Y-116031428D01*
X53203557Y-114659999D02*
X53203557Y-115174285D01*
X53203557Y-114917142D02*
X52303557Y-114917142D01*
X52303557Y-114917142D02*
X52432128Y-115002856D01*
X52432128Y-115002856D02*
X52517842Y-115088571D01*
X52517842Y-115088571D02*
X52560700Y-115174285D01*
X52303557Y-114102856D02*
X52303557Y-114017142D01*
X52303557Y-114017142D02*
X52346414Y-113931428D01*
X52346414Y-113931428D02*
X52389271Y-113888571D01*
X52389271Y-113888571D02*
X52474985Y-113845713D01*
X52474985Y-113845713D02*
X52646414Y-113802856D01*
X52646414Y-113802856D02*
X52860700Y-113802856D01*
X52860700Y-113802856D02*
X53032128Y-113845713D01*
X53032128Y-113845713D02*
X53117842Y-113888571D01*
X53117842Y-113888571D02*
X53160700Y-113931428D01*
X53160700Y-113931428D02*
X53203557Y-114017142D01*
X53203557Y-114017142D02*
X53203557Y-114102856D01*
X53203557Y-114102856D02*
X53160700Y-114188571D01*
X53160700Y-114188571D02*
X53117842Y-114231428D01*
X53117842Y-114231428D02*
X53032128Y-114274285D01*
X53032128Y-114274285D02*
X52860700Y-114317142D01*
X52860700Y-114317142D02*
X52646414Y-114317142D01*
X52646414Y-114317142D02*
X52474985Y-114274285D01*
X52474985Y-114274285D02*
X52389271Y-114231428D01*
X52389271Y-114231428D02*
X52346414Y-114188571D01*
X52346414Y-114188571D02*
X52303557Y-114102856D01*
X52389271Y-113459999D02*
X52346414Y-113417142D01*
X52346414Y-113417142D02*
X52303557Y-113331428D01*
X52303557Y-113331428D02*
X52303557Y-113117142D01*
X52303557Y-113117142D02*
X52346414Y-113031428D01*
X52346414Y-113031428D02*
X52389271Y-112988570D01*
X52389271Y-112988570D02*
X52474985Y-112945713D01*
X52474985Y-112945713D02*
X52560700Y-112945713D01*
X52560700Y-112945713D02*
X52689271Y-112988570D01*
X52689271Y-112988570D02*
X53203557Y-113502856D01*
X53203557Y-113502856D02*
X53203557Y-112945713D01*
X78886905Y-100294819D02*
X78886905Y-99294819D01*
X78886905Y-99294819D02*
X79125000Y-99294819D01*
X79125000Y-99294819D02*
X79267857Y-99342438D01*
X79267857Y-99342438D02*
X79363095Y-99437676D01*
X79363095Y-99437676D02*
X79410714Y-99532914D01*
X79410714Y-99532914D02*
X79458333Y-99723390D01*
X79458333Y-99723390D02*
X79458333Y-99866247D01*
X79458333Y-99866247D02*
X79410714Y-100056723D01*
X79410714Y-100056723D02*
X79363095Y-100151961D01*
X79363095Y-100151961D02*
X79267857Y-100247200D01*
X79267857Y-100247200D02*
X79125000Y-100294819D01*
X79125000Y-100294819D02*
X78886905Y-100294819D01*
X79791667Y-99294819D02*
X80410714Y-99294819D01*
X80410714Y-99294819D02*
X80077381Y-99675771D01*
X80077381Y-99675771D02*
X80220238Y-99675771D01*
X80220238Y-99675771D02*
X80315476Y-99723390D01*
X80315476Y-99723390D02*
X80363095Y-99771009D01*
X80363095Y-99771009D02*
X80410714Y-99866247D01*
X80410714Y-99866247D02*
X80410714Y-100104342D01*
X80410714Y-100104342D02*
X80363095Y-100199580D01*
X80363095Y-100199580D02*
X80315476Y-100247200D01*
X80315476Y-100247200D02*
X80220238Y-100294819D01*
X80220238Y-100294819D02*
X79934524Y-100294819D01*
X79934524Y-100294819D02*
X79839286Y-100247200D01*
X79839286Y-100247200D02*
X79791667Y-100199580D01*
X78079819Y-105238094D02*
X77079819Y-105238094D01*
X77079819Y-105238094D02*
X77079819Y-104999999D01*
X77079819Y-104999999D02*
X77127438Y-104857142D01*
X77127438Y-104857142D02*
X77222676Y-104761904D01*
X77222676Y-104761904D02*
X77317914Y-104714285D01*
X77317914Y-104714285D02*
X77508390Y-104666666D01*
X77508390Y-104666666D02*
X77651247Y-104666666D01*
X77651247Y-104666666D02*
X77841723Y-104714285D01*
X77841723Y-104714285D02*
X77936961Y-104761904D01*
X77936961Y-104761904D02*
X78032200Y-104857142D01*
X78032200Y-104857142D02*
X78079819Y-104999999D01*
X78079819Y-104999999D02*
X78079819Y-105238094D01*
X77175057Y-104285713D02*
X77127438Y-104238094D01*
X77127438Y-104238094D02*
X77079819Y-104142856D01*
X77079819Y-104142856D02*
X77079819Y-103904761D01*
X77079819Y-103904761D02*
X77127438Y-103809523D01*
X77127438Y-103809523D02*
X77175057Y-103761904D01*
X77175057Y-103761904D02*
X77270295Y-103714285D01*
X77270295Y-103714285D02*
X77365533Y-103714285D01*
X77365533Y-103714285D02*
X77508390Y-103761904D01*
X77508390Y-103761904D02*
X78079819Y-104333332D01*
X78079819Y-104333332D02*
X78079819Y-103714285D01*
X79386905Y-105544819D02*
X79386905Y-104544819D01*
X79386905Y-104544819D02*
X79625000Y-104544819D01*
X79625000Y-104544819D02*
X79767857Y-104592438D01*
X79767857Y-104592438D02*
X79863095Y-104687676D01*
X79863095Y-104687676D02*
X79910714Y-104782914D01*
X79910714Y-104782914D02*
X79958333Y-104973390D01*
X79958333Y-104973390D02*
X79958333Y-105116247D01*
X79958333Y-105116247D02*
X79910714Y-105306723D01*
X79910714Y-105306723D02*
X79863095Y-105401961D01*
X79863095Y-105401961D02*
X79767857Y-105497200D01*
X79767857Y-105497200D02*
X79625000Y-105544819D01*
X79625000Y-105544819D02*
X79386905Y-105544819D01*
X80815476Y-104878152D02*
X80815476Y-105544819D01*
X80577381Y-104497200D02*
X80339286Y-105211485D01*
X80339286Y-105211485D02*
X80958333Y-105211485D01*
X74779819Y-104928094D02*
X73779819Y-104928094D01*
X73779819Y-104928094D02*
X73779819Y-104689999D01*
X73779819Y-104689999D02*
X73827438Y-104547142D01*
X73827438Y-104547142D02*
X73922676Y-104451904D01*
X73922676Y-104451904D02*
X74017914Y-104404285D01*
X74017914Y-104404285D02*
X74208390Y-104356666D01*
X74208390Y-104356666D02*
X74351247Y-104356666D01*
X74351247Y-104356666D02*
X74541723Y-104404285D01*
X74541723Y-104404285D02*
X74636961Y-104451904D01*
X74636961Y-104451904D02*
X74732200Y-104547142D01*
X74732200Y-104547142D02*
X74779819Y-104689999D01*
X74779819Y-104689999D02*
X74779819Y-104928094D01*
X74779819Y-103404285D02*
X74779819Y-103975713D01*
X74779819Y-103689999D02*
X73779819Y-103689999D01*
X73779819Y-103689999D02*
X73922676Y-103785237D01*
X73922676Y-103785237D02*
X74017914Y-103880475D01*
X74017914Y-103880475D02*
X74065533Y-103975713D01*
X84003557Y-115459999D02*
X83574985Y-115759999D01*
X84003557Y-115974285D02*
X83103557Y-115974285D01*
X83103557Y-115974285D02*
X83103557Y-115631428D01*
X83103557Y-115631428D02*
X83146414Y-115545713D01*
X83146414Y-115545713D02*
X83189271Y-115502856D01*
X83189271Y-115502856D02*
X83274985Y-115459999D01*
X83274985Y-115459999D02*
X83403557Y-115459999D01*
X83403557Y-115459999D02*
X83489271Y-115502856D01*
X83489271Y-115502856D02*
X83532128Y-115545713D01*
X83532128Y-115545713D02*
X83574985Y-115631428D01*
X83574985Y-115631428D02*
X83574985Y-115974285D01*
X84003557Y-115031428D02*
X84003557Y-114859999D01*
X84003557Y-114859999D02*
X83960700Y-114774285D01*
X83960700Y-114774285D02*
X83917842Y-114731428D01*
X83917842Y-114731428D02*
X83789271Y-114645713D01*
X83789271Y-114645713D02*
X83617842Y-114602856D01*
X83617842Y-114602856D02*
X83274985Y-114602856D01*
X83274985Y-114602856D02*
X83189271Y-114645713D01*
X83189271Y-114645713D02*
X83146414Y-114688571D01*
X83146414Y-114688571D02*
X83103557Y-114774285D01*
X83103557Y-114774285D02*
X83103557Y-114945713D01*
X83103557Y-114945713D02*
X83146414Y-115031428D01*
X83146414Y-115031428D02*
X83189271Y-115074285D01*
X83189271Y-115074285D02*
X83274985Y-115117142D01*
X83274985Y-115117142D02*
X83489271Y-115117142D01*
X83489271Y-115117142D02*
X83574985Y-115074285D01*
X83574985Y-115074285D02*
X83617842Y-115031428D01*
X83617842Y-115031428D02*
X83660700Y-114945713D01*
X83660700Y-114945713D02*
X83660700Y-114774285D01*
X83660700Y-114774285D02*
X83617842Y-114688571D01*
X83617842Y-114688571D02*
X83574985Y-114645713D01*
X83574985Y-114645713D02*
X83489271Y-114602856D01*
X81133557Y-116188571D02*
X80704985Y-116488571D01*
X81133557Y-116702857D02*
X80233557Y-116702857D01*
X80233557Y-116702857D02*
X80233557Y-116360000D01*
X80233557Y-116360000D02*
X80276414Y-116274285D01*
X80276414Y-116274285D02*
X80319271Y-116231428D01*
X80319271Y-116231428D02*
X80404985Y-116188571D01*
X80404985Y-116188571D02*
X80533557Y-116188571D01*
X80533557Y-116188571D02*
X80619271Y-116231428D01*
X80619271Y-116231428D02*
X80662128Y-116274285D01*
X80662128Y-116274285D02*
X80704985Y-116360000D01*
X80704985Y-116360000D02*
X80704985Y-116702857D01*
X81133557Y-115331428D02*
X81133557Y-115845714D01*
X81133557Y-115588571D02*
X80233557Y-115588571D01*
X80233557Y-115588571D02*
X80362128Y-115674285D01*
X80362128Y-115674285D02*
X80447842Y-115760000D01*
X80447842Y-115760000D02*
X80490700Y-115845714D01*
X80233557Y-114774285D02*
X80233557Y-114688571D01*
X80233557Y-114688571D02*
X80276414Y-114602857D01*
X80276414Y-114602857D02*
X80319271Y-114560000D01*
X80319271Y-114560000D02*
X80404985Y-114517142D01*
X80404985Y-114517142D02*
X80576414Y-114474285D01*
X80576414Y-114474285D02*
X80790700Y-114474285D01*
X80790700Y-114474285D02*
X80962128Y-114517142D01*
X80962128Y-114517142D02*
X81047842Y-114560000D01*
X81047842Y-114560000D02*
X81090700Y-114602857D01*
X81090700Y-114602857D02*
X81133557Y-114688571D01*
X81133557Y-114688571D02*
X81133557Y-114774285D01*
X81133557Y-114774285D02*
X81090700Y-114860000D01*
X81090700Y-114860000D02*
X81047842Y-114902857D01*
X81047842Y-114902857D02*
X80962128Y-114945714D01*
X80962128Y-114945714D02*
X80790700Y-114988571D01*
X80790700Y-114988571D02*
X80576414Y-114988571D01*
X80576414Y-114988571D02*
X80404985Y-114945714D01*
X80404985Y-114945714D02*
X80319271Y-114902857D01*
X80319271Y-114902857D02*
X80276414Y-114860000D01*
X80276414Y-114860000D02*
X80233557Y-114774285D01*
X90484580Y-115666666D02*
X90532200Y-115714285D01*
X90532200Y-115714285D02*
X90579819Y-115857142D01*
X90579819Y-115857142D02*
X90579819Y-115952380D01*
X90579819Y-115952380D02*
X90532200Y-116095237D01*
X90532200Y-116095237D02*
X90436961Y-116190475D01*
X90436961Y-116190475D02*
X90341723Y-116238094D01*
X90341723Y-116238094D02*
X90151247Y-116285713D01*
X90151247Y-116285713D02*
X90008390Y-116285713D01*
X90008390Y-116285713D02*
X89817914Y-116238094D01*
X89817914Y-116238094D02*
X89722676Y-116190475D01*
X89722676Y-116190475D02*
X89627438Y-116095237D01*
X89627438Y-116095237D02*
X89579819Y-115952380D01*
X89579819Y-115952380D02*
X89579819Y-115857142D01*
X89579819Y-115857142D02*
X89627438Y-115714285D01*
X89627438Y-115714285D02*
X89675057Y-115666666D01*
X90579819Y-115190475D02*
X90579819Y-114999999D01*
X90579819Y-114999999D02*
X90532200Y-114904761D01*
X90532200Y-114904761D02*
X90484580Y-114857142D01*
X90484580Y-114857142D02*
X90341723Y-114761904D01*
X90341723Y-114761904D02*
X90151247Y-114714285D01*
X90151247Y-114714285D02*
X89770295Y-114714285D01*
X89770295Y-114714285D02*
X89675057Y-114761904D01*
X89675057Y-114761904D02*
X89627438Y-114809523D01*
X89627438Y-114809523D02*
X89579819Y-114904761D01*
X89579819Y-114904761D02*
X89579819Y-115095237D01*
X89579819Y-115095237D02*
X89627438Y-115190475D01*
X89627438Y-115190475D02*
X89675057Y-115238094D01*
X89675057Y-115238094D02*
X89770295Y-115285713D01*
X89770295Y-115285713D02*
X90008390Y-115285713D01*
X90008390Y-115285713D02*
X90103628Y-115238094D01*
X90103628Y-115238094D02*
X90151247Y-115190475D01*
X90151247Y-115190475D02*
X90198866Y-115095237D01*
X90198866Y-115095237D02*
X90198866Y-114904761D01*
X90198866Y-114904761D02*
X90151247Y-114809523D01*
X90151247Y-114809523D02*
X90103628Y-114761904D01*
X90103628Y-114761904D02*
X90008390Y-114714285D01*
X86984580Y-116142857D02*
X87032200Y-116190476D01*
X87032200Y-116190476D02*
X87079819Y-116333333D01*
X87079819Y-116333333D02*
X87079819Y-116428571D01*
X87079819Y-116428571D02*
X87032200Y-116571428D01*
X87032200Y-116571428D02*
X86936961Y-116666666D01*
X86936961Y-116666666D02*
X86841723Y-116714285D01*
X86841723Y-116714285D02*
X86651247Y-116761904D01*
X86651247Y-116761904D02*
X86508390Y-116761904D01*
X86508390Y-116761904D02*
X86317914Y-116714285D01*
X86317914Y-116714285D02*
X86222676Y-116666666D01*
X86222676Y-116666666D02*
X86127438Y-116571428D01*
X86127438Y-116571428D02*
X86079819Y-116428571D01*
X86079819Y-116428571D02*
X86079819Y-116333333D01*
X86079819Y-116333333D02*
X86127438Y-116190476D01*
X86127438Y-116190476D02*
X86175057Y-116142857D01*
X87079819Y-115190476D02*
X87079819Y-115761904D01*
X87079819Y-115476190D02*
X86079819Y-115476190D01*
X86079819Y-115476190D02*
X86222676Y-115571428D01*
X86222676Y-115571428D02*
X86317914Y-115666666D01*
X86317914Y-115666666D02*
X86365533Y-115761904D01*
X86079819Y-114571428D02*
X86079819Y-114476190D01*
X86079819Y-114476190D02*
X86127438Y-114380952D01*
X86127438Y-114380952D02*
X86175057Y-114333333D01*
X86175057Y-114333333D02*
X86270295Y-114285714D01*
X86270295Y-114285714D02*
X86460771Y-114238095D01*
X86460771Y-114238095D02*
X86698866Y-114238095D01*
X86698866Y-114238095D02*
X86889342Y-114285714D01*
X86889342Y-114285714D02*
X86984580Y-114333333D01*
X86984580Y-114333333D02*
X87032200Y-114380952D01*
X87032200Y-114380952D02*
X87079819Y-114476190D01*
X87079819Y-114476190D02*
X87079819Y-114571428D01*
X87079819Y-114571428D02*
X87032200Y-114666666D01*
X87032200Y-114666666D02*
X86984580Y-114714285D01*
X86984580Y-114714285D02*
X86889342Y-114761904D01*
X86889342Y-114761904D02*
X86698866Y-114809523D01*
X86698866Y-114809523D02*
X86460771Y-114809523D01*
X86460771Y-114809523D02*
X86270295Y-114761904D01*
X86270295Y-114761904D02*
X86175057Y-114714285D01*
X86175057Y-114714285D02*
X86127438Y-114666666D01*
X86127438Y-114666666D02*
X86079819Y-114571428D01*
X93313557Y-115469999D02*
X92884985Y-115769999D01*
X93313557Y-115984285D02*
X92413557Y-115984285D01*
X92413557Y-115984285D02*
X92413557Y-115641428D01*
X92413557Y-115641428D02*
X92456414Y-115555713D01*
X92456414Y-115555713D02*
X92499271Y-115512856D01*
X92499271Y-115512856D02*
X92584985Y-115469999D01*
X92584985Y-115469999D02*
X92713557Y-115469999D01*
X92713557Y-115469999D02*
X92799271Y-115512856D01*
X92799271Y-115512856D02*
X92842128Y-115555713D01*
X92842128Y-115555713D02*
X92884985Y-115641428D01*
X92884985Y-115641428D02*
X92884985Y-115984285D01*
X92799271Y-114955713D02*
X92756414Y-115041428D01*
X92756414Y-115041428D02*
X92713557Y-115084285D01*
X92713557Y-115084285D02*
X92627842Y-115127142D01*
X92627842Y-115127142D02*
X92584985Y-115127142D01*
X92584985Y-115127142D02*
X92499271Y-115084285D01*
X92499271Y-115084285D02*
X92456414Y-115041428D01*
X92456414Y-115041428D02*
X92413557Y-114955713D01*
X92413557Y-114955713D02*
X92413557Y-114784285D01*
X92413557Y-114784285D02*
X92456414Y-114698571D01*
X92456414Y-114698571D02*
X92499271Y-114655713D01*
X92499271Y-114655713D02*
X92584985Y-114612856D01*
X92584985Y-114612856D02*
X92627842Y-114612856D01*
X92627842Y-114612856D02*
X92713557Y-114655713D01*
X92713557Y-114655713D02*
X92756414Y-114698571D01*
X92756414Y-114698571D02*
X92799271Y-114784285D01*
X92799271Y-114784285D02*
X92799271Y-114955713D01*
X92799271Y-114955713D02*
X92842128Y-115041428D01*
X92842128Y-115041428D02*
X92884985Y-115084285D01*
X92884985Y-115084285D02*
X92970700Y-115127142D01*
X92970700Y-115127142D02*
X93142128Y-115127142D01*
X93142128Y-115127142D02*
X93227842Y-115084285D01*
X93227842Y-115084285D02*
X93270700Y-115041428D01*
X93270700Y-115041428D02*
X93313557Y-114955713D01*
X93313557Y-114955713D02*
X93313557Y-114784285D01*
X93313557Y-114784285D02*
X93270700Y-114698571D01*
X93270700Y-114698571D02*
X93227842Y-114655713D01*
X93227842Y-114655713D02*
X93142128Y-114612856D01*
X93142128Y-114612856D02*
X92970700Y-114612856D01*
X92970700Y-114612856D02*
X92884985Y-114655713D01*
X92884985Y-114655713D02*
X92842128Y-114698571D01*
X92842128Y-114698571D02*
X92799271Y-114784285D01*
X65775057Y-118197619D02*
X65727438Y-118292857D01*
X65727438Y-118292857D02*
X65632200Y-118388095D01*
X65632200Y-118388095D02*
X65489342Y-118530952D01*
X65489342Y-118530952D02*
X65441723Y-118626190D01*
X65441723Y-118626190D02*
X65441723Y-118721428D01*
X65679819Y-118673809D02*
X65632200Y-118769047D01*
X65632200Y-118769047D02*
X65536961Y-118864285D01*
X65536961Y-118864285D02*
X65346485Y-118911904D01*
X65346485Y-118911904D02*
X65013152Y-118911904D01*
X65013152Y-118911904D02*
X64822676Y-118864285D01*
X64822676Y-118864285D02*
X64727438Y-118769047D01*
X64727438Y-118769047D02*
X64679819Y-118673809D01*
X64679819Y-118673809D02*
X64679819Y-118483333D01*
X64679819Y-118483333D02*
X64727438Y-118388095D01*
X64727438Y-118388095D02*
X64822676Y-118292857D01*
X64822676Y-118292857D02*
X65013152Y-118245238D01*
X65013152Y-118245238D02*
X65346485Y-118245238D01*
X65346485Y-118245238D02*
X65536961Y-118292857D01*
X65536961Y-118292857D02*
X65632200Y-118388095D01*
X65632200Y-118388095D02*
X65679819Y-118483333D01*
X65679819Y-118483333D02*
X65679819Y-118673809D01*
X65679819Y-117292857D02*
X65679819Y-117864285D01*
X65679819Y-117578571D02*
X64679819Y-117578571D01*
X64679819Y-117578571D02*
X64822676Y-117673809D01*
X64822676Y-117673809D02*
X64917914Y-117769047D01*
X64917914Y-117769047D02*
X64965533Y-117864285D01*
X64679819Y-116673809D02*
X64679819Y-116578571D01*
X64679819Y-116578571D02*
X64727438Y-116483333D01*
X64727438Y-116483333D02*
X64775057Y-116435714D01*
X64775057Y-116435714D02*
X64870295Y-116388095D01*
X64870295Y-116388095D02*
X65060771Y-116340476D01*
X65060771Y-116340476D02*
X65298866Y-116340476D01*
X65298866Y-116340476D02*
X65489342Y-116388095D01*
X65489342Y-116388095D02*
X65584580Y-116435714D01*
X65584580Y-116435714D02*
X65632200Y-116483333D01*
X65632200Y-116483333D02*
X65679819Y-116578571D01*
X65679819Y-116578571D02*
X65679819Y-116673809D01*
X65679819Y-116673809D02*
X65632200Y-116769047D01*
X65632200Y-116769047D02*
X65584580Y-116816666D01*
X65584580Y-116816666D02*
X65489342Y-116864285D01*
X65489342Y-116864285D02*
X65298866Y-116911904D01*
X65298866Y-116911904D02*
X65060771Y-116911904D01*
X65060771Y-116911904D02*
X64870295Y-116864285D01*
X64870295Y-116864285D02*
X64775057Y-116816666D01*
X64775057Y-116816666D02*
X64727438Y-116769047D01*
X64727438Y-116769047D02*
X64679819Y-116673809D01*
X64775057Y-115959523D02*
X64727438Y-115911904D01*
X64727438Y-115911904D02*
X64679819Y-115816666D01*
X64679819Y-115816666D02*
X64679819Y-115578571D01*
X64679819Y-115578571D02*
X64727438Y-115483333D01*
X64727438Y-115483333D02*
X64775057Y-115435714D01*
X64775057Y-115435714D02*
X64870295Y-115388095D01*
X64870295Y-115388095D02*
X64965533Y-115388095D01*
X64965533Y-115388095D02*
X65108390Y-115435714D01*
X65108390Y-115435714D02*
X65679819Y-116007142D01*
X65679819Y-116007142D02*
X65679819Y-115388095D01*
X61177380Y-114200057D02*
X61082142Y-114152438D01*
X61082142Y-114152438D02*
X60986904Y-114057200D01*
X60986904Y-114057200D02*
X60844047Y-113914342D01*
X60844047Y-113914342D02*
X60748809Y-113866723D01*
X60748809Y-113866723D02*
X60653571Y-113866723D01*
X60701190Y-114104819D02*
X60605952Y-114057200D01*
X60605952Y-114057200D02*
X60510714Y-113961961D01*
X60510714Y-113961961D02*
X60463095Y-113771485D01*
X60463095Y-113771485D02*
X60463095Y-113438152D01*
X60463095Y-113438152D02*
X60510714Y-113247676D01*
X60510714Y-113247676D02*
X60605952Y-113152438D01*
X60605952Y-113152438D02*
X60701190Y-113104819D01*
X60701190Y-113104819D02*
X60891666Y-113104819D01*
X60891666Y-113104819D02*
X60986904Y-113152438D01*
X60986904Y-113152438D02*
X61082142Y-113247676D01*
X61082142Y-113247676D02*
X61129761Y-113438152D01*
X61129761Y-113438152D02*
X61129761Y-113771485D01*
X61129761Y-113771485D02*
X61082142Y-113961961D01*
X61082142Y-113961961D02*
X60986904Y-114057200D01*
X60986904Y-114057200D02*
X60891666Y-114104819D01*
X60891666Y-114104819D02*
X60701190Y-114104819D01*
X62082142Y-114104819D02*
X61510714Y-114104819D01*
X61796428Y-114104819D02*
X61796428Y-113104819D01*
X61796428Y-113104819D02*
X61701190Y-113247676D01*
X61701190Y-113247676D02*
X61605952Y-113342914D01*
X61605952Y-113342914D02*
X61510714Y-113390533D01*
X62701190Y-113104819D02*
X62796428Y-113104819D01*
X62796428Y-113104819D02*
X62891666Y-113152438D01*
X62891666Y-113152438D02*
X62939285Y-113200057D01*
X62939285Y-113200057D02*
X62986904Y-113295295D01*
X62986904Y-113295295D02*
X63034523Y-113485771D01*
X63034523Y-113485771D02*
X63034523Y-113723866D01*
X63034523Y-113723866D02*
X62986904Y-113914342D01*
X62986904Y-113914342D02*
X62939285Y-114009580D01*
X62939285Y-114009580D02*
X62891666Y-114057200D01*
X62891666Y-114057200D02*
X62796428Y-114104819D01*
X62796428Y-114104819D02*
X62701190Y-114104819D01*
X62701190Y-114104819D02*
X62605952Y-114057200D01*
X62605952Y-114057200D02*
X62558333Y-114009580D01*
X62558333Y-114009580D02*
X62510714Y-113914342D01*
X62510714Y-113914342D02*
X62463095Y-113723866D01*
X62463095Y-113723866D02*
X62463095Y-113485771D01*
X62463095Y-113485771D02*
X62510714Y-113295295D01*
X62510714Y-113295295D02*
X62558333Y-113200057D01*
X62558333Y-113200057D02*
X62605952Y-113152438D01*
X62605952Y-113152438D02*
X62701190Y-113104819D01*
X63986904Y-114104819D02*
X63415476Y-114104819D01*
X63701190Y-114104819D02*
X63701190Y-113104819D01*
X63701190Y-113104819D02*
X63605952Y-113247676D01*
X63605952Y-113247676D02*
X63510714Y-113342914D01*
X63510714Y-113342914D02*
X63415476Y-113390533D01*
X54984580Y-91142857D02*
X55032200Y-91190476D01*
X55032200Y-91190476D02*
X55079819Y-91333333D01*
X55079819Y-91333333D02*
X55079819Y-91428571D01*
X55079819Y-91428571D02*
X55032200Y-91571428D01*
X55032200Y-91571428D02*
X54936961Y-91666666D01*
X54936961Y-91666666D02*
X54841723Y-91714285D01*
X54841723Y-91714285D02*
X54651247Y-91761904D01*
X54651247Y-91761904D02*
X54508390Y-91761904D01*
X54508390Y-91761904D02*
X54317914Y-91714285D01*
X54317914Y-91714285D02*
X54222676Y-91666666D01*
X54222676Y-91666666D02*
X54127438Y-91571428D01*
X54127438Y-91571428D02*
X54079819Y-91428571D01*
X54079819Y-91428571D02*
X54079819Y-91333333D01*
X54079819Y-91333333D02*
X54127438Y-91190476D01*
X54127438Y-91190476D02*
X54175057Y-91142857D01*
X55079819Y-90190476D02*
X55079819Y-90761904D01*
X55079819Y-90476190D02*
X54079819Y-90476190D01*
X54079819Y-90476190D02*
X54222676Y-90571428D01*
X54222676Y-90571428D02*
X54317914Y-90666666D01*
X54317914Y-90666666D02*
X54365533Y-90761904D01*
X55079819Y-89238095D02*
X55079819Y-89809523D01*
X55079819Y-89523809D02*
X54079819Y-89523809D01*
X54079819Y-89523809D02*
X54222676Y-89619047D01*
X54222676Y-89619047D02*
X54317914Y-89714285D01*
X54317914Y-89714285D02*
X54365533Y-89809523D01*
X45633557Y-115507142D02*
X45204985Y-115807142D01*
X45633557Y-116021428D02*
X44733557Y-116021428D01*
X44733557Y-116021428D02*
X44733557Y-115678571D01*
X44733557Y-115678571D02*
X44776414Y-115592856D01*
X44776414Y-115592856D02*
X44819271Y-115549999D01*
X44819271Y-115549999D02*
X44904985Y-115507142D01*
X44904985Y-115507142D02*
X45033557Y-115507142D01*
X45033557Y-115507142D02*
X45119271Y-115549999D01*
X45119271Y-115549999D02*
X45162128Y-115592856D01*
X45162128Y-115592856D02*
X45204985Y-115678571D01*
X45204985Y-115678571D02*
X45204985Y-116021428D01*
X45633557Y-114649999D02*
X45633557Y-115164285D01*
X45633557Y-114907142D02*
X44733557Y-114907142D01*
X44733557Y-114907142D02*
X44862128Y-114992856D01*
X44862128Y-114992856D02*
X44947842Y-115078571D01*
X44947842Y-115078571D02*
X44990700Y-115164285D01*
X44733557Y-114092856D02*
X44733557Y-114007142D01*
X44733557Y-114007142D02*
X44776414Y-113921428D01*
X44776414Y-113921428D02*
X44819271Y-113878571D01*
X44819271Y-113878571D02*
X44904985Y-113835713D01*
X44904985Y-113835713D02*
X45076414Y-113792856D01*
X45076414Y-113792856D02*
X45290700Y-113792856D01*
X45290700Y-113792856D02*
X45462128Y-113835713D01*
X45462128Y-113835713D02*
X45547842Y-113878571D01*
X45547842Y-113878571D02*
X45590700Y-113921428D01*
X45590700Y-113921428D02*
X45633557Y-114007142D01*
X45633557Y-114007142D02*
X45633557Y-114092856D01*
X45633557Y-114092856D02*
X45590700Y-114178571D01*
X45590700Y-114178571D02*
X45547842Y-114221428D01*
X45547842Y-114221428D02*
X45462128Y-114264285D01*
X45462128Y-114264285D02*
X45290700Y-114307142D01*
X45290700Y-114307142D02*
X45076414Y-114307142D01*
X45076414Y-114307142D02*
X44904985Y-114264285D01*
X44904985Y-114264285D02*
X44819271Y-114221428D01*
X44819271Y-114221428D02*
X44776414Y-114178571D01*
X44776414Y-114178571D02*
X44733557Y-114092856D01*
X45033557Y-113021428D02*
X45633557Y-113021428D01*
X44690700Y-113235713D02*
X45333557Y-113449999D01*
X45333557Y-113449999D02*
X45333557Y-112892856D01*
X42684580Y-114866666D02*
X42732200Y-114914285D01*
X42732200Y-114914285D02*
X42779819Y-115057142D01*
X42779819Y-115057142D02*
X42779819Y-115152380D01*
X42779819Y-115152380D02*
X42732200Y-115295237D01*
X42732200Y-115295237D02*
X42636961Y-115390475D01*
X42636961Y-115390475D02*
X42541723Y-115438094D01*
X42541723Y-115438094D02*
X42351247Y-115485713D01*
X42351247Y-115485713D02*
X42208390Y-115485713D01*
X42208390Y-115485713D02*
X42017914Y-115438094D01*
X42017914Y-115438094D02*
X41922676Y-115390475D01*
X41922676Y-115390475D02*
X41827438Y-115295237D01*
X41827438Y-115295237D02*
X41779819Y-115152380D01*
X41779819Y-115152380D02*
X41779819Y-115057142D01*
X41779819Y-115057142D02*
X41827438Y-114914285D01*
X41827438Y-114914285D02*
X41875057Y-114866666D01*
X42779819Y-113914285D02*
X42779819Y-114485713D01*
X42779819Y-114199999D02*
X41779819Y-114199999D01*
X41779819Y-114199999D02*
X41922676Y-114295237D01*
X41922676Y-114295237D02*
X42017914Y-114390475D01*
X42017914Y-114390475D02*
X42065533Y-114485713D01*
X42733557Y-104349999D02*
X42304985Y-104649999D01*
X42733557Y-104864285D02*
X41833557Y-104864285D01*
X41833557Y-104864285D02*
X41833557Y-104521428D01*
X41833557Y-104521428D02*
X41876414Y-104435713D01*
X41876414Y-104435713D02*
X41919271Y-104392856D01*
X41919271Y-104392856D02*
X42004985Y-104349999D01*
X42004985Y-104349999D02*
X42133557Y-104349999D01*
X42133557Y-104349999D02*
X42219271Y-104392856D01*
X42219271Y-104392856D02*
X42262128Y-104435713D01*
X42262128Y-104435713D02*
X42304985Y-104521428D01*
X42304985Y-104521428D02*
X42304985Y-104864285D01*
X42733557Y-103492856D02*
X42733557Y-104007142D01*
X42733557Y-103749999D02*
X41833557Y-103749999D01*
X41833557Y-103749999D02*
X41962128Y-103835713D01*
X41962128Y-103835713D02*
X42047842Y-103921428D01*
X42047842Y-103921428D02*
X42090700Y-104007142D01*
X45633557Y-104349999D02*
X45204985Y-104649999D01*
X45633557Y-104864285D02*
X44733557Y-104864285D01*
X44733557Y-104864285D02*
X44733557Y-104521428D01*
X44733557Y-104521428D02*
X44776414Y-104435713D01*
X44776414Y-104435713D02*
X44819271Y-104392856D01*
X44819271Y-104392856D02*
X44904985Y-104349999D01*
X44904985Y-104349999D02*
X45033557Y-104349999D01*
X45033557Y-104349999D02*
X45119271Y-104392856D01*
X45119271Y-104392856D02*
X45162128Y-104435713D01*
X45162128Y-104435713D02*
X45204985Y-104521428D01*
X45204985Y-104521428D02*
X45204985Y-104864285D01*
X44819271Y-104007142D02*
X44776414Y-103964285D01*
X44776414Y-103964285D02*
X44733557Y-103878571D01*
X44733557Y-103878571D02*
X44733557Y-103664285D01*
X44733557Y-103664285D02*
X44776414Y-103578571D01*
X44776414Y-103578571D02*
X44819271Y-103535713D01*
X44819271Y-103535713D02*
X44904985Y-103492856D01*
X44904985Y-103492856D02*
X44990700Y-103492856D01*
X44990700Y-103492856D02*
X45119271Y-103535713D01*
X45119271Y-103535713D02*
X45633557Y-104049999D01*
X45633557Y-104049999D02*
X45633557Y-103492856D01*
X67063095Y-90824819D02*
X67063095Y-91634342D01*
X67063095Y-91634342D02*
X67110714Y-91729580D01*
X67110714Y-91729580D02*
X67158333Y-91777200D01*
X67158333Y-91777200D02*
X67253571Y-91824819D01*
X67253571Y-91824819D02*
X67444047Y-91824819D01*
X67444047Y-91824819D02*
X67539285Y-91777200D01*
X67539285Y-91777200D02*
X67586904Y-91729580D01*
X67586904Y-91729580D02*
X67634523Y-91634342D01*
X67634523Y-91634342D02*
X67634523Y-90824819D01*
X68634523Y-91824819D02*
X68063095Y-91824819D01*
X68348809Y-91824819D02*
X68348809Y-90824819D01*
X68348809Y-90824819D02*
X68253571Y-90967676D01*
X68253571Y-90967676D02*
X68158333Y-91062914D01*
X68158333Y-91062914D02*
X68063095Y-91110533D01*
D12*
X79033919Y-73124009D02*
X78725055Y-72682775D01*
X78504438Y-73124009D02*
X78504438Y-72197417D01*
X78504438Y-72197417D02*
X78857425Y-72197417D01*
X78857425Y-72197417D02*
X78945672Y-72241540D01*
X78945672Y-72241540D02*
X78989795Y-72285664D01*
X78989795Y-72285664D02*
X79033919Y-72373911D01*
X79033919Y-72373911D02*
X79033919Y-72506281D01*
X79033919Y-72506281D02*
X78989795Y-72594528D01*
X78989795Y-72594528D02*
X78945672Y-72638651D01*
X78945672Y-72638651D02*
X78857425Y-72682775D01*
X78857425Y-72682775D02*
X78504438Y-72682775D01*
X79298659Y-72197417D02*
X79607523Y-73124009D01*
X79607523Y-73124009D02*
X79916387Y-72197417D01*
X80181128Y-72285664D02*
X80225252Y-72241540D01*
X80225252Y-72241540D02*
X80313499Y-72197417D01*
X80313499Y-72197417D02*
X80534116Y-72197417D01*
X80534116Y-72197417D02*
X80622363Y-72241540D01*
X80622363Y-72241540D02*
X80666486Y-72285664D01*
X80666486Y-72285664D02*
X80710609Y-72373911D01*
X80710609Y-72373911D02*
X80710609Y-72462158D01*
X80710609Y-72462158D02*
X80666486Y-72594528D01*
X80666486Y-72594528D02*
X80137005Y-73124009D01*
X80137005Y-73124009D02*
X80710609Y-73124009D01*
D13*
X80386578Y-70310559D02*
X80829361Y-70310559D01*
X80829361Y-70310559D02*
X80590939Y-70583040D01*
X80590939Y-70583040D02*
X80693120Y-70583040D01*
X80693120Y-70583040D02*
X80761240Y-70617100D01*
X80761240Y-70617100D02*
X80795300Y-70651161D01*
X80795300Y-70651161D02*
X80829361Y-70719281D01*
X80829361Y-70719281D02*
X80829361Y-70889582D01*
X80829361Y-70889582D02*
X80795300Y-70957702D01*
X80795300Y-70957702D02*
X80761240Y-70991763D01*
X80761240Y-70991763D02*
X80693120Y-71025823D01*
X80693120Y-71025823D02*
X80488759Y-71025823D01*
X80488759Y-71025823D02*
X80420638Y-70991763D01*
X80420638Y-70991763D02*
X80386578Y-70957702D01*
X94529361Y-74125823D02*
X94120638Y-74125823D01*
X94324999Y-74125823D02*
X94324999Y-73410559D01*
X94324999Y-73410559D02*
X94256879Y-73512739D01*
X94256879Y-73512739D02*
X94188759Y-73580860D01*
X94188759Y-73580860D02*
X94120638Y-73614920D01*
D12*
X86933919Y-94724009D02*
X86625055Y-94282775D01*
X86404438Y-94724009D02*
X86404438Y-93797417D01*
X86404438Y-93797417D02*
X86757425Y-93797417D01*
X86757425Y-93797417D02*
X86845672Y-93841540D01*
X86845672Y-93841540D02*
X86889795Y-93885664D01*
X86889795Y-93885664D02*
X86933919Y-93973911D01*
X86933919Y-93973911D02*
X86933919Y-94106281D01*
X86933919Y-94106281D02*
X86889795Y-94194528D01*
X86889795Y-94194528D02*
X86845672Y-94238651D01*
X86845672Y-94238651D02*
X86757425Y-94282775D01*
X86757425Y-94282775D02*
X86404438Y-94282775D01*
X87198659Y-93797417D02*
X87507523Y-94724009D01*
X87507523Y-94724009D02*
X87816387Y-93797417D01*
X88037005Y-93797417D02*
X88610609Y-93797417D01*
X88610609Y-93797417D02*
X88301745Y-94150404D01*
X88301745Y-94150404D02*
X88434116Y-94150404D01*
X88434116Y-94150404D02*
X88522363Y-94194528D01*
X88522363Y-94194528D02*
X88566486Y-94238651D01*
X88566486Y-94238651D02*
X88610609Y-94326898D01*
X88610609Y-94326898D02*
X88610609Y-94547515D01*
X88610609Y-94547515D02*
X88566486Y-94635762D01*
X88566486Y-94635762D02*
X88522363Y-94679886D01*
X88522363Y-94679886D02*
X88434116Y-94724009D01*
X88434116Y-94724009D02*
X88169375Y-94724009D01*
X88169375Y-94724009D02*
X88081128Y-94679886D01*
X88081128Y-94679886D02*
X88037005Y-94635762D01*
D13*
X93329361Y-99525823D02*
X92920638Y-99525823D01*
X93124999Y-99525823D02*
X93124999Y-98810559D01*
X93124999Y-98810559D02*
X93056879Y-98912739D01*
X93056879Y-98912739D02*
X92988759Y-98980860D01*
X92988759Y-98980860D02*
X92920638Y-99014920D01*
X84886578Y-97710559D02*
X85329361Y-97710559D01*
X85329361Y-97710559D02*
X85090939Y-97983040D01*
X85090939Y-97983040D02*
X85193120Y-97983040D01*
X85193120Y-97983040D02*
X85261240Y-98017100D01*
X85261240Y-98017100D02*
X85295300Y-98051161D01*
X85295300Y-98051161D02*
X85329361Y-98119281D01*
X85329361Y-98119281D02*
X85329361Y-98289582D01*
X85329361Y-98289582D02*
X85295300Y-98357702D01*
X85295300Y-98357702D02*
X85261240Y-98391763D01*
X85261240Y-98391763D02*
X85193120Y-98425823D01*
X85193120Y-98425823D02*
X84988759Y-98425823D01*
X84988759Y-98425823D02*
X84920638Y-98391763D01*
X84920638Y-98391763D02*
X84886578Y-98357702D01*
D12*
X55333919Y-72924009D02*
X55025055Y-72482775D01*
X54804438Y-72924009D02*
X54804438Y-71997417D01*
X54804438Y-71997417D02*
X55157425Y-71997417D01*
X55157425Y-71997417D02*
X55245672Y-72041540D01*
X55245672Y-72041540D02*
X55289795Y-72085664D01*
X55289795Y-72085664D02*
X55333919Y-72173911D01*
X55333919Y-72173911D02*
X55333919Y-72306281D01*
X55333919Y-72306281D02*
X55289795Y-72394528D01*
X55289795Y-72394528D02*
X55245672Y-72438651D01*
X55245672Y-72438651D02*
X55157425Y-72482775D01*
X55157425Y-72482775D02*
X54804438Y-72482775D01*
X55598659Y-71997417D02*
X55907523Y-72924009D01*
X55907523Y-72924009D02*
X56216387Y-71997417D01*
X56922363Y-72306281D02*
X56922363Y-72924009D01*
X56701745Y-71953294D02*
X56481128Y-72615145D01*
X56481128Y-72615145D02*
X57054733Y-72615145D01*
D13*
X40181578Y-70883559D02*
X40624361Y-70883559D01*
X40624361Y-70883559D02*
X40385939Y-71156040D01*
X40385939Y-71156040D02*
X40488120Y-71156040D01*
X40488120Y-71156040D02*
X40556240Y-71190100D01*
X40556240Y-71190100D02*
X40590300Y-71224161D01*
X40590300Y-71224161D02*
X40624361Y-71292281D01*
X40624361Y-71292281D02*
X40624361Y-71462582D01*
X40624361Y-71462582D02*
X40590300Y-71530702D01*
X40590300Y-71530702D02*
X40556240Y-71564763D01*
X40556240Y-71564763D02*
X40488120Y-71598823D01*
X40488120Y-71598823D02*
X40283759Y-71598823D01*
X40283759Y-71598823D02*
X40215638Y-71564763D01*
X40215638Y-71564763D02*
X40181578Y-71530702D01*
X54721361Y-71598823D02*
X54312638Y-71598823D01*
X54516999Y-71598823D02*
X54516999Y-70883559D01*
X54516999Y-70883559D02*
X54448879Y-70985739D01*
X54448879Y-70985739D02*
X54380759Y-71053860D01*
X54380759Y-71053860D02*
X54312638Y-71087920D01*
D12*
X47033919Y-94624009D02*
X46725055Y-94182775D01*
X46504438Y-94624009D02*
X46504438Y-93697417D01*
X46504438Y-93697417D02*
X46857425Y-93697417D01*
X46857425Y-93697417D02*
X46945672Y-93741540D01*
X46945672Y-93741540D02*
X46989795Y-93785664D01*
X46989795Y-93785664D02*
X47033919Y-93873911D01*
X47033919Y-93873911D02*
X47033919Y-94006281D01*
X47033919Y-94006281D02*
X46989795Y-94094528D01*
X46989795Y-94094528D02*
X46945672Y-94138651D01*
X46945672Y-94138651D02*
X46857425Y-94182775D01*
X46857425Y-94182775D02*
X46504438Y-94182775D01*
X47298659Y-93697417D02*
X47607523Y-94624009D01*
X47607523Y-94624009D02*
X47916387Y-93697417D01*
X48710609Y-94624009D02*
X48181128Y-94624009D01*
X48445869Y-94624009D02*
X48445869Y-93697417D01*
X48445869Y-93697417D02*
X48357622Y-93829787D01*
X48357622Y-93829787D02*
X48269375Y-93918034D01*
X48269375Y-93918034D02*
X48181128Y-93962158D01*
D13*
X42086578Y-94110559D02*
X42529361Y-94110559D01*
X42529361Y-94110559D02*
X42290939Y-94383040D01*
X42290939Y-94383040D02*
X42393120Y-94383040D01*
X42393120Y-94383040D02*
X42461240Y-94417100D01*
X42461240Y-94417100D02*
X42495300Y-94451161D01*
X42495300Y-94451161D02*
X42529361Y-94519281D01*
X42529361Y-94519281D02*
X42529361Y-94689582D01*
X42529361Y-94689582D02*
X42495300Y-94757702D01*
X42495300Y-94757702D02*
X42461240Y-94791763D01*
X42461240Y-94791763D02*
X42393120Y-94825823D01*
X42393120Y-94825823D02*
X42188759Y-94825823D01*
X42188759Y-94825823D02*
X42120638Y-94791763D01*
X42120638Y-94791763D02*
X42086578Y-94757702D01*
X54829361Y-96325823D02*
X54420638Y-96325823D01*
X54624999Y-96325823D02*
X54624999Y-95610559D01*
X54624999Y-95610559D02*
X54556879Y-95712739D01*
X54556879Y-95712739D02*
X54488759Y-95780860D01*
X54488759Y-95780860D02*
X54420638Y-95814920D01*
D14*
X74844389Y-83054020D02*
X74862773Y-82998866D01*
X74862773Y-82998866D02*
X74862773Y-82906942D01*
X74862773Y-82906942D02*
X74844389Y-82870173D01*
X74844389Y-82870173D02*
X74826004Y-82851788D01*
X74826004Y-82851788D02*
X74789234Y-82833403D01*
X74789234Y-82833403D02*
X74752465Y-82833403D01*
X74752465Y-82833403D02*
X74715695Y-82851788D01*
X74715695Y-82851788D02*
X74697310Y-82870173D01*
X74697310Y-82870173D02*
X74678926Y-82906942D01*
X74678926Y-82906942D02*
X74660541Y-82980481D01*
X74660541Y-82980481D02*
X74642156Y-83017251D01*
X74642156Y-83017251D02*
X74623771Y-83035636D01*
X74623771Y-83035636D02*
X74587002Y-83054020D01*
X74587002Y-83054020D02*
X74550232Y-83054020D01*
X74550232Y-83054020D02*
X74513463Y-83035636D01*
X74513463Y-83035636D02*
X74495078Y-83017251D01*
X74495078Y-83017251D02*
X74476693Y-82980481D01*
X74476693Y-82980481D02*
X74476693Y-82888558D01*
X74476693Y-82888558D02*
X74495078Y-82833403D01*
X74476693Y-82594402D02*
X74476693Y-82520863D01*
X74476693Y-82520863D02*
X74495078Y-82484093D01*
X74495078Y-82484093D02*
X74531848Y-82447324D01*
X74531848Y-82447324D02*
X74605387Y-82428939D01*
X74605387Y-82428939D02*
X74734080Y-82428939D01*
X74734080Y-82428939D02*
X74807619Y-82447324D01*
X74807619Y-82447324D02*
X74844389Y-82484093D01*
X74844389Y-82484093D02*
X74862773Y-82520863D01*
X74862773Y-82520863D02*
X74862773Y-82594402D01*
X74862773Y-82594402D02*
X74844389Y-82631171D01*
X74844389Y-82631171D02*
X74807619Y-82667941D01*
X74807619Y-82667941D02*
X74734080Y-82686325D01*
X74734080Y-82686325D02*
X74605387Y-82686325D01*
X74605387Y-82686325D02*
X74531848Y-82667941D01*
X74531848Y-82667941D02*
X74495078Y-82631171D01*
X74495078Y-82631171D02*
X74476693Y-82594402D01*
X74862773Y-82079628D02*
X74862773Y-82263476D01*
X74862773Y-82263476D02*
X74476693Y-82263476D01*
X74862773Y-81950935D02*
X74476693Y-81950935D01*
X74476693Y-81950935D02*
X74476693Y-81859011D01*
X74476693Y-81859011D02*
X74495078Y-81803857D01*
X74495078Y-81803857D02*
X74531848Y-81767087D01*
X74531848Y-81767087D02*
X74568617Y-81748702D01*
X74568617Y-81748702D02*
X74642156Y-81730318D01*
X74642156Y-81730318D02*
X74697310Y-81730318D01*
X74697310Y-81730318D02*
X74770849Y-81748702D01*
X74770849Y-81748702D02*
X74807619Y-81767087D01*
X74807619Y-81767087D02*
X74844389Y-81803857D01*
X74844389Y-81803857D02*
X74862773Y-81859011D01*
X74862773Y-81859011D02*
X74862773Y-81950935D01*
X74660541Y-81564855D02*
X74660541Y-81436161D01*
X74862773Y-81381007D02*
X74862773Y-81564855D01*
X74862773Y-81564855D02*
X74476693Y-81564855D01*
X74476693Y-81564855D02*
X74476693Y-81381007D01*
X74862773Y-80994928D02*
X74678926Y-81123621D01*
X74862773Y-81215545D02*
X74476693Y-81215545D01*
X74476693Y-81215545D02*
X74476693Y-81068467D01*
X74476693Y-81068467D02*
X74495078Y-81031697D01*
X74495078Y-81031697D02*
X74513463Y-81013312D01*
X74513463Y-81013312D02*
X74550232Y-80994928D01*
X74550232Y-80994928D02*
X74605387Y-80994928D01*
X74605387Y-80994928D02*
X74642156Y-81013312D01*
X74642156Y-81013312D02*
X74660541Y-81031697D01*
X74660541Y-81031697D02*
X74678926Y-81068467D01*
X74678926Y-81068467D02*
X74678926Y-81215545D01*
D10*
X45305952Y-86259580D02*
X45258333Y-86307200D01*
X45258333Y-86307200D02*
X45115476Y-86354819D01*
X45115476Y-86354819D02*
X45020238Y-86354819D01*
X45020238Y-86354819D02*
X44877381Y-86307200D01*
X44877381Y-86307200D02*
X44782143Y-86211961D01*
X44782143Y-86211961D02*
X44734524Y-86116723D01*
X44734524Y-86116723D02*
X44686905Y-85926247D01*
X44686905Y-85926247D02*
X44686905Y-85783390D01*
X44686905Y-85783390D02*
X44734524Y-85592914D01*
X44734524Y-85592914D02*
X44782143Y-85497676D01*
X44782143Y-85497676D02*
X44877381Y-85402438D01*
X44877381Y-85402438D02*
X45020238Y-85354819D01*
X45020238Y-85354819D02*
X45115476Y-85354819D01*
X45115476Y-85354819D02*
X45258333Y-85402438D01*
X45258333Y-85402438D02*
X45305952Y-85450057D01*
X45686905Y-85450057D02*
X45734524Y-85402438D01*
X45734524Y-85402438D02*
X45829762Y-85354819D01*
X45829762Y-85354819D02*
X46067857Y-85354819D01*
X46067857Y-85354819D02*
X46163095Y-85402438D01*
X46163095Y-85402438D02*
X46210714Y-85450057D01*
X46210714Y-85450057D02*
X46258333Y-85545295D01*
X46258333Y-85545295D02*
X46258333Y-85640533D01*
X46258333Y-85640533D02*
X46210714Y-85783390D01*
X46210714Y-85783390D02*
X45639286Y-86354819D01*
X45639286Y-86354819D02*
X46258333Y-86354819D01*
X46877381Y-85354819D02*
X46972619Y-85354819D01*
X46972619Y-85354819D02*
X47067857Y-85402438D01*
X47067857Y-85402438D02*
X47115476Y-85450057D01*
X47115476Y-85450057D02*
X47163095Y-85545295D01*
X47163095Y-85545295D02*
X47210714Y-85735771D01*
X47210714Y-85735771D02*
X47210714Y-85973866D01*
X47210714Y-85973866D02*
X47163095Y-86164342D01*
X47163095Y-86164342D02*
X47115476Y-86259580D01*
X47115476Y-86259580D02*
X47067857Y-86307200D01*
X47067857Y-86307200D02*
X46972619Y-86354819D01*
X46972619Y-86354819D02*
X46877381Y-86354819D01*
X46877381Y-86354819D02*
X46782143Y-86307200D01*
X46782143Y-86307200D02*
X46734524Y-86259580D01*
X46734524Y-86259580D02*
X46686905Y-86164342D01*
X46686905Y-86164342D02*
X46639286Y-85973866D01*
X46639286Y-85973866D02*
X46639286Y-85735771D01*
X46639286Y-85735771D02*
X46686905Y-85545295D01*
X46686905Y-85545295D02*
X46734524Y-85450057D01*
X46734524Y-85450057D02*
X46782143Y-85402438D01*
X46782143Y-85402438D02*
X46877381Y-85354819D01*
X47544048Y-85354819D02*
X48163095Y-85354819D01*
X48163095Y-85354819D02*
X47829762Y-85735771D01*
X47829762Y-85735771D02*
X47972619Y-85735771D01*
X47972619Y-85735771D02*
X48067857Y-85783390D01*
X48067857Y-85783390D02*
X48115476Y-85831009D01*
X48115476Y-85831009D02*
X48163095Y-85926247D01*
X48163095Y-85926247D02*
X48163095Y-86164342D01*
X48163095Y-86164342D02*
X48115476Y-86259580D01*
X48115476Y-86259580D02*
X48067857Y-86307200D01*
X48067857Y-86307200D02*
X47972619Y-86354819D01*
X47972619Y-86354819D02*
X47686905Y-86354819D01*
X47686905Y-86354819D02*
X47591667Y-86307200D01*
X47591667Y-86307200D02*
X47544048Y-86259580D01*
X78103557Y-85459999D02*
X77674985Y-85759999D01*
X78103557Y-85974285D02*
X77203557Y-85974285D01*
X77203557Y-85974285D02*
X77203557Y-85631428D01*
X77203557Y-85631428D02*
X77246414Y-85545713D01*
X77246414Y-85545713D02*
X77289271Y-85502856D01*
X77289271Y-85502856D02*
X77374985Y-85459999D01*
X77374985Y-85459999D02*
X77503557Y-85459999D01*
X77503557Y-85459999D02*
X77589271Y-85502856D01*
X77589271Y-85502856D02*
X77632128Y-85545713D01*
X77632128Y-85545713D02*
X77674985Y-85631428D01*
X77674985Y-85631428D02*
X77674985Y-85974285D01*
X77203557Y-84688571D02*
X77203557Y-84859999D01*
X77203557Y-84859999D02*
X77246414Y-84945713D01*
X77246414Y-84945713D02*
X77289271Y-84988571D01*
X77289271Y-84988571D02*
X77417842Y-85074285D01*
X77417842Y-85074285D02*
X77589271Y-85117142D01*
X77589271Y-85117142D02*
X77932128Y-85117142D01*
X77932128Y-85117142D02*
X78017842Y-85074285D01*
X78017842Y-85074285D02*
X78060700Y-85031428D01*
X78060700Y-85031428D02*
X78103557Y-84945713D01*
X78103557Y-84945713D02*
X78103557Y-84774285D01*
X78103557Y-84774285D02*
X78060700Y-84688571D01*
X78060700Y-84688571D02*
X78017842Y-84645713D01*
X78017842Y-84645713D02*
X77932128Y-84602856D01*
X77932128Y-84602856D02*
X77717842Y-84602856D01*
X77717842Y-84602856D02*
X77632128Y-84645713D01*
X77632128Y-84645713D02*
X77589271Y-84688571D01*
X77589271Y-84688571D02*
X77546414Y-84774285D01*
X77546414Y-84774285D02*
X77546414Y-84945713D01*
X77546414Y-84945713D02*
X77589271Y-85031428D01*
X77589271Y-85031428D02*
X77632128Y-85074285D01*
X77632128Y-85074285D02*
X77717842Y-85117142D01*
X51005952Y-109259580D02*
X50958333Y-109307200D01*
X50958333Y-109307200D02*
X50815476Y-109354819D01*
X50815476Y-109354819D02*
X50720238Y-109354819D01*
X50720238Y-109354819D02*
X50577381Y-109307200D01*
X50577381Y-109307200D02*
X50482143Y-109211961D01*
X50482143Y-109211961D02*
X50434524Y-109116723D01*
X50434524Y-109116723D02*
X50386905Y-108926247D01*
X50386905Y-108926247D02*
X50386905Y-108783390D01*
X50386905Y-108783390D02*
X50434524Y-108592914D01*
X50434524Y-108592914D02*
X50482143Y-108497676D01*
X50482143Y-108497676D02*
X50577381Y-108402438D01*
X50577381Y-108402438D02*
X50720238Y-108354819D01*
X50720238Y-108354819D02*
X50815476Y-108354819D01*
X50815476Y-108354819D02*
X50958333Y-108402438D01*
X50958333Y-108402438D02*
X51005952Y-108450057D01*
X51958333Y-109354819D02*
X51386905Y-109354819D01*
X51672619Y-109354819D02*
X51672619Y-108354819D01*
X51672619Y-108354819D02*
X51577381Y-108497676D01*
X51577381Y-108497676D02*
X51482143Y-108592914D01*
X51482143Y-108592914D02*
X51386905Y-108640533D01*
X52577381Y-108354819D02*
X52672619Y-108354819D01*
X52672619Y-108354819D02*
X52767857Y-108402438D01*
X52767857Y-108402438D02*
X52815476Y-108450057D01*
X52815476Y-108450057D02*
X52863095Y-108545295D01*
X52863095Y-108545295D02*
X52910714Y-108735771D01*
X52910714Y-108735771D02*
X52910714Y-108973866D01*
X52910714Y-108973866D02*
X52863095Y-109164342D01*
X52863095Y-109164342D02*
X52815476Y-109259580D01*
X52815476Y-109259580D02*
X52767857Y-109307200D01*
X52767857Y-109307200D02*
X52672619Y-109354819D01*
X52672619Y-109354819D02*
X52577381Y-109354819D01*
X52577381Y-109354819D02*
X52482143Y-109307200D01*
X52482143Y-109307200D02*
X52434524Y-109259580D01*
X52434524Y-109259580D02*
X52386905Y-109164342D01*
X52386905Y-109164342D02*
X52339286Y-108973866D01*
X52339286Y-108973866D02*
X52339286Y-108735771D01*
X52339286Y-108735771D02*
X52386905Y-108545295D01*
X52386905Y-108545295D02*
X52434524Y-108450057D01*
X52434524Y-108450057D02*
X52482143Y-108402438D01*
X52482143Y-108402438D02*
X52577381Y-108354819D01*
X53291667Y-108450057D02*
X53339286Y-108402438D01*
X53339286Y-108402438D02*
X53434524Y-108354819D01*
X53434524Y-108354819D02*
X53672619Y-108354819D01*
X53672619Y-108354819D02*
X53767857Y-108402438D01*
X53767857Y-108402438D02*
X53815476Y-108450057D01*
X53815476Y-108450057D02*
X53863095Y-108545295D01*
X53863095Y-108545295D02*
X53863095Y-108640533D01*
X53863095Y-108640533D02*
X53815476Y-108783390D01*
X53815476Y-108783390D02*
X53244048Y-109354819D01*
X53244048Y-109354819D02*
X53863095Y-109354819D01*
X88413446Y-85814693D02*
X88365827Y-85862313D01*
X88365827Y-85862313D02*
X88222970Y-85909932D01*
X88222970Y-85909932D02*
X88127732Y-85909932D01*
X88127732Y-85909932D02*
X87984875Y-85862313D01*
X87984875Y-85862313D02*
X87889637Y-85767074D01*
X87889637Y-85767074D02*
X87842018Y-85671836D01*
X87842018Y-85671836D02*
X87794399Y-85481360D01*
X87794399Y-85481360D02*
X87794399Y-85338503D01*
X87794399Y-85338503D02*
X87842018Y-85148027D01*
X87842018Y-85148027D02*
X87889637Y-85052789D01*
X87889637Y-85052789D02*
X87984875Y-84957551D01*
X87984875Y-84957551D02*
X88127732Y-84909932D01*
X88127732Y-84909932D02*
X88222970Y-84909932D01*
X88222970Y-84909932D02*
X88365827Y-84957551D01*
X88365827Y-84957551D02*
X88413446Y-85005170D01*
X89270589Y-85243265D02*
X89270589Y-85909932D01*
X89032494Y-84862313D02*
X88794399Y-85576598D01*
X88794399Y-85576598D02*
X89413446Y-85576598D01*
X73129761Y-114200057D02*
X73034523Y-114152438D01*
X73034523Y-114152438D02*
X72939285Y-114057200D01*
X72939285Y-114057200D02*
X72796428Y-113914342D01*
X72796428Y-113914342D02*
X72701190Y-113866723D01*
X72701190Y-113866723D02*
X72605952Y-113866723D01*
X72653571Y-114104819D02*
X72558333Y-114057200D01*
X72558333Y-114057200D02*
X72463095Y-113961961D01*
X72463095Y-113961961D02*
X72415476Y-113771485D01*
X72415476Y-113771485D02*
X72415476Y-113438152D01*
X72415476Y-113438152D02*
X72463095Y-113247676D01*
X72463095Y-113247676D02*
X72558333Y-113152438D01*
X72558333Y-113152438D02*
X72653571Y-113104819D01*
X72653571Y-113104819D02*
X72844047Y-113104819D01*
X72844047Y-113104819D02*
X72939285Y-113152438D01*
X72939285Y-113152438D02*
X73034523Y-113247676D01*
X73034523Y-113247676D02*
X73082142Y-113438152D01*
X73082142Y-113438152D02*
X73082142Y-113771485D01*
X73082142Y-113771485D02*
X73034523Y-113961961D01*
X73034523Y-113961961D02*
X72939285Y-114057200D01*
X72939285Y-114057200D02*
X72844047Y-114104819D01*
X72844047Y-114104819D02*
X72653571Y-114104819D01*
X74034523Y-114104819D02*
X73463095Y-114104819D01*
X73748809Y-114104819D02*
X73748809Y-113104819D01*
X73748809Y-113104819D02*
X73653571Y-113247676D01*
X73653571Y-113247676D02*
X73558333Y-113342914D01*
X73558333Y-113342914D02*
X73463095Y-113390533D01*
X74908333Y-86559580D02*
X74860714Y-86607200D01*
X74860714Y-86607200D02*
X74717857Y-86654819D01*
X74717857Y-86654819D02*
X74622619Y-86654819D01*
X74622619Y-86654819D02*
X74479762Y-86607200D01*
X74479762Y-86607200D02*
X74384524Y-86511961D01*
X74384524Y-86511961D02*
X74336905Y-86416723D01*
X74336905Y-86416723D02*
X74289286Y-86226247D01*
X74289286Y-86226247D02*
X74289286Y-86083390D01*
X74289286Y-86083390D02*
X74336905Y-85892914D01*
X74336905Y-85892914D02*
X74384524Y-85797676D01*
X74384524Y-85797676D02*
X74479762Y-85702438D01*
X74479762Y-85702438D02*
X74622619Y-85654819D01*
X74622619Y-85654819D02*
X74717857Y-85654819D01*
X74717857Y-85654819D02*
X74860714Y-85702438D01*
X74860714Y-85702438D02*
X74908333Y-85750057D01*
X75241667Y-85654819D02*
X75860714Y-85654819D01*
X75860714Y-85654819D02*
X75527381Y-86035771D01*
X75527381Y-86035771D02*
X75670238Y-86035771D01*
X75670238Y-86035771D02*
X75765476Y-86083390D01*
X75765476Y-86083390D02*
X75813095Y-86131009D01*
X75813095Y-86131009D02*
X75860714Y-86226247D01*
X75860714Y-86226247D02*
X75860714Y-86464342D01*
X75860714Y-86464342D02*
X75813095Y-86559580D01*
X75813095Y-86559580D02*
X75765476Y-86607200D01*
X75765476Y-86607200D02*
X75670238Y-86654819D01*
X75670238Y-86654819D02*
X75384524Y-86654819D01*
X75384524Y-86654819D02*
X75289286Y-86607200D01*
X75289286Y-86607200D02*
X75241667Y-86559580D01*
X81533557Y-89449999D02*
X81104985Y-89749999D01*
X81533557Y-89964285D02*
X80633557Y-89964285D01*
X80633557Y-89964285D02*
X80633557Y-89621428D01*
X80633557Y-89621428D02*
X80676414Y-89535713D01*
X80676414Y-89535713D02*
X80719271Y-89492856D01*
X80719271Y-89492856D02*
X80804985Y-89449999D01*
X80804985Y-89449999D02*
X80933557Y-89449999D01*
X80933557Y-89449999D02*
X81019271Y-89492856D01*
X81019271Y-89492856D02*
X81062128Y-89535713D01*
X81062128Y-89535713D02*
X81104985Y-89621428D01*
X81104985Y-89621428D02*
X81104985Y-89964285D01*
X80633557Y-89149999D02*
X80633557Y-88592856D01*
X80633557Y-88592856D02*
X80976414Y-88892856D01*
X80976414Y-88892856D02*
X80976414Y-88764285D01*
X80976414Y-88764285D02*
X81019271Y-88678571D01*
X81019271Y-88678571D02*
X81062128Y-88635713D01*
X81062128Y-88635713D02*
X81147842Y-88592856D01*
X81147842Y-88592856D02*
X81362128Y-88592856D01*
X81362128Y-88592856D02*
X81447842Y-88635713D01*
X81447842Y-88635713D02*
X81490700Y-88678571D01*
X81490700Y-88678571D02*
X81533557Y-88764285D01*
X81533557Y-88764285D02*
X81533557Y-89021428D01*
X81533557Y-89021428D02*
X81490700Y-89107142D01*
X81490700Y-89107142D02*
X81447842Y-89149999D01*
X47533557Y-80397142D02*
X47104985Y-80697142D01*
X47533557Y-80911428D02*
X46633557Y-80911428D01*
X46633557Y-80911428D02*
X46633557Y-80568571D01*
X46633557Y-80568571D02*
X46676414Y-80482856D01*
X46676414Y-80482856D02*
X46719271Y-80439999D01*
X46719271Y-80439999D02*
X46804985Y-80397142D01*
X46804985Y-80397142D02*
X46933557Y-80397142D01*
X46933557Y-80397142D02*
X47019271Y-80439999D01*
X47019271Y-80439999D02*
X47062128Y-80482856D01*
X47062128Y-80482856D02*
X47104985Y-80568571D01*
X47104985Y-80568571D02*
X47104985Y-80911428D01*
X46719271Y-80054285D02*
X46676414Y-80011428D01*
X46676414Y-80011428D02*
X46633557Y-79925714D01*
X46633557Y-79925714D02*
X46633557Y-79711428D01*
X46633557Y-79711428D02*
X46676414Y-79625714D01*
X46676414Y-79625714D02*
X46719271Y-79582856D01*
X46719271Y-79582856D02*
X46804985Y-79539999D01*
X46804985Y-79539999D02*
X46890700Y-79539999D01*
X46890700Y-79539999D02*
X47019271Y-79582856D01*
X47019271Y-79582856D02*
X47533557Y-80097142D01*
X47533557Y-80097142D02*
X47533557Y-79539999D01*
X46633557Y-78982856D02*
X46633557Y-78897142D01*
X46633557Y-78897142D02*
X46676414Y-78811428D01*
X46676414Y-78811428D02*
X46719271Y-78768571D01*
X46719271Y-78768571D02*
X46804985Y-78725713D01*
X46804985Y-78725713D02*
X46976414Y-78682856D01*
X46976414Y-78682856D02*
X47190700Y-78682856D01*
X47190700Y-78682856D02*
X47362128Y-78725713D01*
X47362128Y-78725713D02*
X47447842Y-78768571D01*
X47447842Y-78768571D02*
X47490700Y-78811428D01*
X47490700Y-78811428D02*
X47533557Y-78897142D01*
X47533557Y-78897142D02*
X47533557Y-78982856D01*
X47533557Y-78982856D02*
X47490700Y-79068571D01*
X47490700Y-79068571D02*
X47447842Y-79111428D01*
X47447842Y-79111428D02*
X47362128Y-79154285D01*
X47362128Y-79154285D02*
X47190700Y-79197142D01*
X47190700Y-79197142D02*
X46976414Y-79197142D01*
X46976414Y-79197142D02*
X46804985Y-79154285D01*
X46804985Y-79154285D02*
X46719271Y-79111428D01*
X46719271Y-79111428D02*
X46676414Y-79068571D01*
X46676414Y-79068571D02*
X46633557Y-78982856D01*
X47533557Y-77825713D02*
X47533557Y-78339999D01*
X47533557Y-78082856D02*
X46633557Y-78082856D01*
X46633557Y-78082856D02*
X46762128Y-78168570D01*
X46762128Y-78168570D02*
X46847842Y-78254285D01*
X46847842Y-78254285D02*
X46890700Y-78339999D01*
X59405952Y-88359580D02*
X59358333Y-88407200D01*
X59358333Y-88407200D02*
X59215476Y-88454819D01*
X59215476Y-88454819D02*
X59120238Y-88454819D01*
X59120238Y-88454819D02*
X58977381Y-88407200D01*
X58977381Y-88407200D02*
X58882143Y-88311961D01*
X58882143Y-88311961D02*
X58834524Y-88216723D01*
X58834524Y-88216723D02*
X58786905Y-88026247D01*
X58786905Y-88026247D02*
X58786905Y-87883390D01*
X58786905Y-87883390D02*
X58834524Y-87692914D01*
X58834524Y-87692914D02*
X58882143Y-87597676D01*
X58882143Y-87597676D02*
X58977381Y-87502438D01*
X58977381Y-87502438D02*
X59120238Y-87454819D01*
X59120238Y-87454819D02*
X59215476Y-87454819D01*
X59215476Y-87454819D02*
X59358333Y-87502438D01*
X59358333Y-87502438D02*
X59405952Y-87550057D01*
X59786905Y-87550057D02*
X59834524Y-87502438D01*
X59834524Y-87502438D02*
X59929762Y-87454819D01*
X59929762Y-87454819D02*
X60167857Y-87454819D01*
X60167857Y-87454819D02*
X60263095Y-87502438D01*
X60263095Y-87502438D02*
X60310714Y-87550057D01*
X60310714Y-87550057D02*
X60358333Y-87645295D01*
X60358333Y-87645295D02*
X60358333Y-87740533D01*
X60358333Y-87740533D02*
X60310714Y-87883390D01*
X60310714Y-87883390D02*
X59739286Y-88454819D01*
X59739286Y-88454819D02*
X60358333Y-88454819D01*
X60977381Y-87454819D02*
X61072619Y-87454819D01*
X61072619Y-87454819D02*
X61167857Y-87502438D01*
X61167857Y-87502438D02*
X61215476Y-87550057D01*
X61215476Y-87550057D02*
X61263095Y-87645295D01*
X61263095Y-87645295D02*
X61310714Y-87835771D01*
X61310714Y-87835771D02*
X61310714Y-88073866D01*
X61310714Y-88073866D02*
X61263095Y-88264342D01*
X61263095Y-88264342D02*
X61215476Y-88359580D01*
X61215476Y-88359580D02*
X61167857Y-88407200D01*
X61167857Y-88407200D02*
X61072619Y-88454819D01*
X61072619Y-88454819D02*
X60977381Y-88454819D01*
X60977381Y-88454819D02*
X60882143Y-88407200D01*
X60882143Y-88407200D02*
X60834524Y-88359580D01*
X60834524Y-88359580D02*
X60786905Y-88264342D01*
X60786905Y-88264342D02*
X60739286Y-88073866D01*
X60739286Y-88073866D02*
X60739286Y-87835771D01*
X60739286Y-87835771D02*
X60786905Y-87645295D01*
X60786905Y-87645295D02*
X60834524Y-87550057D01*
X60834524Y-87550057D02*
X60882143Y-87502438D01*
X60882143Y-87502438D02*
X60977381Y-87454819D01*
X61691667Y-87550057D02*
X61739286Y-87502438D01*
X61739286Y-87502438D02*
X61834524Y-87454819D01*
X61834524Y-87454819D02*
X62072619Y-87454819D01*
X62072619Y-87454819D02*
X62167857Y-87502438D01*
X62167857Y-87502438D02*
X62215476Y-87550057D01*
X62215476Y-87550057D02*
X62263095Y-87645295D01*
X62263095Y-87645295D02*
X62263095Y-87740533D01*
X62263095Y-87740533D02*
X62215476Y-87883390D01*
X62215476Y-87883390D02*
X61644048Y-88454819D01*
X61644048Y-88454819D02*
X62263095Y-88454819D01*
X85785000Y-77438557D02*
X85485000Y-77009985D01*
X85270714Y-77438557D02*
X85270714Y-76538557D01*
X85270714Y-76538557D02*
X85613571Y-76538557D01*
X85613571Y-76538557D02*
X85699286Y-76581414D01*
X85699286Y-76581414D02*
X85742143Y-76624271D01*
X85742143Y-76624271D02*
X85785000Y-76709985D01*
X85785000Y-76709985D02*
X85785000Y-76838557D01*
X85785000Y-76838557D02*
X85742143Y-76924271D01*
X85742143Y-76924271D02*
X85699286Y-76967128D01*
X85699286Y-76967128D02*
X85613571Y-77009985D01*
X85613571Y-77009985D02*
X85270714Y-77009985D01*
X86556429Y-76838557D02*
X86556429Y-77438557D01*
X86342143Y-76495700D02*
X86127857Y-77138557D01*
X86127857Y-77138557D02*
X86685000Y-77138557D01*
X48233557Y-115507142D02*
X47804985Y-115807142D01*
X48233557Y-116021428D02*
X47333557Y-116021428D01*
X47333557Y-116021428D02*
X47333557Y-115678571D01*
X47333557Y-115678571D02*
X47376414Y-115592856D01*
X47376414Y-115592856D02*
X47419271Y-115549999D01*
X47419271Y-115549999D02*
X47504985Y-115507142D01*
X47504985Y-115507142D02*
X47633557Y-115507142D01*
X47633557Y-115507142D02*
X47719271Y-115549999D01*
X47719271Y-115549999D02*
X47762128Y-115592856D01*
X47762128Y-115592856D02*
X47804985Y-115678571D01*
X47804985Y-115678571D02*
X47804985Y-116021428D01*
X48233557Y-114649999D02*
X48233557Y-115164285D01*
X48233557Y-114907142D02*
X47333557Y-114907142D01*
X47333557Y-114907142D02*
X47462128Y-114992856D01*
X47462128Y-114992856D02*
X47547842Y-115078571D01*
X47547842Y-115078571D02*
X47590700Y-115164285D01*
X47333557Y-114092856D02*
X47333557Y-114007142D01*
X47333557Y-114007142D02*
X47376414Y-113921428D01*
X47376414Y-113921428D02*
X47419271Y-113878571D01*
X47419271Y-113878571D02*
X47504985Y-113835713D01*
X47504985Y-113835713D02*
X47676414Y-113792856D01*
X47676414Y-113792856D02*
X47890700Y-113792856D01*
X47890700Y-113792856D02*
X48062128Y-113835713D01*
X48062128Y-113835713D02*
X48147842Y-113878571D01*
X48147842Y-113878571D02*
X48190700Y-113921428D01*
X48190700Y-113921428D02*
X48233557Y-114007142D01*
X48233557Y-114007142D02*
X48233557Y-114092856D01*
X48233557Y-114092856D02*
X48190700Y-114178571D01*
X48190700Y-114178571D02*
X48147842Y-114221428D01*
X48147842Y-114221428D02*
X48062128Y-114264285D01*
X48062128Y-114264285D02*
X47890700Y-114307142D01*
X47890700Y-114307142D02*
X47676414Y-114307142D01*
X47676414Y-114307142D02*
X47504985Y-114264285D01*
X47504985Y-114264285D02*
X47419271Y-114221428D01*
X47419271Y-114221428D02*
X47376414Y-114178571D01*
X47376414Y-114178571D02*
X47333557Y-114092856D01*
X48233557Y-112935713D02*
X48233557Y-113449999D01*
X48233557Y-113192856D02*
X47333557Y-113192856D01*
X47333557Y-113192856D02*
X47462128Y-113278570D01*
X47462128Y-113278570D02*
X47547842Y-113364285D01*
X47547842Y-113364285D02*
X47590700Y-113449999D01*
X86258333Y-84659580D02*
X86210714Y-84707200D01*
X86210714Y-84707200D02*
X86067857Y-84754819D01*
X86067857Y-84754819D02*
X85972619Y-84754819D01*
X85972619Y-84754819D02*
X85829762Y-84707200D01*
X85829762Y-84707200D02*
X85734524Y-84611961D01*
X85734524Y-84611961D02*
X85686905Y-84516723D01*
X85686905Y-84516723D02*
X85639286Y-84326247D01*
X85639286Y-84326247D02*
X85639286Y-84183390D01*
X85639286Y-84183390D02*
X85686905Y-83992914D01*
X85686905Y-83992914D02*
X85734524Y-83897676D01*
X85734524Y-83897676D02*
X85829762Y-83802438D01*
X85829762Y-83802438D02*
X85972619Y-83754819D01*
X85972619Y-83754819D02*
X86067857Y-83754819D01*
X86067857Y-83754819D02*
X86210714Y-83802438D01*
X86210714Y-83802438D02*
X86258333Y-83850057D01*
X86591667Y-83754819D02*
X87258333Y-83754819D01*
X87258333Y-83754819D02*
X86829762Y-84754819D01*
X93333557Y-89749999D02*
X92904985Y-90049999D01*
X93333557Y-90264285D02*
X92433557Y-90264285D01*
X92433557Y-90264285D02*
X92433557Y-89921428D01*
X92433557Y-89921428D02*
X92476414Y-89835713D01*
X92476414Y-89835713D02*
X92519271Y-89792856D01*
X92519271Y-89792856D02*
X92604985Y-89749999D01*
X92604985Y-89749999D02*
X92733557Y-89749999D01*
X92733557Y-89749999D02*
X92819271Y-89792856D01*
X92819271Y-89792856D02*
X92862128Y-89835713D01*
X92862128Y-89835713D02*
X92904985Y-89921428D01*
X92904985Y-89921428D02*
X92904985Y-90264285D01*
X92433557Y-89449999D02*
X92433557Y-88849999D01*
X92433557Y-88849999D02*
X93333557Y-89235713D01*
X48784580Y-104366666D02*
X48832200Y-104414285D01*
X48832200Y-104414285D02*
X48879819Y-104557142D01*
X48879819Y-104557142D02*
X48879819Y-104652380D01*
X48879819Y-104652380D02*
X48832200Y-104795237D01*
X48832200Y-104795237D02*
X48736961Y-104890475D01*
X48736961Y-104890475D02*
X48641723Y-104938094D01*
X48641723Y-104938094D02*
X48451247Y-104985713D01*
X48451247Y-104985713D02*
X48308390Y-104985713D01*
X48308390Y-104985713D02*
X48117914Y-104938094D01*
X48117914Y-104938094D02*
X48022676Y-104890475D01*
X48022676Y-104890475D02*
X47927438Y-104795237D01*
X47927438Y-104795237D02*
X47879819Y-104652380D01*
X47879819Y-104652380D02*
X47879819Y-104557142D01*
X47879819Y-104557142D02*
X47927438Y-104414285D01*
X47927438Y-104414285D02*
X47975057Y-104366666D01*
X47975057Y-103985713D02*
X47927438Y-103938094D01*
X47927438Y-103938094D02*
X47879819Y-103842856D01*
X47879819Y-103842856D02*
X47879819Y-103604761D01*
X47879819Y-103604761D02*
X47927438Y-103509523D01*
X47927438Y-103509523D02*
X47975057Y-103461904D01*
X47975057Y-103461904D02*
X48070295Y-103414285D01*
X48070295Y-103414285D02*
X48165533Y-103414285D01*
X48165533Y-103414285D02*
X48308390Y-103461904D01*
X48308390Y-103461904D02*
X48879819Y-104033332D01*
X48879819Y-104033332D02*
X48879819Y-103414285D01*
X59933557Y-79849999D02*
X59504985Y-80149999D01*
X59933557Y-80364285D02*
X59033557Y-80364285D01*
X59033557Y-80364285D02*
X59033557Y-80021428D01*
X59033557Y-80021428D02*
X59076414Y-79935713D01*
X59076414Y-79935713D02*
X59119271Y-79892856D01*
X59119271Y-79892856D02*
X59204985Y-79849999D01*
X59204985Y-79849999D02*
X59333557Y-79849999D01*
X59333557Y-79849999D02*
X59419271Y-79892856D01*
X59419271Y-79892856D02*
X59462128Y-79935713D01*
X59462128Y-79935713D02*
X59504985Y-80021428D01*
X59504985Y-80021428D02*
X59504985Y-80364285D01*
X59033557Y-79035713D02*
X59033557Y-79464285D01*
X59033557Y-79464285D02*
X59462128Y-79507142D01*
X59462128Y-79507142D02*
X59419271Y-79464285D01*
X59419271Y-79464285D02*
X59376414Y-79378571D01*
X59376414Y-79378571D02*
X59376414Y-79164285D01*
X59376414Y-79164285D02*
X59419271Y-79078571D01*
X59419271Y-79078571D02*
X59462128Y-79035713D01*
X59462128Y-79035713D02*
X59547842Y-78992856D01*
X59547842Y-78992856D02*
X59762128Y-78992856D01*
X59762128Y-78992856D02*
X59847842Y-79035713D01*
X59847842Y-79035713D02*
X59890700Y-79078571D01*
X59890700Y-79078571D02*
X59933557Y-79164285D01*
X59933557Y-79164285D02*
X59933557Y-79378571D01*
X59933557Y-79378571D02*
X59890700Y-79464285D01*
X59890700Y-79464285D02*
X59847842Y-79507142D01*
X56758333Y-80859580D02*
X56710714Y-80907200D01*
X56710714Y-80907200D02*
X56567857Y-80954819D01*
X56567857Y-80954819D02*
X56472619Y-80954819D01*
X56472619Y-80954819D02*
X56329762Y-80907200D01*
X56329762Y-80907200D02*
X56234524Y-80811961D01*
X56234524Y-80811961D02*
X56186905Y-80716723D01*
X56186905Y-80716723D02*
X56139286Y-80526247D01*
X56139286Y-80526247D02*
X56139286Y-80383390D01*
X56139286Y-80383390D02*
X56186905Y-80192914D01*
X56186905Y-80192914D02*
X56234524Y-80097676D01*
X56234524Y-80097676D02*
X56329762Y-80002438D01*
X56329762Y-80002438D02*
X56472619Y-79954819D01*
X56472619Y-79954819D02*
X56567857Y-79954819D01*
X56567857Y-79954819D02*
X56710714Y-80002438D01*
X56710714Y-80002438D02*
X56758333Y-80050057D01*
X57615476Y-79954819D02*
X57425000Y-79954819D01*
X57425000Y-79954819D02*
X57329762Y-80002438D01*
X57329762Y-80002438D02*
X57282143Y-80050057D01*
X57282143Y-80050057D02*
X57186905Y-80192914D01*
X57186905Y-80192914D02*
X57139286Y-80383390D01*
X57139286Y-80383390D02*
X57139286Y-80764342D01*
X57139286Y-80764342D02*
X57186905Y-80859580D01*
X57186905Y-80859580D02*
X57234524Y-80907200D01*
X57234524Y-80907200D02*
X57329762Y-80954819D01*
X57329762Y-80954819D02*
X57520238Y-80954819D01*
X57520238Y-80954819D02*
X57615476Y-80907200D01*
X57615476Y-80907200D02*
X57663095Y-80859580D01*
X57663095Y-80859580D02*
X57710714Y-80764342D01*
X57710714Y-80764342D02*
X57710714Y-80526247D01*
X57710714Y-80526247D02*
X57663095Y-80431009D01*
X57663095Y-80431009D02*
X57615476Y-80383390D01*
X57615476Y-80383390D02*
X57520238Y-80335771D01*
X57520238Y-80335771D02*
X57329762Y-80335771D01*
X57329762Y-80335771D02*
X57234524Y-80383390D01*
X57234524Y-80383390D02*
X57186905Y-80431009D01*
X57186905Y-80431009D02*
X57139286Y-80526247D01*
X75308333Y-92909580D02*
X75260714Y-92957200D01*
X75260714Y-92957200D02*
X75117857Y-93004819D01*
X75117857Y-93004819D02*
X75022619Y-93004819D01*
X75022619Y-93004819D02*
X74879762Y-92957200D01*
X74879762Y-92957200D02*
X74784524Y-92861961D01*
X74784524Y-92861961D02*
X74736905Y-92766723D01*
X74736905Y-92766723D02*
X74689286Y-92576247D01*
X74689286Y-92576247D02*
X74689286Y-92433390D01*
X74689286Y-92433390D02*
X74736905Y-92242914D01*
X74736905Y-92242914D02*
X74784524Y-92147676D01*
X74784524Y-92147676D02*
X74879762Y-92052438D01*
X74879762Y-92052438D02*
X75022619Y-92004819D01*
X75022619Y-92004819D02*
X75117857Y-92004819D01*
X75117857Y-92004819D02*
X75260714Y-92052438D01*
X75260714Y-92052438D02*
X75308333Y-92100057D01*
X75879762Y-92433390D02*
X75784524Y-92385771D01*
X75784524Y-92385771D02*
X75736905Y-92338152D01*
X75736905Y-92338152D02*
X75689286Y-92242914D01*
X75689286Y-92242914D02*
X75689286Y-92195295D01*
X75689286Y-92195295D02*
X75736905Y-92100057D01*
X75736905Y-92100057D02*
X75784524Y-92052438D01*
X75784524Y-92052438D02*
X75879762Y-92004819D01*
X75879762Y-92004819D02*
X76070238Y-92004819D01*
X76070238Y-92004819D02*
X76165476Y-92052438D01*
X76165476Y-92052438D02*
X76213095Y-92100057D01*
X76213095Y-92100057D02*
X76260714Y-92195295D01*
X76260714Y-92195295D02*
X76260714Y-92242914D01*
X76260714Y-92242914D02*
X76213095Y-92338152D01*
X76213095Y-92338152D02*
X76165476Y-92385771D01*
X76165476Y-92385771D02*
X76070238Y-92433390D01*
X76070238Y-92433390D02*
X75879762Y-92433390D01*
X75879762Y-92433390D02*
X75784524Y-92481009D01*
X75784524Y-92481009D02*
X75736905Y-92528628D01*
X75736905Y-92528628D02*
X75689286Y-92623866D01*
X75689286Y-92623866D02*
X75689286Y-92814342D01*
X75689286Y-92814342D02*
X75736905Y-92909580D01*
X75736905Y-92909580D02*
X75784524Y-92957200D01*
X75784524Y-92957200D02*
X75879762Y-93004819D01*
X75879762Y-93004819D02*
X76070238Y-93004819D01*
X76070238Y-93004819D02*
X76165476Y-92957200D01*
X76165476Y-92957200D02*
X76213095Y-92909580D01*
X76213095Y-92909580D02*
X76260714Y-92814342D01*
X76260714Y-92814342D02*
X76260714Y-92623866D01*
X76260714Y-92623866D02*
X76213095Y-92528628D01*
X76213095Y-92528628D02*
X76165476Y-92481009D01*
X76165476Y-92481009D02*
X76070238Y-92433390D01*
X56134580Y-105309047D02*
X56182200Y-105356666D01*
X56182200Y-105356666D02*
X56229819Y-105499523D01*
X56229819Y-105499523D02*
X56229819Y-105594761D01*
X56229819Y-105594761D02*
X56182200Y-105737618D01*
X56182200Y-105737618D02*
X56086961Y-105832856D01*
X56086961Y-105832856D02*
X55991723Y-105880475D01*
X55991723Y-105880475D02*
X55801247Y-105928094D01*
X55801247Y-105928094D02*
X55658390Y-105928094D01*
X55658390Y-105928094D02*
X55467914Y-105880475D01*
X55467914Y-105880475D02*
X55372676Y-105832856D01*
X55372676Y-105832856D02*
X55277438Y-105737618D01*
X55277438Y-105737618D02*
X55229819Y-105594761D01*
X55229819Y-105594761D02*
X55229819Y-105499523D01*
X55229819Y-105499523D02*
X55277438Y-105356666D01*
X55277438Y-105356666D02*
X55325057Y-105309047D01*
X56229819Y-104356666D02*
X56229819Y-104928094D01*
X56229819Y-104642380D02*
X55229819Y-104642380D01*
X55229819Y-104642380D02*
X55372676Y-104737618D01*
X55372676Y-104737618D02*
X55467914Y-104832856D01*
X55467914Y-104832856D02*
X55515533Y-104928094D01*
X55229819Y-103737618D02*
X55229819Y-103642380D01*
X55229819Y-103642380D02*
X55277438Y-103547142D01*
X55277438Y-103547142D02*
X55325057Y-103499523D01*
X55325057Y-103499523D02*
X55420295Y-103451904D01*
X55420295Y-103451904D02*
X55610771Y-103404285D01*
X55610771Y-103404285D02*
X55848866Y-103404285D01*
X55848866Y-103404285D02*
X56039342Y-103451904D01*
X56039342Y-103451904D02*
X56134580Y-103499523D01*
X56134580Y-103499523D02*
X56182200Y-103547142D01*
X56182200Y-103547142D02*
X56229819Y-103642380D01*
X56229819Y-103642380D02*
X56229819Y-103737618D01*
X56229819Y-103737618D02*
X56182200Y-103832856D01*
X56182200Y-103832856D02*
X56134580Y-103880475D01*
X56134580Y-103880475D02*
X56039342Y-103928094D01*
X56039342Y-103928094D02*
X55848866Y-103975713D01*
X55848866Y-103975713D02*
X55610771Y-103975713D01*
X55610771Y-103975713D02*
X55420295Y-103928094D01*
X55420295Y-103928094D02*
X55325057Y-103880475D01*
X55325057Y-103880475D02*
X55277438Y-103832856D01*
X55277438Y-103832856D02*
X55229819Y-103737618D01*
X56229819Y-102451904D02*
X56229819Y-103023332D01*
X56229819Y-102737618D02*
X55229819Y-102737618D01*
X55229819Y-102737618D02*
X55372676Y-102832856D01*
X55372676Y-102832856D02*
X55467914Y-102928094D01*
X55467914Y-102928094D02*
X55515533Y-103023332D01*
X55633557Y-115497142D02*
X55204985Y-115797142D01*
X55633557Y-116011428D02*
X54733557Y-116011428D01*
X54733557Y-116011428D02*
X54733557Y-115668571D01*
X54733557Y-115668571D02*
X54776414Y-115582856D01*
X54776414Y-115582856D02*
X54819271Y-115539999D01*
X54819271Y-115539999D02*
X54904985Y-115497142D01*
X54904985Y-115497142D02*
X55033557Y-115497142D01*
X55033557Y-115497142D02*
X55119271Y-115539999D01*
X55119271Y-115539999D02*
X55162128Y-115582856D01*
X55162128Y-115582856D02*
X55204985Y-115668571D01*
X55204985Y-115668571D02*
X55204985Y-116011428D01*
X55633557Y-114639999D02*
X55633557Y-115154285D01*
X55633557Y-114897142D02*
X54733557Y-114897142D01*
X54733557Y-114897142D02*
X54862128Y-114982856D01*
X54862128Y-114982856D02*
X54947842Y-115068571D01*
X54947842Y-115068571D02*
X54990700Y-115154285D01*
X54733557Y-114082856D02*
X54733557Y-113997142D01*
X54733557Y-113997142D02*
X54776414Y-113911428D01*
X54776414Y-113911428D02*
X54819271Y-113868571D01*
X54819271Y-113868571D02*
X54904985Y-113825713D01*
X54904985Y-113825713D02*
X55076414Y-113782856D01*
X55076414Y-113782856D02*
X55290700Y-113782856D01*
X55290700Y-113782856D02*
X55462128Y-113825713D01*
X55462128Y-113825713D02*
X55547842Y-113868571D01*
X55547842Y-113868571D02*
X55590700Y-113911428D01*
X55590700Y-113911428D02*
X55633557Y-113997142D01*
X55633557Y-113997142D02*
X55633557Y-114082856D01*
X55633557Y-114082856D02*
X55590700Y-114168571D01*
X55590700Y-114168571D02*
X55547842Y-114211428D01*
X55547842Y-114211428D02*
X55462128Y-114254285D01*
X55462128Y-114254285D02*
X55290700Y-114297142D01*
X55290700Y-114297142D02*
X55076414Y-114297142D01*
X55076414Y-114297142D02*
X54904985Y-114254285D01*
X54904985Y-114254285D02*
X54819271Y-114211428D01*
X54819271Y-114211428D02*
X54776414Y-114168571D01*
X54776414Y-114168571D02*
X54733557Y-114082856D01*
X54733557Y-112968570D02*
X54733557Y-113397142D01*
X54733557Y-113397142D02*
X55162128Y-113439999D01*
X55162128Y-113439999D02*
X55119271Y-113397142D01*
X55119271Y-113397142D02*
X55076414Y-113311428D01*
X55076414Y-113311428D02*
X55076414Y-113097142D01*
X55076414Y-113097142D02*
X55119271Y-113011428D01*
X55119271Y-113011428D02*
X55162128Y-112968570D01*
X55162128Y-112968570D02*
X55247842Y-112925713D01*
X55247842Y-112925713D02*
X55462128Y-112925713D01*
X55462128Y-112925713D02*
X55547842Y-112968570D01*
X55547842Y-112968570D02*
X55590700Y-113011428D01*
X55590700Y-113011428D02*
X55633557Y-113097142D01*
X55633557Y-113097142D02*
X55633557Y-113311428D01*
X55633557Y-113311428D02*
X55590700Y-113397142D01*
X55590700Y-113397142D02*
X55547842Y-113439999D01*
X81558333Y-75459580D02*
X81510714Y-75507200D01*
X81510714Y-75507200D02*
X81367857Y-75554819D01*
X81367857Y-75554819D02*
X81272619Y-75554819D01*
X81272619Y-75554819D02*
X81129762Y-75507200D01*
X81129762Y-75507200D02*
X81034524Y-75411961D01*
X81034524Y-75411961D02*
X80986905Y-75316723D01*
X80986905Y-75316723D02*
X80939286Y-75126247D01*
X80939286Y-75126247D02*
X80939286Y-74983390D01*
X80939286Y-74983390D02*
X80986905Y-74792914D01*
X80986905Y-74792914D02*
X81034524Y-74697676D01*
X81034524Y-74697676D02*
X81129762Y-74602438D01*
X81129762Y-74602438D02*
X81272619Y-74554819D01*
X81272619Y-74554819D02*
X81367857Y-74554819D01*
X81367857Y-74554819D02*
X81510714Y-74602438D01*
X81510714Y-74602438D02*
X81558333Y-74650057D01*
X82463095Y-74554819D02*
X81986905Y-74554819D01*
X81986905Y-74554819D02*
X81939286Y-75031009D01*
X81939286Y-75031009D02*
X81986905Y-74983390D01*
X81986905Y-74983390D02*
X82082143Y-74935771D01*
X82082143Y-74935771D02*
X82320238Y-74935771D01*
X82320238Y-74935771D02*
X82415476Y-74983390D01*
X82415476Y-74983390D02*
X82463095Y-75031009D01*
X82463095Y-75031009D02*
X82510714Y-75126247D01*
X82510714Y-75126247D02*
X82510714Y-75364342D01*
X82510714Y-75364342D02*
X82463095Y-75459580D01*
X82463095Y-75459580D02*
X82415476Y-75507200D01*
X82415476Y-75507200D02*
X82320238Y-75554819D01*
X82320238Y-75554819D02*
X82082143Y-75554819D01*
X82082143Y-75554819D02*
X81986905Y-75507200D01*
X81986905Y-75507200D02*
X81939286Y-75459580D01*
X50005952Y-79859580D02*
X49958333Y-79907200D01*
X49958333Y-79907200D02*
X49815476Y-79954819D01*
X49815476Y-79954819D02*
X49720238Y-79954819D01*
X49720238Y-79954819D02*
X49577381Y-79907200D01*
X49577381Y-79907200D02*
X49482143Y-79811961D01*
X49482143Y-79811961D02*
X49434524Y-79716723D01*
X49434524Y-79716723D02*
X49386905Y-79526247D01*
X49386905Y-79526247D02*
X49386905Y-79383390D01*
X49386905Y-79383390D02*
X49434524Y-79192914D01*
X49434524Y-79192914D02*
X49482143Y-79097676D01*
X49482143Y-79097676D02*
X49577381Y-79002438D01*
X49577381Y-79002438D02*
X49720238Y-78954819D01*
X49720238Y-78954819D02*
X49815476Y-78954819D01*
X49815476Y-78954819D02*
X49958333Y-79002438D01*
X49958333Y-79002438D02*
X50005952Y-79050057D01*
X50386905Y-79050057D02*
X50434524Y-79002438D01*
X50434524Y-79002438D02*
X50529762Y-78954819D01*
X50529762Y-78954819D02*
X50767857Y-78954819D01*
X50767857Y-78954819D02*
X50863095Y-79002438D01*
X50863095Y-79002438D02*
X50910714Y-79050057D01*
X50910714Y-79050057D02*
X50958333Y-79145295D01*
X50958333Y-79145295D02*
X50958333Y-79240533D01*
X50958333Y-79240533D02*
X50910714Y-79383390D01*
X50910714Y-79383390D02*
X50339286Y-79954819D01*
X50339286Y-79954819D02*
X50958333Y-79954819D01*
X51577381Y-78954819D02*
X51672619Y-78954819D01*
X51672619Y-78954819D02*
X51767857Y-79002438D01*
X51767857Y-79002438D02*
X51815476Y-79050057D01*
X51815476Y-79050057D02*
X51863095Y-79145295D01*
X51863095Y-79145295D02*
X51910714Y-79335771D01*
X51910714Y-79335771D02*
X51910714Y-79573866D01*
X51910714Y-79573866D02*
X51863095Y-79764342D01*
X51863095Y-79764342D02*
X51815476Y-79859580D01*
X51815476Y-79859580D02*
X51767857Y-79907200D01*
X51767857Y-79907200D02*
X51672619Y-79954819D01*
X51672619Y-79954819D02*
X51577381Y-79954819D01*
X51577381Y-79954819D02*
X51482143Y-79907200D01*
X51482143Y-79907200D02*
X51434524Y-79859580D01*
X51434524Y-79859580D02*
X51386905Y-79764342D01*
X51386905Y-79764342D02*
X51339286Y-79573866D01*
X51339286Y-79573866D02*
X51339286Y-79335771D01*
X51339286Y-79335771D02*
X51386905Y-79145295D01*
X51386905Y-79145295D02*
X51434524Y-79050057D01*
X51434524Y-79050057D02*
X51482143Y-79002438D01*
X51482143Y-79002438D02*
X51577381Y-78954819D01*
X52863095Y-79954819D02*
X52291667Y-79954819D01*
X52577381Y-79954819D02*
X52577381Y-78954819D01*
X52577381Y-78954819D02*
X52482143Y-79097676D01*
X52482143Y-79097676D02*
X52386905Y-79192914D01*
X52386905Y-79192914D02*
X52291667Y-79240533D01*
X44933557Y-80397142D02*
X44504985Y-80697142D01*
X44933557Y-80911428D02*
X44033557Y-80911428D01*
X44033557Y-80911428D02*
X44033557Y-80568571D01*
X44033557Y-80568571D02*
X44076414Y-80482856D01*
X44076414Y-80482856D02*
X44119271Y-80439999D01*
X44119271Y-80439999D02*
X44204985Y-80397142D01*
X44204985Y-80397142D02*
X44333557Y-80397142D01*
X44333557Y-80397142D02*
X44419271Y-80439999D01*
X44419271Y-80439999D02*
X44462128Y-80482856D01*
X44462128Y-80482856D02*
X44504985Y-80568571D01*
X44504985Y-80568571D02*
X44504985Y-80911428D01*
X44119271Y-80054285D02*
X44076414Y-80011428D01*
X44076414Y-80011428D02*
X44033557Y-79925714D01*
X44033557Y-79925714D02*
X44033557Y-79711428D01*
X44033557Y-79711428D02*
X44076414Y-79625714D01*
X44076414Y-79625714D02*
X44119271Y-79582856D01*
X44119271Y-79582856D02*
X44204985Y-79539999D01*
X44204985Y-79539999D02*
X44290700Y-79539999D01*
X44290700Y-79539999D02*
X44419271Y-79582856D01*
X44419271Y-79582856D02*
X44933557Y-80097142D01*
X44933557Y-80097142D02*
X44933557Y-79539999D01*
X44033557Y-78982856D02*
X44033557Y-78897142D01*
X44033557Y-78897142D02*
X44076414Y-78811428D01*
X44076414Y-78811428D02*
X44119271Y-78768571D01*
X44119271Y-78768571D02*
X44204985Y-78725713D01*
X44204985Y-78725713D02*
X44376414Y-78682856D01*
X44376414Y-78682856D02*
X44590700Y-78682856D01*
X44590700Y-78682856D02*
X44762128Y-78725713D01*
X44762128Y-78725713D02*
X44847842Y-78768571D01*
X44847842Y-78768571D02*
X44890700Y-78811428D01*
X44890700Y-78811428D02*
X44933557Y-78897142D01*
X44933557Y-78897142D02*
X44933557Y-78982856D01*
X44933557Y-78982856D02*
X44890700Y-79068571D01*
X44890700Y-79068571D02*
X44847842Y-79111428D01*
X44847842Y-79111428D02*
X44762128Y-79154285D01*
X44762128Y-79154285D02*
X44590700Y-79197142D01*
X44590700Y-79197142D02*
X44376414Y-79197142D01*
X44376414Y-79197142D02*
X44204985Y-79154285D01*
X44204985Y-79154285D02*
X44119271Y-79111428D01*
X44119271Y-79111428D02*
X44076414Y-79068571D01*
X44076414Y-79068571D02*
X44033557Y-78982856D01*
X44119271Y-78339999D02*
X44076414Y-78297142D01*
X44076414Y-78297142D02*
X44033557Y-78211428D01*
X44033557Y-78211428D02*
X44033557Y-77997142D01*
X44033557Y-77997142D02*
X44076414Y-77911428D01*
X44076414Y-77911428D02*
X44119271Y-77868570D01*
X44119271Y-77868570D02*
X44204985Y-77825713D01*
X44204985Y-77825713D02*
X44290700Y-77825713D01*
X44290700Y-77825713D02*
X44419271Y-77868570D01*
X44419271Y-77868570D02*
X44933557Y-78382856D01*
X44933557Y-78382856D02*
X44933557Y-77825713D01*
X63069173Y-98992200D02*
X63212030Y-99039819D01*
X63212030Y-99039819D02*
X63450125Y-99039819D01*
X63450125Y-99039819D02*
X63545363Y-98992200D01*
X63545363Y-98992200D02*
X63592982Y-98944580D01*
X63592982Y-98944580D02*
X63640601Y-98849342D01*
X63640601Y-98849342D02*
X63640601Y-98754104D01*
X63640601Y-98754104D02*
X63592982Y-98658866D01*
X63592982Y-98658866D02*
X63545363Y-98611247D01*
X63545363Y-98611247D02*
X63450125Y-98563628D01*
X63450125Y-98563628D02*
X63259649Y-98516009D01*
X63259649Y-98516009D02*
X63164411Y-98468390D01*
X63164411Y-98468390D02*
X63116792Y-98420771D01*
X63116792Y-98420771D02*
X63069173Y-98325533D01*
X63069173Y-98325533D02*
X63069173Y-98230295D01*
X63069173Y-98230295D02*
X63116792Y-98135057D01*
X63116792Y-98135057D02*
X63164411Y-98087438D01*
X63164411Y-98087438D02*
X63259649Y-98039819D01*
X63259649Y-98039819D02*
X63497744Y-98039819D01*
X63497744Y-98039819D02*
X63640601Y-98087438D01*
X63973935Y-98039819D02*
X64212030Y-99039819D01*
X64212030Y-99039819D02*
X64402506Y-98325533D01*
X64402506Y-98325533D02*
X64592982Y-99039819D01*
X64592982Y-99039819D02*
X64831078Y-98039819D01*
X65164411Y-98135057D02*
X65212030Y-98087438D01*
X65212030Y-98087438D02*
X65307268Y-98039819D01*
X65307268Y-98039819D02*
X65545363Y-98039819D01*
X65545363Y-98039819D02*
X65640601Y-98087438D01*
X65640601Y-98087438D02*
X65688220Y-98135057D01*
X65688220Y-98135057D02*
X65735839Y-98230295D01*
X65735839Y-98230295D02*
X65735839Y-98325533D01*
X65735839Y-98325533D02*
X65688220Y-98468390D01*
X65688220Y-98468390D02*
X65116792Y-99039819D01*
X65116792Y-99039819D02*
X65735839Y-99039819D01*
X42533557Y-80467142D02*
X42104985Y-80767142D01*
X42533557Y-80981428D02*
X41633557Y-80981428D01*
X41633557Y-80981428D02*
X41633557Y-80638571D01*
X41633557Y-80638571D02*
X41676414Y-80552856D01*
X41676414Y-80552856D02*
X41719271Y-80509999D01*
X41719271Y-80509999D02*
X41804985Y-80467142D01*
X41804985Y-80467142D02*
X41933557Y-80467142D01*
X41933557Y-80467142D02*
X42019271Y-80509999D01*
X42019271Y-80509999D02*
X42062128Y-80552856D01*
X42062128Y-80552856D02*
X42104985Y-80638571D01*
X42104985Y-80638571D02*
X42104985Y-80981428D01*
X41719271Y-80124285D02*
X41676414Y-80081428D01*
X41676414Y-80081428D02*
X41633557Y-79995714D01*
X41633557Y-79995714D02*
X41633557Y-79781428D01*
X41633557Y-79781428D02*
X41676414Y-79695714D01*
X41676414Y-79695714D02*
X41719271Y-79652856D01*
X41719271Y-79652856D02*
X41804985Y-79609999D01*
X41804985Y-79609999D02*
X41890700Y-79609999D01*
X41890700Y-79609999D02*
X42019271Y-79652856D01*
X42019271Y-79652856D02*
X42533557Y-80167142D01*
X42533557Y-80167142D02*
X42533557Y-79609999D01*
X41633557Y-79052856D02*
X41633557Y-78967142D01*
X41633557Y-78967142D02*
X41676414Y-78881428D01*
X41676414Y-78881428D02*
X41719271Y-78838571D01*
X41719271Y-78838571D02*
X41804985Y-78795713D01*
X41804985Y-78795713D02*
X41976414Y-78752856D01*
X41976414Y-78752856D02*
X42190700Y-78752856D01*
X42190700Y-78752856D02*
X42362128Y-78795713D01*
X42362128Y-78795713D02*
X42447842Y-78838571D01*
X42447842Y-78838571D02*
X42490700Y-78881428D01*
X42490700Y-78881428D02*
X42533557Y-78967142D01*
X42533557Y-78967142D02*
X42533557Y-79052856D01*
X42533557Y-79052856D02*
X42490700Y-79138571D01*
X42490700Y-79138571D02*
X42447842Y-79181428D01*
X42447842Y-79181428D02*
X42362128Y-79224285D01*
X42362128Y-79224285D02*
X42190700Y-79267142D01*
X42190700Y-79267142D02*
X41976414Y-79267142D01*
X41976414Y-79267142D02*
X41804985Y-79224285D01*
X41804985Y-79224285D02*
X41719271Y-79181428D01*
X41719271Y-79181428D02*
X41676414Y-79138571D01*
X41676414Y-79138571D02*
X41633557Y-79052856D01*
X41633557Y-78452856D02*
X41633557Y-77895713D01*
X41633557Y-77895713D02*
X41976414Y-78195713D01*
X41976414Y-78195713D02*
X41976414Y-78067142D01*
X41976414Y-78067142D02*
X42019271Y-77981428D01*
X42019271Y-77981428D02*
X42062128Y-77938570D01*
X42062128Y-77938570D02*
X42147842Y-77895713D01*
X42147842Y-77895713D02*
X42362128Y-77895713D01*
X42362128Y-77895713D02*
X42447842Y-77938570D01*
X42447842Y-77938570D02*
X42490700Y-77981428D01*
X42490700Y-77981428D02*
X42533557Y-78067142D01*
X42533557Y-78067142D02*
X42533557Y-78324285D01*
X42533557Y-78324285D02*
X42490700Y-78409999D01*
X42490700Y-78409999D02*
X42447842Y-78452856D01*
D15*
%TO.C,R_CLR*%
X78125000Y-112730000D02*
X78125000Y-113680000D01*
X79045000Y-113680000D02*
X77205000Y-113680000D01*
X77205000Y-113680000D02*
X77205000Y-117520000D01*
X79045000Y-117520000D02*
X79045000Y-113680000D01*
X77205000Y-117520000D02*
X79045000Y-117520000D01*
X78125000Y-118470000D02*
X78125000Y-117520000D01*
%TO.C,R103*%
X51145000Y-116430000D02*
X51145000Y-112590000D01*
X51145000Y-112590000D02*
X49305000Y-112590000D01*
X50225000Y-117380000D02*
X50225000Y-116430000D01*
X50225000Y-111640000D02*
X50225000Y-112590000D01*
X49305000Y-116430000D02*
X51145000Y-116430000D01*
X49305000Y-112590000D02*
X49305000Y-116430000D01*
%TO.C,R102*%
X53645000Y-116430000D02*
X53645000Y-112590000D01*
X53645000Y-112590000D02*
X51805000Y-112590000D01*
X52725000Y-117380000D02*
X52725000Y-116430000D01*
X52725000Y-111640000D02*
X52725000Y-112590000D01*
X51805000Y-116430000D02*
X53645000Y-116430000D01*
X51805000Y-112590000D02*
X51805000Y-116430000D01*
%TO.C,D3*%
X81045000Y-100470000D02*
X80889000Y-100470000D01*
X83361000Y-100470000D02*
X83205000Y-100470000D01*
X81045000Y-103070961D02*
G75*
G02*
X81045000Y-100989039I1080000J1040961D01*
G01*
X81045000Y-103701437D02*
G75*
G02*
X80889484Y-100470000I1080000J1671437D01*
G01*
X83205000Y-100989039D02*
G75*
G02*
X83205000Y-103070961I-1080000J-1040961D01*
G01*
X83360516Y-100470000D02*
G75*
G02*
X83205000Y-103701437I-1235516J-1560000D01*
G01*
%TO.C,D2*%
X77625000Y-101730000D02*
X77625000Y-102380000D01*
X77625000Y-107270000D02*
X77625000Y-106620000D01*
X78745000Y-102980000D02*
X76505000Y-102980000D01*
X78745000Y-103100000D02*
X76505000Y-103100000D01*
X78745000Y-103220000D02*
X76505000Y-103220000D01*
X78745000Y-102380000D02*
X76505000Y-102380000D01*
X76505000Y-106620000D01*
X78745000Y-106620000D01*
X78745000Y-102380000D01*
%TO.C,D4*%
X81045000Y-106010000D02*
X80889000Y-106010000D01*
X83361000Y-106010000D02*
X83205000Y-106010000D01*
X81045000Y-108610961D02*
G75*
G02*
X81045000Y-106529039I1080000J1040961D01*
G01*
X81045000Y-109241437D02*
G75*
G02*
X80889484Y-106010000I1080000J1671437D01*
G01*
X83205000Y-106529039D02*
G75*
G02*
X83205000Y-108610961I-1080000J-1040961D01*
G01*
X83360516Y-106010000D02*
G75*
G02*
X83205000Y-109241437I-1235516J-1560000D01*
G01*
%TO.C,D1*%
X73205000Y-105780000D02*
X75445000Y-105780000D01*
X73205000Y-105900000D02*
X75445000Y-105900000D01*
X73205000Y-106020000D02*
X75445000Y-106020000D01*
X74325000Y-101730000D02*
X74325000Y-102380000D01*
X74325000Y-107270000D02*
X74325000Y-106620000D01*
X73205000Y-106620000D02*
X75445000Y-106620000D01*
X75445000Y-102380000D01*
X73205000Y-102380000D01*
X73205000Y-106620000D01*
%TO.C,R9*%
X82605000Y-113680000D02*
X82605000Y-117520000D01*
X82605000Y-117520000D02*
X84445000Y-117520000D01*
X83525000Y-112730000D02*
X83525000Y-113680000D01*
X83525000Y-118470000D02*
X83525000Y-117520000D01*
X84445000Y-113680000D02*
X82605000Y-113680000D01*
X84445000Y-117520000D02*
X84445000Y-113680000D01*
%TO.C,R10*%
X81645000Y-117530000D02*
X81645000Y-113690000D01*
X81645000Y-113690000D02*
X79805000Y-113690000D01*
X80725000Y-118480000D02*
X80725000Y-117530000D01*
X80725000Y-112740000D02*
X80725000Y-113690000D01*
X79805000Y-117530000D02*
X81645000Y-117530000D01*
X79805000Y-113690000D02*
X79805000Y-117530000D01*
%TO.C,C9*%
X91495000Y-119220000D02*
X91495000Y-111780000D01*
X88755000Y-119220000D02*
X91495000Y-119220000D01*
X88755000Y-119220000D02*
X88755000Y-111780000D01*
X88755000Y-111780000D02*
X91495000Y-111780000D01*
%TO.C,C10*%
X87995000Y-119220000D02*
X87995000Y-111780000D01*
X85255000Y-119220000D02*
X87995000Y-119220000D01*
X85255000Y-119220000D02*
X85255000Y-111780000D01*
X85255000Y-111780000D02*
X87995000Y-111780000D01*
%TO.C,R8*%
X93845000Y-117120000D02*
X93845000Y-113280000D01*
X93845000Y-113280000D02*
X92005000Y-113280000D01*
X92925000Y-118070000D02*
X92925000Y-117120000D01*
X92925000Y-112330000D02*
X92925000Y-113280000D01*
X92005000Y-117120000D02*
X93845000Y-117120000D01*
X92005000Y-113280000D02*
X92005000Y-117120000D01*
%TO.C,Q102*%
X69665000Y-116050000D02*
X69335000Y-115810000D01*
X69665000Y-115570000D01*
X69665000Y-116050000D01*
G36*
X69665000Y-116050000D02*
G01*
X69335000Y-115810000D01*
X69665000Y-115570000D01*
X69665000Y-116050000D01*
G37*
X69305000Y-117910000D02*
X68375000Y-117910000D01*
X69305000Y-117110000D02*
X69305000Y-117910000D01*
X69305000Y-117110000D02*
X69305000Y-116310000D01*
X66145000Y-117910000D02*
X67075000Y-117910000D01*
X66145000Y-117910000D02*
X66145000Y-116450000D01*
%TO.C,Q101*%
X64165000Y-116050000D02*
X63835000Y-115810000D01*
X64165000Y-115570000D01*
X64165000Y-116050000D01*
G36*
X64165000Y-116050000D02*
G01*
X63835000Y-115810000D01*
X64165000Y-115570000D01*
X64165000Y-116050000D01*
G37*
X63805000Y-117910000D02*
X62875000Y-117910000D01*
X63805000Y-117110000D02*
X63805000Y-117910000D01*
X63805000Y-117110000D02*
X63805000Y-116310000D01*
X60645000Y-117910000D02*
X61575000Y-117910000D01*
X60645000Y-117910000D02*
X60645000Y-116450000D01*
%TO.C,C11*%
X58345000Y-94220000D02*
X50905000Y-94220000D01*
X50905000Y-86780000D02*
X50905000Y-94220000D01*
X58345000Y-86780000D02*
X58345000Y-94220000D01*
X58345000Y-86780000D02*
X50905000Y-86780000D01*
%TO.C,R104*%
X44305000Y-112580000D02*
X44305000Y-116420000D01*
X44305000Y-116420000D02*
X46145000Y-116420000D01*
X45225000Y-111630000D02*
X45225000Y-112580000D01*
X45225000Y-117370000D02*
X45225000Y-116420000D01*
X46145000Y-112580000D02*
X44305000Y-112580000D01*
X46145000Y-116420000D02*
X46145000Y-112580000D01*
%TO.C,C1*%
X43695000Y-118420000D02*
X43695000Y-110980000D01*
X40955000Y-118420000D02*
X43695000Y-118420000D01*
X40955000Y-118420000D02*
X40955000Y-110980000D01*
X40955000Y-110980000D02*
X43695000Y-110980000D01*
%TO.C,R1*%
X41405000Y-102280000D02*
X41405000Y-106120000D01*
X41405000Y-106120000D02*
X43245000Y-106120000D01*
X42325000Y-101330000D02*
X42325000Y-102280000D01*
X42325000Y-107070000D02*
X42325000Y-106120000D01*
X43245000Y-102280000D02*
X41405000Y-102280000D01*
X43245000Y-106120000D02*
X43245000Y-102280000D01*
%TO.C,R2*%
X44305000Y-102280000D02*
X44305000Y-106120000D01*
X44305000Y-106120000D02*
X46145000Y-106120000D01*
X45225000Y-101330000D02*
X45225000Y-102280000D01*
X45225000Y-107070000D02*
X45225000Y-106120000D01*
X46145000Y-102280000D02*
X44305000Y-102280000D01*
X46145000Y-106120000D02*
X46145000Y-102280000D01*
%TO.C,U1*%
X68735000Y-86070000D02*
G75*
G02*
X66735000Y-86070000I-1000000J0D01*
G01*
X70385000Y-96350000D02*
X70385000Y-86070000D01*
X70385000Y-86070000D02*
X68735000Y-86070000D01*
X66735000Y-86070000D02*
X65085000Y-86070000D01*
X65085000Y-96350000D02*
X70385000Y-96350000D01*
X65085000Y-86070000D02*
X65085000Y-96350000D01*
D16*
%TO.C,RV2*%
X81314000Y-69749000D02*
X81314000Y-73051000D01*
X81314000Y-69749000D02*
X84616000Y-69749000D01*
X81314000Y-73051000D02*
X84616000Y-73051000D01*
X84616000Y-73051000D02*
X84616000Y-69749000D01*
X86394000Y-69749000D02*
X86394000Y-73051000D01*
X86394000Y-69749000D02*
X89696000Y-69749000D01*
X86394000Y-73051000D02*
X89696000Y-73051000D01*
X89696000Y-73051000D02*
X89696000Y-69749000D01*
X91474000Y-69749000D02*
X91474000Y-73051000D01*
X91474000Y-69749000D02*
X94776000Y-69749000D01*
X91474000Y-73051000D02*
X94776000Y-73051000D01*
X94776000Y-73051000D02*
X94776000Y-69749000D01*
%TO.C,RV3*%
X94776000Y-98451000D02*
X94776000Y-95149000D01*
X91474000Y-98451000D02*
X94776000Y-98451000D01*
X91474000Y-95149000D02*
X94776000Y-95149000D01*
X91474000Y-95149000D02*
X91474000Y-98451000D01*
X89696000Y-98451000D02*
X89696000Y-95149000D01*
X86394000Y-98451000D02*
X89696000Y-98451000D01*
X86394000Y-95149000D02*
X89696000Y-95149000D01*
X86394000Y-95149000D02*
X86394000Y-98451000D01*
X84616000Y-98451000D02*
X84616000Y-95149000D01*
X81314000Y-98451000D02*
X84616000Y-98451000D01*
X81314000Y-95149000D02*
X84616000Y-95149000D01*
X81314000Y-95149000D02*
X81314000Y-98451000D01*
%TO.C,RV4*%
X40674000Y-69749000D02*
X40674000Y-73051000D01*
X40674000Y-69749000D02*
X43976000Y-69749000D01*
X40674000Y-73051000D02*
X43976000Y-73051000D01*
X43976000Y-73051000D02*
X43976000Y-69749000D01*
X45754000Y-69749000D02*
X45754000Y-73051000D01*
X45754000Y-69749000D02*
X49056000Y-69749000D01*
X45754000Y-73051000D02*
X49056000Y-73051000D01*
X49056000Y-73051000D02*
X49056000Y-69749000D01*
X50834000Y-69749000D02*
X50834000Y-73051000D01*
X50834000Y-69749000D02*
X54136000Y-69749000D01*
X50834000Y-73051000D02*
X54136000Y-73051000D01*
X54136000Y-73051000D02*
X54136000Y-69749000D01*
%TO.C,RV1*%
X54136000Y-98451000D02*
X54136000Y-95149000D01*
X50834000Y-98451000D02*
X54136000Y-98451000D01*
X50834000Y-95149000D02*
X54136000Y-95149000D01*
X50834000Y-95149000D02*
X50834000Y-98451000D01*
X49056000Y-98451000D02*
X49056000Y-95149000D01*
X45754000Y-98451000D02*
X49056000Y-98451000D01*
X45754000Y-95149000D02*
X49056000Y-95149000D01*
X45754000Y-95149000D02*
X45754000Y-98451000D01*
X43976000Y-98451000D02*
X43976000Y-95149000D01*
X40674000Y-98451000D02*
X43976000Y-98451000D01*
X40674000Y-95149000D02*
X43976000Y-95149000D01*
X40674000Y-95149000D02*
X40674000Y-98451000D01*
D17*
%TO.C,SW1*%
X60617000Y-76836000D02*
X61125000Y-76836000D01*
X60617000Y-84964000D02*
X60617000Y-76836000D01*
X61125000Y-76328000D02*
X74333000Y-76328000D01*
X61125000Y-76836000D02*
X61125000Y-76328000D01*
X61125000Y-84964000D02*
X60617000Y-84964000D01*
X61125000Y-85472000D02*
X61125000Y-84964000D01*
D16*
X65189000Y-80900000D02*
X65824000Y-80265000D01*
X65189000Y-80900000D02*
X65824000Y-81535000D01*
X66459000Y-80900000D02*
X65189000Y-80900000D01*
X68999000Y-80900000D02*
X70269000Y-80900000D01*
X70269000Y-80900000D02*
X69634000Y-80265000D01*
X70269000Y-80900000D02*
X69634000Y-81535000D01*
D17*
X74333000Y-76328000D02*
X74333000Y-76836000D01*
X74333000Y-76836000D02*
X74841000Y-76836000D01*
X74333000Y-84964000D02*
X74333000Y-85472000D01*
X74333000Y-85472000D02*
X61125000Y-85472000D01*
X74841000Y-76836000D02*
X74841000Y-84964000D01*
X74841000Y-84964000D02*
X74333000Y-84964000D01*
D15*
%TO.C,C203*%
X48100000Y-86845225D02*
X48100000Y-87345225D01*
X48350000Y-87095225D02*
X47850000Y-87095225D01*
X49205000Y-89650000D02*
X44045000Y-89650000D01*
X49205000Y-89690000D02*
X44045000Y-89690000D01*
X49204000Y-89730000D02*
X44046000Y-89730000D01*
X49202000Y-89770000D02*
X44048000Y-89770000D01*
X49200000Y-89810000D02*
X44050000Y-89810000D01*
X49197000Y-89850000D02*
X44053000Y-89850000D01*
X49194000Y-89890000D02*
X47665000Y-89890000D01*
X45585000Y-89890000D02*
X44056000Y-89890000D01*
X49190000Y-89930000D02*
X47665000Y-89930000D01*
X45585000Y-89930000D02*
X44060000Y-89930000D01*
X49185000Y-89970000D02*
X47665000Y-89970000D01*
X45585000Y-89970000D02*
X44065000Y-89970000D01*
X49180000Y-90010000D02*
X47665000Y-90010000D01*
X45585000Y-90010000D02*
X44070000Y-90010000D01*
X49174000Y-90050000D02*
X47665000Y-90050000D01*
X45585000Y-90050000D02*
X44076000Y-90050000D01*
X49168000Y-90090000D02*
X47665000Y-90090000D01*
X45585000Y-90090000D02*
X44082000Y-90090000D01*
X49161000Y-90130000D02*
X47665000Y-90130000D01*
X45585000Y-90130000D02*
X44089000Y-90130000D01*
X49153000Y-90170000D02*
X47665000Y-90170000D01*
X45585000Y-90170000D02*
X44097000Y-90170000D01*
X49144000Y-90210000D02*
X47665000Y-90210000D01*
X45585000Y-90210000D02*
X44106000Y-90210000D01*
X49135000Y-90250000D02*
X47665000Y-90250000D01*
X45585000Y-90250000D02*
X44115000Y-90250000D01*
X49126000Y-90290000D02*
X47665000Y-90290000D01*
X45585000Y-90290000D02*
X44124000Y-90290000D01*
X49115000Y-90330000D02*
X47665000Y-90330000D01*
X45585000Y-90330000D02*
X44135000Y-90330000D01*
X49104000Y-90370000D02*
X47665000Y-90370000D01*
X45585000Y-90370000D02*
X44146000Y-90370000D01*
X49092000Y-90410000D02*
X47665000Y-90410000D01*
X45585000Y-90410000D02*
X44158000Y-90410000D01*
X49080000Y-90450000D02*
X47665000Y-90450000D01*
X45585000Y-90450000D02*
X44170000Y-90450000D01*
X49067000Y-90490000D02*
X47665000Y-90490000D01*
X45585000Y-90490000D02*
X44183000Y-90490000D01*
X49053000Y-90530000D02*
X47665000Y-90530000D01*
X45585000Y-90530000D02*
X44197000Y-90530000D01*
X49038000Y-90570000D02*
X47665000Y-90570000D01*
X45585000Y-90570000D02*
X44212000Y-90570000D01*
X49023000Y-90610000D02*
X47665000Y-90610000D01*
X45585000Y-90610000D02*
X44227000Y-90610000D01*
X49007000Y-90650000D02*
X47665000Y-90650000D01*
X45585000Y-90650000D02*
X44243000Y-90650000D01*
X48990000Y-90690000D02*
X47665000Y-90690000D01*
X45585000Y-90690000D02*
X44260000Y-90690000D01*
X48972000Y-90730000D02*
X47665000Y-90730000D01*
X45585000Y-90730000D02*
X44278000Y-90730000D01*
X48954000Y-90770000D02*
X47665000Y-90770000D01*
X45585000Y-90770000D02*
X44296000Y-90770000D01*
X48934000Y-90810000D02*
X47665000Y-90810000D01*
X45585000Y-90810000D02*
X44316000Y-90810000D01*
X48914000Y-90850000D02*
X47665000Y-90850000D01*
X45585000Y-90850000D02*
X44336000Y-90850000D01*
X48893000Y-90890000D02*
X47665000Y-90890000D01*
X45585000Y-90890000D02*
X44357000Y-90890000D01*
X48871000Y-90930000D02*
X47665000Y-90930000D01*
X45585000Y-90930000D02*
X44379000Y-90930000D01*
X48848000Y-90970000D02*
X47665000Y-90970000D01*
X45585000Y-90970000D02*
X44402000Y-90970000D01*
X48824000Y-91010000D02*
X47665000Y-91010000D01*
X45585000Y-91010000D02*
X44426000Y-91010000D01*
X48800000Y-91050000D02*
X47665000Y-91050000D01*
X45585000Y-91050000D02*
X44450000Y-91050000D01*
X48774000Y-91090000D02*
X47665000Y-91090000D01*
X45585000Y-91090000D02*
X44476000Y-91090000D01*
X48747000Y-91130000D02*
X47665000Y-91130000D01*
X45585000Y-91130000D02*
X44503000Y-91130000D01*
X48719000Y-91170000D02*
X47665000Y-91170000D01*
X45585000Y-91170000D02*
X44531000Y-91170000D01*
X48690000Y-91210000D02*
X47665000Y-91210000D01*
X45585000Y-91210000D02*
X44560000Y-91210000D01*
X48660000Y-91250000D02*
X47665000Y-91250000D01*
X45585000Y-91250000D02*
X44590000Y-91250000D01*
X48628000Y-91290000D02*
X47665000Y-91290000D01*
X45585000Y-91290000D02*
X44622000Y-91290000D01*
X48595000Y-91330000D02*
X47665000Y-91330000D01*
X45585000Y-91330000D02*
X44655000Y-91330000D01*
X48561000Y-91370000D02*
X47665000Y-91370000D01*
X45585000Y-91370000D02*
X44689000Y-91370000D01*
X48526000Y-91410000D02*
X47665000Y-91410000D01*
X45585000Y-91410000D02*
X44724000Y-91410000D01*
X48489000Y-91450000D02*
X47665000Y-91450000D01*
X45585000Y-91450000D02*
X44761000Y-91450000D01*
X48450000Y-91490000D02*
X47665000Y-91490000D01*
X45585000Y-91490000D02*
X44800000Y-91490000D01*
X48410000Y-91530000D02*
X47665000Y-91530000D01*
X45585000Y-91530000D02*
X44840000Y-91530000D01*
X48368000Y-91570000D02*
X47665000Y-91570000D01*
X45585000Y-91570000D02*
X44882000Y-91570000D01*
X48324000Y-91610000D02*
X47665000Y-91610000D01*
X45585000Y-91610000D02*
X44926000Y-91610000D01*
X48277000Y-91650000D02*
X47665000Y-91650000D01*
X45585000Y-91650000D02*
X44973000Y-91650000D01*
X48229000Y-91690000D02*
X47665000Y-91690000D01*
X45585000Y-91690000D02*
X45021000Y-91690000D01*
X48178000Y-91730000D02*
X47665000Y-91730000D01*
X45585000Y-91730000D02*
X45072000Y-91730000D01*
X48124000Y-91770000D02*
X47665000Y-91770000D01*
X45585000Y-91770000D02*
X45126000Y-91770000D01*
X48068000Y-91810000D02*
X47665000Y-91810000D01*
X45585000Y-91810000D02*
X45182000Y-91810000D01*
X48008000Y-91850000D02*
X47665000Y-91850000D01*
X45585000Y-91850000D02*
X45242000Y-91850000D01*
X47944000Y-91890000D02*
X47665000Y-91890000D01*
X45585000Y-91890000D02*
X45306000Y-91890000D01*
X47876000Y-91930000D02*
X47665000Y-91930000D01*
X45585000Y-91930000D02*
X45374000Y-91930000D01*
X47802000Y-91970000D02*
X45448000Y-91970000D01*
X47723000Y-92010000D02*
X45527000Y-92010000D01*
X47636000Y-92050000D02*
X45614000Y-92050000D01*
X47539000Y-92090000D02*
X45711000Y-92090000D01*
X47430000Y-92130000D02*
X45820000Y-92130000D01*
X47302000Y-92170000D02*
X45948000Y-92170000D01*
X47142000Y-92210000D02*
X46108000Y-92210000D01*
X46908000Y-92250000D02*
X46342000Y-92250000D01*
X49245000Y-89650000D02*
G75*
G02*
X44005000Y-89650000I-2620000J0D01*
G01*
X44005000Y-89650000D02*
G75*
G02*
X49245000Y-89650000I2620000J0D01*
G01*
%TO.C,R6*%
X76705000Y-83680000D02*
X76705000Y-87520000D01*
X76705000Y-87520000D02*
X78545000Y-87520000D01*
X77625000Y-82730000D02*
X77625000Y-83680000D01*
X77625000Y-88470000D02*
X77625000Y-87520000D01*
X78545000Y-83680000D02*
X76705000Y-83680000D01*
X78545000Y-87520000D02*
X78545000Y-83680000D01*
%TO.C,C102*%
X53495000Y-107920000D02*
X53495000Y-100480000D01*
X50755000Y-107920000D02*
X53495000Y-107920000D01*
X50755000Y-107920000D02*
X50755000Y-100480000D01*
X50755000Y-100480000D02*
X53495000Y-100480000D01*
%TO.C,C4*%
X91100000Y-79195225D02*
X91100000Y-79695225D01*
X91350000Y-79445225D02*
X90850000Y-79445225D01*
X92205000Y-82000000D02*
X90665000Y-82000000D01*
X88585000Y-82000000D02*
X87045000Y-82000000D01*
X92205000Y-82040000D02*
X90665000Y-82040000D01*
X88585000Y-82040000D02*
X87045000Y-82040000D01*
X92204000Y-82080000D02*
X90665000Y-82080000D01*
X88585000Y-82080000D02*
X87046000Y-82080000D01*
X92202000Y-82120000D02*
X90665000Y-82120000D01*
X88585000Y-82120000D02*
X87048000Y-82120000D01*
X92200000Y-82160000D02*
X90665000Y-82160000D01*
X88585000Y-82160000D02*
X87050000Y-82160000D01*
X92197000Y-82200000D02*
X90665000Y-82200000D01*
X88585000Y-82200000D02*
X87053000Y-82200000D01*
X92194000Y-82240000D02*
X90665000Y-82240000D01*
X88585000Y-82240000D02*
X87056000Y-82240000D01*
X92190000Y-82280000D02*
X90665000Y-82280000D01*
X88585000Y-82280000D02*
X87060000Y-82280000D01*
X92185000Y-82320000D02*
X90665000Y-82320000D01*
X88585000Y-82320000D02*
X87065000Y-82320000D01*
X92180000Y-82360000D02*
X90665000Y-82360000D01*
X88585000Y-82360000D02*
X87070000Y-82360000D01*
X92174000Y-82400000D02*
X90665000Y-82400000D01*
X88585000Y-82400000D02*
X87076000Y-82400000D01*
X92168000Y-82440000D02*
X90665000Y-82440000D01*
X88585000Y-82440000D02*
X87082000Y-82440000D01*
X92161000Y-82480000D02*
X90665000Y-82480000D01*
X88585000Y-82480000D02*
X87089000Y-82480000D01*
X92153000Y-82520000D02*
X90665000Y-82520000D01*
X88585000Y-82520000D02*
X87097000Y-82520000D01*
X92144000Y-82560000D02*
X90665000Y-82560000D01*
X88585000Y-82560000D02*
X87106000Y-82560000D01*
X92135000Y-82600000D02*
X90665000Y-82600000D01*
X88585000Y-82600000D02*
X87115000Y-82600000D01*
X92126000Y-82640000D02*
X90665000Y-82640000D01*
X88585000Y-82640000D02*
X87124000Y-82640000D01*
X92115000Y-82680000D02*
X90665000Y-82680000D01*
X88585000Y-82680000D02*
X87135000Y-82680000D01*
X92104000Y-82720000D02*
X90665000Y-82720000D01*
X88585000Y-82720000D02*
X87146000Y-82720000D01*
X92092000Y-82760000D02*
X90665000Y-82760000D01*
X88585000Y-82760000D02*
X87158000Y-82760000D01*
X92080000Y-82800000D02*
X90665000Y-82800000D01*
X88585000Y-82800000D02*
X87170000Y-82800000D01*
X92067000Y-82840000D02*
X90665000Y-82840000D01*
X88585000Y-82840000D02*
X87183000Y-82840000D01*
X92053000Y-82880000D02*
X90665000Y-82880000D01*
X88585000Y-82880000D02*
X87197000Y-82880000D01*
X92038000Y-82920000D02*
X90665000Y-82920000D01*
X88585000Y-82920000D02*
X87212000Y-82920000D01*
X92023000Y-82960000D02*
X90665000Y-82960000D01*
X88585000Y-82960000D02*
X87227000Y-82960000D01*
X92007000Y-83000000D02*
X90665000Y-83000000D01*
X88585000Y-83000000D02*
X87243000Y-83000000D01*
X91990000Y-83040000D02*
X90665000Y-83040000D01*
X88585000Y-83040000D02*
X87260000Y-83040000D01*
X91972000Y-83080000D02*
X90665000Y-83080000D01*
X88585000Y-83080000D02*
X87278000Y-83080000D01*
X91954000Y-83120000D02*
X90665000Y-83120000D01*
X88585000Y-83120000D02*
X87296000Y-83120000D01*
X91934000Y-83160000D02*
X90665000Y-83160000D01*
X88585000Y-83160000D02*
X87316000Y-83160000D01*
X91914000Y-83200000D02*
X90665000Y-83200000D01*
X88585000Y-83200000D02*
X87336000Y-83200000D01*
X91893000Y-83240000D02*
X90665000Y-83240000D01*
X88585000Y-83240000D02*
X87357000Y-83240000D01*
X91871000Y-83280000D02*
X90665000Y-83280000D01*
X88585000Y-83280000D02*
X87379000Y-83280000D01*
X91848000Y-83320000D02*
X90665000Y-83320000D01*
X88585000Y-83320000D02*
X87402000Y-83320000D01*
X91824000Y-83360000D02*
X90665000Y-83360000D01*
X88585000Y-83360000D02*
X87426000Y-83360000D01*
X91800000Y-83400000D02*
X90665000Y-83400000D01*
X88585000Y-83400000D02*
X87450000Y-83400000D01*
X91774000Y-83440000D02*
X90665000Y-83440000D01*
X88585000Y-83440000D02*
X87476000Y-83440000D01*
X91747000Y-83480000D02*
X90665000Y-83480000D01*
X88585000Y-83480000D02*
X87503000Y-83480000D01*
X91719000Y-83520000D02*
X90665000Y-83520000D01*
X88585000Y-83520000D02*
X87531000Y-83520000D01*
X91690000Y-83560000D02*
X90665000Y-83560000D01*
X88585000Y-83560000D02*
X87560000Y-83560000D01*
X91660000Y-83600000D02*
X90665000Y-83600000D01*
X88585000Y-83600000D02*
X87590000Y-83600000D01*
X91628000Y-83640000D02*
X90665000Y-83640000D01*
X88585000Y-83640000D02*
X87622000Y-83640000D01*
X91595000Y-83680000D02*
X90665000Y-83680000D01*
X88585000Y-83680000D02*
X87655000Y-83680000D01*
X91561000Y-83720000D02*
X90665000Y-83720000D01*
X88585000Y-83720000D02*
X87689000Y-83720000D01*
X91526000Y-83760000D02*
X90665000Y-83760000D01*
X88585000Y-83760000D02*
X87724000Y-83760000D01*
X91489000Y-83800000D02*
X90665000Y-83800000D01*
X88585000Y-83800000D02*
X87761000Y-83800000D01*
X91450000Y-83840000D02*
X90665000Y-83840000D01*
X88585000Y-83840000D02*
X87800000Y-83840000D01*
X91410000Y-83880000D02*
X90665000Y-83880000D01*
X88585000Y-83880000D02*
X87840000Y-83880000D01*
X91368000Y-83920000D02*
X90665000Y-83920000D01*
X88585000Y-83920000D02*
X87882000Y-83920000D01*
X91324000Y-83960000D02*
X90665000Y-83960000D01*
X88585000Y-83960000D02*
X87926000Y-83960000D01*
X91277000Y-84000000D02*
X90665000Y-84000000D01*
X88585000Y-84000000D02*
X87973000Y-84000000D01*
X91229000Y-84040000D02*
X88021000Y-84040000D01*
X91178000Y-84080000D02*
X88072000Y-84080000D01*
X91124000Y-84120000D02*
X88126000Y-84120000D01*
X91068000Y-84160000D02*
X88182000Y-84160000D01*
X91008000Y-84200000D02*
X88242000Y-84200000D01*
X90944000Y-84240000D02*
X88306000Y-84240000D01*
X90876000Y-84280000D02*
X88374000Y-84280000D01*
X90802000Y-84320000D02*
X88448000Y-84320000D01*
X90723000Y-84360000D02*
X88527000Y-84360000D01*
X90636000Y-84400000D02*
X88614000Y-84400000D01*
X90539000Y-84440000D02*
X88711000Y-84440000D01*
X90430000Y-84480000D02*
X88820000Y-84480000D01*
X90302000Y-84520000D02*
X88948000Y-84520000D01*
X90142000Y-84560000D02*
X89108000Y-84560000D01*
X89908000Y-84600000D02*
X89342000Y-84600000D01*
X92245000Y-82000000D02*
G75*
G02*
X87005000Y-82000000I-2620000J0D01*
G01*
X87005000Y-82000000D02*
G75*
G02*
X92245000Y-82000000I2620000J0D01*
G01*
%TO.C,Q1*%
X71645000Y-117910000D02*
X71645000Y-116450000D01*
X71645000Y-117910000D02*
X72575000Y-117910000D01*
X74805000Y-117110000D02*
X74805000Y-116310000D01*
X74805000Y-117110000D02*
X74805000Y-117910000D01*
X74805000Y-117910000D02*
X73875000Y-117910000D01*
X75165000Y-116050000D02*
X74835000Y-115810000D01*
X75165000Y-115570000D01*
X75165000Y-116050000D01*
G36*
X75165000Y-116050000D02*
G01*
X74835000Y-115810000D01*
X75165000Y-115570000D01*
X75165000Y-116050000D01*
G37*
%TO.C,C3*%
X74105000Y-89829000D02*
X74105000Y-88571000D01*
X75945000Y-89829000D02*
X75945000Y-88571000D01*
%TO.C,R3*%
X80205000Y-87380000D02*
X80205000Y-91220000D01*
X80205000Y-91220000D02*
X82045000Y-91220000D01*
X81125000Y-86430000D02*
X81125000Y-87380000D01*
X81125000Y-92170000D02*
X81125000Y-91220000D01*
X82045000Y-87380000D02*
X80205000Y-87380000D01*
X82045000Y-91220000D02*
X82045000Y-87380000D01*
%TO.C,R201*%
X46205000Y-77470000D02*
X46205000Y-81310000D01*
X46205000Y-81310000D02*
X48045000Y-81310000D01*
X47125000Y-76520000D02*
X47125000Y-77470000D01*
X47125000Y-82260000D02*
X47125000Y-81310000D01*
X48045000Y-77470000D02*
X46205000Y-77470000D01*
X48045000Y-81310000D02*
X48045000Y-77470000D01*
%TO.C,C202*%
X61895000Y-88980000D02*
X59155000Y-88980000D01*
X61895000Y-88980000D02*
X61895000Y-96420000D01*
X59155000Y-88980000D02*
X59155000Y-96420000D01*
X61895000Y-96420000D02*
X59155000Y-96420000D01*
%TO.C,R4*%
X84305000Y-78020000D02*
X88145000Y-78020000D01*
X88145000Y-78020000D02*
X88145000Y-76180000D01*
X83355000Y-77100000D02*
X84305000Y-77100000D01*
X89095000Y-77100000D02*
X88145000Y-77100000D01*
X84305000Y-76180000D02*
X84305000Y-78020000D01*
X88145000Y-76180000D02*
X84305000Y-76180000D01*
%TO.C,R101*%
X46905000Y-112580000D02*
X46905000Y-116420000D01*
X46905000Y-116420000D02*
X48745000Y-116420000D01*
X47825000Y-111630000D02*
X47825000Y-112580000D01*
X47825000Y-117370000D02*
X47825000Y-116420000D01*
X48745000Y-112580000D02*
X46905000Y-112580000D01*
X48745000Y-116420000D02*
X48745000Y-112580000D01*
%TO.C,C7*%
X82150000Y-83959888D02*
X82150000Y-83459888D01*
X81900000Y-83709888D02*
X82400000Y-83709888D01*
X81045000Y-81155113D02*
X86205000Y-81155113D01*
X81045000Y-81115113D02*
X86205000Y-81115113D01*
X81046000Y-81075113D02*
X86204000Y-81075113D01*
X81048000Y-81035113D02*
X86202000Y-81035113D01*
X81050000Y-80995113D02*
X86200000Y-80995113D01*
X81053000Y-80955113D02*
X86197000Y-80955113D01*
X81056000Y-80915113D02*
X82585000Y-80915113D01*
X84665000Y-80915113D02*
X86194000Y-80915113D01*
X81060000Y-80875113D02*
X82585000Y-80875113D01*
X84665000Y-80875113D02*
X86190000Y-80875113D01*
X81065000Y-80835113D02*
X82585000Y-80835113D01*
X84665000Y-80835113D02*
X86185000Y-80835113D01*
X81070000Y-80795113D02*
X82585000Y-80795113D01*
X84665000Y-80795113D02*
X86180000Y-80795113D01*
X81076000Y-80755113D02*
X82585000Y-80755113D01*
X84665000Y-80755113D02*
X86174000Y-80755113D01*
X81082000Y-80715113D02*
X82585000Y-80715113D01*
X84665000Y-80715113D02*
X86168000Y-80715113D01*
X81089000Y-80675113D02*
X82585000Y-80675113D01*
X84665000Y-80675113D02*
X86161000Y-80675113D01*
X81097000Y-80635113D02*
X82585000Y-80635113D01*
X84665000Y-80635113D02*
X86153000Y-80635113D01*
X81106000Y-80595113D02*
X82585000Y-80595113D01*
X84665000Y-80595113D02*
X86144000Y-80595113D01*
X81115000Y-80555113D02*
X82585000Y-80555113D01*
X84665000Y-80555113D02*
X86135000Y-80555113D01*
X81124000Y-80515113D02*
X82585000Y-80515113D01*
X84665000Y-80515113D02*
X86126000Y-80515113D01*
X81135000Y-80475113D02*
X82585000Y-80475113D01*
X84665000Y-80475113D02*
X86115000Y-80475113D01*
X81146000Y-80435113D02*
X82585000Y-80435113D01*
X84665000Y-80435113D02*
X86104000Y-80435113D01*
X81158000Y-80395113D02*
X82585000Y-80395113D01*
X84665000Y-80395113D02*
X86092000Y-80395113D01*
X81170000Y-80355113D02*
X82585000Y-80355113D01*
X84665000Y-80355113D02*
X86080000Y-80355113D01*
X81183000Y-80315113D02*
X82585000Y-80315113D01*
X84665000Y-80315113D02*
X86067000Y-80315113D01*
X81197000Y-80275113D02*
X82585000Y-80275113D01*
X84665000Y-80275113D02*
X86053000Y-80275113D01*
X81212000Y-80235113D02*
X82585000Y-80235113D01*
X84665000Y-80235113D02*
X86038000Y-80235113D01*
X81227000Y-80195113D02*
X82585000Y-80195113D01*
X84665000Y-80195113D02*
X86023000Y-80195113D01*
X81243000Y-80155113D02*
X82585000Y-80155113D01*
X84665000Y-80155113D02*
X86007000Y-80155113D01*
X81260000Y-80115113D02*
X82585000Y-80115113D01*
X84665000Y-80115113D02*
X85990000Y-80115113D01*
X81278000Y-80075113D02*
X82585000Y-80075113D01*
X84665000Y-80075113D02*
X85972000Y-80075113D01*
X81296000Y-80035113D02*
X82585000Y-80035113D01*
X84665000Y-80035113D02*
X85954000Y-80035113D01*
X81316000Y-79995113D02*
X82585000Y-79995113D01*
X84665000Y-79995113D02*
X85934000Y-79995113D01*
X81336000Y-79955113D02*
X82585000Y-79955113D01*
X84665000Y-79955113D02*
X85914000Y-79955113D01*
X81357000Y-79915113D02*
X82585000Y-79915113D01*
X84665000Y-79915113D02*
X85893000Y-79915113D01*
X81379000Y-79875113D02*
X82585000Y-79875113D01*
X84665000Y-79875113D02*
X85871000Y-79875113D01*
X81402000Y-79835113D02*
X82585000Y-79835113D01*
X84665000Y-79835113D02*
X85848000Y-79835113D01*
X81426000Y-79795113D02*
X82585000Y-79795113D01*
X84665000Y-79795113D02*
X85824000Y-79795113D01*
X81450000Y-79755113D02*
X82585000Y-79755113D01*
X84665000Y-79755113D02*
X85800000Y-79755113D01*
X81476000Y-79715113D02*
X82585000Y-79715113D01*
X84665000Y-79715113D02*
X85774000Y-79715113D01*
X81503000Y-79675113D02*
X82585000Y-79675113D01*
X84665000Y-79675113D02*
X85747000Y-79675113D01*
X81531000Y-79635113D02*
X82585000Y-79635113D01*
X84665000Y-79635113D02*
X85719000Y-79635113D01*
X81560000Y-79595113D02*
X82585000Y-79595113D01*
X84665000Y-79595113D02*
X85690000Y-79595113D01*
X81590000Y-79555113D02*
X82585000Y-79555113D01*
X84665000Y-79555113D02*
X85660000Y-79555113D01*
X81622000Y-79515113D02*
X82585000Y-79515113D01*
X84665000Y-79515113D02*
X85628000Y-79515113D01*
X81655000Y-79475113D02*
X82585000Y-79475113D01*
X84665000Y-79475113D02*
X85595000Y-79475113D01*
X81689000Y-79435113D02*
X82585000Y-79435113D01*
X84665000Y-79435113D02*
X85561000Y-79435113D01*
X81724000Y-79395113D02*
X82585000Y-79395113D01*
X84665000Y-79395113D02*
X85526000Y-79395113D01*
X81761000Y-79355113D02*
X82585000Y-79355113D01*
X84665000Y-79355113D02*
X85489000Y-79355113D01*
X81800000Y-79315113D02*
X82585000Y-79315113D01*
X84665000Y-79315113D02*
X85450000Y-79315113D01*
X81840000Y-79275113D02*
X82585000Y-79275113D01*
X84665000Y-79275113D02*
X85410000Y-79275113D01*
X81882000Y-79235113D02*
X82585000Y-79235113D01*
X84665000Y-79235113D02*
X85368000Y-79235113D01*
X81926000Y-79195113D02*
X82585000Y-79195113D01*
X84665000Y-79195113D02*
X85324000Y-79195113D01*
X81973000Y-79155113D02*
X82585000Y-79155113D01*
X84665000Y-79155113D02*
X85277000Y-79155113D01*
X82021000Y-79115113D02*
X82585000Y-79115113D01*
X84665000Y-79115113D02*
X85229000Y-79115113D01*
X82072000Y-79075113D02*
X82585000Y-79075113D01*
X84665000Y-79075113D02*
X85178000Y-79075113D01*
X82126000Y-79035113D02*
X82585000Y-79035113D01*
X84665000Y-79035113D02*
X85124000Y-79035113D01*
X82182000Y-78995113D02*
X82585000Y-78995113D01*
X84665000Y-78995113D02*
X85068000Y-78995113D01*
X82242000Y-78955113D02*
X82585000Y-78955113D01*
X84665000Y-78955113D02*
X85008000Y-78955113D01*
X82306000Y-78915113D02*
X82585000Y-78915113D01*
X84665000Y-78915113D02*
X84944000Y-78915113D01*
X82374000Y-78875113D02*
X82585000Y-78875113D01*
X84665000Y-78875113D02*
X84876000Y-78875113D01*
X82448000Y-78835113D02*
X84802000Y-78835113D01*
X82527000Y-78795113D02*
X84723000Y-78795113D01*
X82614000Y-78755113D02*
X84636000Y-78755113D01*
X82711000Y-78715113D02*
X84539000Y-78715113D01*
X82820000Y-78675113D02*
X84430000Y-78675113D01*
X82948000Y-78635113D02*
X84302000Y-78635113D01*
X83108000Y-78595113D02*
X84142000Y-78595113D01*
X83342000Y-78555113D02*
X83908000Y-78555113D01*
X86245000Y-81155113D02*
G75*
G02*
X81005000Y-81155113I-2620000J0D01*
G01*
X81005000Y-81155113D02*
G75*
G02*
X86245000Y-81155113I2620000J0D01*
G01*
%TO.C,R7*%
X92005000Y-87680000D02*
X92005000Y-91520000D01*
X92005000Y-91520000D02*
X93845000Y-91520000D01*
X92925000Y-86730000D02*
X92925000Y-87680000D01*
X92925000Y-92470000D02*
X92925000Y-91520000D01*
X93845000Y-87680000D02*
X92005000Y-87680000D01*
X93845000Y-91520000D02*
X93845000Y-87680000D01*
%TO.C,C2*%
X49795000Y-107920000D02*
X49795000Y-100480000D01*
X47055000Y-107920000D02*
X49795000Y-107920000D01*
X47055000Y-107920000D02*
X47055000Y-100480000D01*
X47055000Y-100480000D02*
X49795000Y-100480000D01*
%TO.C,R5*%
X58605000Y-77780000D02*
X58605000Y-81620000D01*
X58605000Y-81620000D02*
X60445000Y-81620000D01*
X59525000Y-76830000D02*
X59525000Y-77780000D01*
X59525000Y-82570000D02*
X59525000Y-81620000D01*
X60445000Y-77780000D02*
X58605000Y-77780000D01*
X60445000Y-81620000D02*
X60445000Y-77780000D01*
%TO.C,C6*%
X56500000Y-74095225D02*
X56500000Y-74595225D01*
X56750000Y-74345225D02*
X56250000Y-74345225D01*
X57605000Y-76900000D02*
X56065000Y-76900000D01*
X53985000Y-76900000D02*
X52445000Y-76900000D01*
X57605000Y-76940000D02*
X56065000Y-76940000D01*
X53985000Y-76940000D02*
X52445000Y-76940000D01*
X57604000Y-76980000D02*
X56065000Y-76980000D01*
X53985000Y-76980000D02*
X52446000Y-76980000D01*
X57602000Y-77020000D02*
X56065000Y-77020000D01*
X53985000Y-77020000D02*
X52448000Y-77020000D01*
X57600000Y-77060000D02*
X56065000Y-77060000D01*
X53985000Y-77060000D02*
X52450000Y-77060000D01*
X57597000Y-77100000D02*
X56065000Y-77100000D01*
X53985000Y-77100000D02*
X52453000Y-77100000D01*
X57594000Y-77140000D02*
X56065000Y-77140000D01*
X53985000Y-77140000D02*
X52456000Y-77140000D01*
X57590000Y-77180000D02*
X56065000Y-77180000D01*
X53985000Y-77180000D02*
X52460000Y-77180000D01*
X57585000Y-77220000D02*
X56065000Y-77220000D01*
X53985000Y-77220000D02*
X52465000Y-77220000D01*
X57580000Y-77260000D02*
X56065000Y-77260000D01*
X53985000Y-77260000D02*
X52470000Y-77260000D01*
X57574000Y-77300000D02*
X56065000Y-77300000D01*
X53985000Y-77300000D02*
X52476000Y-77300000D01*
X57568000Y-77340000D02*
X56065000Y-77340000D01*
X53985000Y-77340000D02*
X52482000Y-77340000D01*
X57561000Y-77380000D02*
X56065000Y-77380000D01*
X53985000Y-77380000D02*
X52489000Y-77380000D01*
X57553000Y-77420000D02*
X56065000Y-77420000D01*
X53985000Y-77420000D02*
X52497000Y-77420000D01*
X57544000Y-77460000D02*
X56065000Y-77460000D01*
X53985000Y-77460000D02*
X52506000Y-77460000D01*
X57535000Y-77500000D02*
X56065000Y-77500000D01*
X53985000Y-77500000D02*
X52515000Y-77500000D01*
X57526000Y-77540000D02*
X56065000Y-77540000D01*
X53985000Y-77540000D02*
X52524000Y-77540000D01*
X57515000Y-77580000D02*
X56065000Y-77580000D01*
X53985000Y-77580000D02*
X52535000Y-77580000D01*
X57504000Y-77620000D02*
X56065000Y-77620000D01*
X53985000Y-77620000D02*
X52546000Y-77620000D01*
X57492000Y-77660000D02*
X56065000Y-77660000D01*
X53985000Y-77660000D02*
X52558000Y-77660000D01*
X57480000Y-77700000D02*
X56065000Y-77700000D01*
X53985000Y-77700000D02*
X52570000Y-77700000D01*
X57467000Y-77740000D02*
X56065000Y-77740000D01*
X53985000Y-77740000D02*
X52583000Y-77740000D01*
X57453000Y-77780000D02*
X56065000Y-77780000D01*
X53985000Y-77780000D02*
X52597000Y-77780000D01*
X57438000Y-77820000D02*
X56065000Y-77820000D01*
X53985000Y-77820000D02*
X52612000Y-77820000D01*
X57423000Y-77860000D02*
X56065000Y-77860000D01*
X53985000Y-77860000D02*
X52627000Y-77860000D01*
X57407000Y-77900000D02*
X56065000Y-77900000D01*
X53985000Y-77900000D02*
X52643000Y-77900000D01*
X57390000Y-77940000D02*
X56065000Y-77940000D01*
X53985000Y-77940000D02*
X52660000Y-77940000D01*
X57372000Y-77980000D02*
X56065000Y-77980000D01*
X53985000Y-77980000D02*
X52678000Y-77980000D01*
X57354000Y-78020000D02*
X56065000Y-78020000D01*
X53985000Y-78020000D02*
X52696000Y-78020000D01*
X57334000Y-78060000D02*
X56065000Y-78060000D01*
X53985000Y-78060000D02*
X52716000Y-78060000D01*
X57314000Y-78100000D02*
X56065000Y-78100000D01*
X53985000Y-78100000D02*
X52736000Y-78100000D01*
X57293000Y-78140000D02*
X56065000Y-78140000D01*
X53985000Y-78140000D02*
X52757000Y-78140000D01*
X57271000Y-78180000D02*
X56065000Y-78180000D01*
X53985000Y-78180000D02*
X52779000Y-78180000D01*
X57248000Y-78220000D02*
X56065000Y-78220000D01*
X53985000Y-78220000D02*
X52802000Y-78220000D01*
X57224000Y-78260000D02*
X56065000Y-78260000D01*
X53985000Y-78260000D02*
X52826000Y-78260000D01*
X57200000Y-78300000D02*
X56065000Y-78300000D01*
X53985000Y-78300000D02*
X52850000Y-78300000D01*
X57174000Y-78340000D02*
X56065000Y-78340000D01*
X53985000Y-78340000D02*
X52876000Y-78340000D01*
X57147000Y-78380000D02*
X56065000Y-78380000D01*
X53985000Y-78380000D02*
X52903000Y-78380000D01*
X57119000Y-78420000D02*
X56065000Y-78420000D01*
X53985000Y-78420000D02*
X52931000Y-78420000D01*
X57090000Y-78460000D02*
X56065000Y-78460000D01*
X53985000Y-78460000D02*
X52960000Y-78460000D01*
X57060000Y-78500000D02*
X56065000Y-78500000D01*
X53985000Y-78500000D02*
X52990000Y-78500000D01*
X57028000Y-78540000D02*
X56065000Y-78540000D01*
X53985000Y-78540000D02*
X53022000Y-78540000D01*
X56995000Y-78580000D02*
X56065000Y-78580000D01*
X53985000Y-78580000D02*
X53055000Y-78580000D01*
X56961000Y-78620000D02*
X56065000Y-78620000D01*
X53985000Y-78620000D02*
X53089000Y-78620000D01*
X56926000Y-78660000D02*
X56065000Y-78660000D01*
X53985000Y-78660000D02*
X53124000Y-78660000D01*
X56889000Y-78700000D02*
X56065000Y-78700000D01*
X53985000Y-78700000D02*
X53161000Y-78700000D01*
X56850000Y-78740000D02*
X56065000Y-78740000D01*
X53985000Y-78740000D02*
X53200000Y-78740000D01*
X56810000Y-78780000D02*
X56065000Y-78780000D01*
X53985000Y-78780000D02*
X53240000Y-78780000D01*
X56768000Y-78820000D02*
X56065000Y-78820000D01*
X53985000Y-78820000D02*
X53282000Y-78820000D01*
X56724000Y-78860000D02*
X56065000Y-78860000D01*
X53985000Y-78860000D02*
X53326000Y-78860000D01*
X56677000Y-78900000D02*
X56065000Y-78900000D01*
X53985000Y-78900000D02*
X53373000Y-78900000D01*
X56629000Y-78940000D02*
X53421000Y-78940000D01*
X56578000Y-78980000D02*
X53472000Y-78980000D01*
X56524000Y-79020000D02*
X53526000Y-79020000D01*
X56468000Y-79060000D02*
X53582000Y-79060000D01*
X56408000Y-79100000D02*
X53642000Y-79100000D01*
X56344000Y-79140000D02*
X53706000Y-79140000D01*
X56276000Y-79180000D02*
X53774000Y-79180000D01*
X56202000Y-79220000D02*
X53848000Y-79220000D01*
X56123000Y-79260000D02*
X53927000Y-79260000D01*
X56036000Y-79300000D02*
X54014000Y-79300000D01*
X55939000Y-79340000D02*
X54111000Y-79340000D01*
X55830000Y-79380000D02*
X54220000Y-79380000D01*
X55702000Y-79420000D02*
X54348000Y-79420000D01*
X55542000Y-79460000D02*
X54508000Y-79460000D01*
X55308000Y-79500000D02*
X54742000Y-79500000D01*
X57645000Y-76900000D02*
G75*
G02*
X52405000Y-76900000I-2620000J0D01*
G01*
X52405000Y-76900000D02*
G75*
G02*
X57645000Y-76900000I2620000J0D01*
G01*
%TO.C,C8*%
X75685000Y-95800000D02*
X74145000Y-95800000D01*
X75685000Y-95840000D02*
X74145000Y-95840000D01*
X75685000Y-95880000D02*
X74146000Y-95880000D01*
X75685000Y-95920000D02*
X74148000Y-95920000D01*
X75685000Y-95960000D02*
X74150000Y-95960000D01*
X75685000Y-96000000D02*
X74153000Y-96000000D01*
X75685000Y-96040000D02*
X74156000Y-96040000D01*
X75685000Y-96080000D02*
X74160000Y-96080000D01*
X75685000Y-96120000D02*
X74165000Y-96120000D01*
X75685000Y-96160000D02*
X74170000Y-96160000D01*
X75685000Y-96200000D02*
X74176000Y-96200000D01*
X75685000Y-96240000D02*
X74182000Y-96240000D01*
X75685000Y-96280000D02*
X74189000Y-96280000D01*
X75685000Y-96320000D02*
X74197000Y-96320000D01*
X75685000Y-96360000D02*
X74206000Y-96360000D01*
X75685000Y-96400000D02*
X74215000Y-96400000D01*
X75685000Y-96440000D02*
X74224000Y-96440000D01*
X75685000Y-96480000D02*
X74235000Y-96480000D01*
X75685000Y-96520000D02*
X74246000Y-96520000D01*
X75685000Y-96560000D02*
X74258000Y-96560000D01*
X75685000Y-96600000D02*
X74270000Y-96600000D01*
X75685000Y-96640000D02*
X74283000Y-96640000D01*
X75685000Y-96680000D02*
X74297000Y-96680000D01*
X75685000Y-96720000D02*
X74312000Y-96720000D01*
X75685000Y-96760000D02*
X74327000Y-96760000D01*
X75685000Y-96800000D02*
X74343000Y-96800000D01*
X75685000Y-96840000D02*
X74360000Y-96840000D01*
X75685000Y-96880000D02*
X74378000Y-96880000D01*
X75685000Y-96920000D02*
X74396000Y-96920000D01*
X75685000Y-96960000D02*
X74416000Y-96960000D01*
X75685000Y-97000000D02*
X74436000Y-97000000D01*
X75685000Y-97040000D02*
X74457000Y-97040000D01*
X75685000Y-97080000D02*
X74479000Y-97080000D01*
X75685000Y-97120000D02*
X74502000Y-97120000D01*
X75685000Y-97160000D02*
X74526000Y-97160000D01*
X75685000Y-97200000D02*
X74550000Y-97200000D01*
X75685000Y-97240000D02*
X74576000Y-97240000D01*
X75685000Y-97280000D02*
X74603000Y-97280000D01*
X75685000Y-97320000D02*
X74631000Y-97320000D01*
X75685000Y-97360000D02*
X74660000Y-97360000D01*
X75685000Y-97400000D02*
X74690000Y-97400000D01*
X75685000Y-97440000D02*
X74722000Y-97440000D01*
X75685000Y-97480000D02*
X74755000Y-97480000D01*
X75685000Y-97520000D02*
X74789000Y-97520000D01*
X75685000Y-97560000D02*
X74824000Y-97560000D01*
X75685000Y-97600000D02*
X74861000Y-97600000D01*
X75685000Y-97640000D02*
X74900000Y-97640000D01*
X75685000Y-97680000D02*
X74940000Y-97680000D01*
X75685000Y-97720000D02*
X74982000Y-97720000D01*
X75685000Y-97760000D02*
X75026000Y-97760000D01*
X75685000Y-97800000D02*
X75073000Y-97800000D01*
X77008000Y-98400000D02*
X76442000Y-98400000D01*
X77242000Y-98360000D02*
X76208000Y-98360000D01*
X77402000Y-98320000D02*
X76048000Y-98320000D01*
X77530000Y-98280000D02*
X75920000Y-98280000D01*
X77639000Y-98240000D02*
X75811000Y-98240000D01*
X77736000Y-98200000D02*
X75714000Y-98200000D01*
X77823000Y-98160000D02*
X75627000Y-98160000D01*
X77902000Y-98120000D02*
X75548000Y-98120000D01*
X77976000Y-98080000D02*
X75474000Y-98080000D01*
X78044000Y-98040000D02*
X75406000Y-98040000D01*
X78108000Y-98000000D02*
X75342000Y-98000000D01*
X78168000Y-97960000D02*
X75282000Y-97960000D01*
X78200000Y-92995225D02*
X78200000Y-93495225D01*
X78224000Y-97920000D02*
X75226000Y-97920000D01*
X78278000Y-97880000D02*
X75172000Y-97880000D01*
X78329000Y-97840000D02*
X75121000Y-97840000D01*
X78377000Y-97800000D02*
X77765000Y-97800000D01*
X78424000Y-97760000D02*
X77765000Y-97760000D01*
X78450000Y-93245225D02*
X77950000Y-93245225D01*
X78468000Y-97720000D02*
X77765000Y-97720000D01*
X78510000Y-97680000D02*
X77765000Y-97680000D01*
X78550000Y-97640000D02*
X77765000Y-97640000D01*
X78589000Y-97600000D02*
X77765000Y-97600000D01*
X78626000Y-97560000D02*
X77765000Y-97560000D01*
X78661000Y-97520000D02*
X77765000Y-97520000D01*
X78695000Y-97480000D02*
X77765000Y-97480000D01*
X78728000Y-97440000D02*
X77765000Y-97440000D01*
X78760000Y-97400000D02*
X77765000Y-97400000D01*
X78790000Y-97360000D02*
X77765000Y-97360000D01*
X78819000Y-97320000D02*
X77765000Y-97320000D01*
X78847000Y-97280000D02*
X77765000Y-97280000D01*
X78874000Y-97240000D02*
X77765000Y-97240000D01*
X78900000Y-97200000D02*
X77765000Y-97200000D01*
X78924000Y-97160000D02*
X77765000Y-97160000D01*
X78948000Y-97120000D02*
X77765000Y-97120000D01*
X78971000Y-97080000D02*
X77765000Y-97080000D01*
X78993000Y-97040000D02*
X77765000Y-97040000D01*
X79014000Y-97000000D02*
X77765000Y-97000000D01*
X79034000Y-96960000D02*
X77765000Y-96960000D01*
X79054000Y-96920000D02*
X77765000Y-96920000D01*
X79072000Y-96880000D02*
X77765000Y-96880000D01*
X79090000Y-96840000D02*
X77765000Y-96840000D01*
X79107000Y-96800000D02*
X77765000Y-96800000D01*
X79123000Y-96760000D02*
X77765000Y-96760000D01*
X79138000Y-96720000D02*
X77765000Y-96720000D01*
X79153000Y-96680000D02*
X77765000Y-96680000D01*
X79167000Y-96640000D02*
X77765000Y-96640000D01*
X79180000Y-96600000D02*
X77765000Y-96600000D01*
X79192000Y-96560000D02*
X77765000Y-96560000D01*
X79204000Y-96520000D02*
X77765000Y-96520000D01*
X79215000Y-96480000D02*
X77765000Y-96480000D01*
X79226000Y-96440000D02*
X77765000Y-96440000D01*
X79235000Y-96400000D02*
X77765000Y-96400000D01*
X79244000Y-96360000D02*
X77765000Y-96360000D01*
X79253000Y-96320000D02*
X77765000Y-96320000D01*
X79261000Y-96280000D02*
X77765000Y-96280000D01*
X79268000Y-96240000D02*
X77765000Y-96240000D01*
X79274000Y-96200000D02*
X77765000Y-96200000D01*
X79280000Y-96160000D02*
X77765000Y-96160000D01*
X79285000Y-96120000D02*
X77765000Y-96120000D01*
X79290000Y-96080000D02*
X77765000Y-96080000D01*
X79294000Y-96040000D02*
X77765000Y-96040000D01*
X79297000Y-96000000D02*
X77765000Y-96000000D01*
X79300000Y-95960000D02*
X77765000Y-95960000D01*
X79302000Y-95920000D02*
X77765000Y-95920000D01*
X79304000Y-95880000D02*
X77765000Y-95880000D01*
X79305000Y-95800000D02*
X77765000Y-95800000D01*
X79305000Y-95840000D02*
X77765000Y-95840000D01*
X79345000Y-95800000D02*
G75*
G02*
X74105000Y-95800000I-2620000J0D01*
G01*
X74105000Y-95800000D02*
G75*
G02*
X79345000Y-95800000I2620000J0D01*
G01*
%TO.C,C101*%
X59395000Y-100470000D02*
X54655000Y-100470000D01*
X59395000Y-100470000D02*
X59395000Y-107910000D01*
X54655000Y-100470000D02*
X54655000Y-107910000D01*
X59395000Y-107910000D02*
X54655000Y-107910000D01*
%TO.C,R105*%
X54305000Y-112570000D02*
X54305000Y-116410000D01*
X54305000Y-116410000D02*
X56145000Y-116410000D01*
X55225000Y-111620000D02*
X55225000Y-112570000D01*
X55225000Y-117360000D02*
X55225000Y-116410000D01*
X56145000Y-112570000D02*
X54305000Y-112570000D01*
X56145000Y-116410000D02*
X56145000Y-112570000D01*
%TO.C,C5*%
X76950000Y-80404775D02*
X76950000Y-79904775D01*
X76700000Y-80154775D02*
X77200000Y-80154775D01*
X75845000Y-77600000D02*
X77385000Y-77600000D01*
X79465000Y-77600000D02*
X81005000Y-77600000D01*
X75845000Y-77560000D02*
X77385000Y-77560000D01*
X79465000Y-77560000D02*
X81005000Y-77560000D01*
X75846000Y-77520000D02*
X77385000Y-77520000D01*
X79465000Y-77520000D02*
X81004000Y-77520000D01*
X75848000Y-77480000D02*
X77385000Y-77480000D01*
X79465000Y-77480000D02*
X81002000Y-77480000D01*
X75850000Y-77440000D02*
X77385000Y-77440000D01*
X79465000Y-77440000D02*
X81000000Y-77440000D01*
X75853000Y-77400000D02*
X77385000Y-77400000D01*
X79465000Y-77400000D02*
X80997000Y-77400000D01*
X75856000Y-77360000D02*
X77385000Y-77360000D01*
X79465000Y-77360000D02*
X80994000Y-77360000D01*
X75860000Y-77320000D02*
X77385000Y-77320000D01*
X79465000Y-77320000D02*
X80990000Y-77320000D01*
X75865000Y-77280000D02*
X77385000Y-77280000D01*
X79465000Y-77280000D02*
X80985000Y-77280000D01*
X75870000Y-77240000D02*
X77385000Y-77240000D01*
X79465000Y-77240000D02*
X80980000Y-77240000D01*
X75876000Y-77200000D02*
X77385000Y-77200000D01*
X79465000Y-77200000D02*
X80974000Y-77200000D01*
X75882000Y-77160000D02*
X77385000Y-77160000D01*
X79465000Y-77160000D02*
X80968000Y-77160000D01*
X75889000Y-77120000D02*
X77385000Y-77120000D01*
X79465000Y-77120000D02*
X80961000Y-77120000D01*
X75897000Y-77080000D02*
X77385000Y-77080000D01*
X79465000Y-77080000D02*
X80953000Y-77080000D01*
X75906000Y-77040000D02*
X77385000Y-77040000D01*
X79465000Y-77040000D02*
X80944000Y-77040000D01*
X75915000Y-77000000D02*
X77385000Y-77000000D01*
X79465000Y-77000000D02*
X80935000Y-77000000D01*
X75924000Y-76960000D02*
X77385000Y-76960000D01*
X79465000Y-76960000D02*
X80926000Y-76960000D01*
X75935000Y-76920000D02*
X77385000Y-76920000D01*
X79465000Y-76920000D02*
X80915000Y-76920000D01*
X75946000Y-76880000D02*
X77385000Y-76880000D01*
X79465000Y-76880000D02*
X80904000Y-76880000D01*
X75958000Y-76840000D02*
X77385000Y-76840000D01*
X79465000Y-76840000D02*
X80892000Y-76840000D01*
X75970000Y-76800000D02*
X77385000Y-76800000D01*
X79465000Y-76800000D02*
X80880000Y-76800000D01*
X75983000Y-76760000D02*
X77385000Y-76760000D01*
X79465000Y-76760000D02*
X80867000Y-76760000D01*
X75997000Y-76720000D02*
X77385000Y-76720000D01*
X79465000Y-76720000D02*
X80853000Y-76720000D01*
X76012000Y-76680000D02*
X77385000Y-76680000D01*
X79465000Y-76680000D02*
X80838000Y-76680000D01*
X76027000Y-76640000D02*
X77385000Y-76640000D01*
X79465000Y-76640000D02*
X80823000Y-76640000D01*
X76043000Y-76600000D02*
X77385000Y-76600000D01*
X79465000Y-76600000D02*
X80807000Y-76600000D01*
X76060000Y-76560000D02*
X77385000Y-76560000D01*
X79465000Y-76560000D02*
X80790000Y-76560000D01*
X76078000Y-76520000D02*
X77385000Y-76520000D01*
X79465000Y-76520000D02*
X80772000Y-76520000D01*
X76096000Y-76480000D02*
X77385000Y-76480000D01*
X79465000Y-76480000D02*
X80754000Y-76480000D01*
X76116000Y-76440000D02*
X77385000Y-76440000D01*
X79465000Y-76440000D02*
X80734000Y-76440000D01*
X76136000Y-76400000D02*
X77385000Y-76400000D01*
X79465000Y-76400000D02*
X80714000Y-76400000D01*
X76157000Y-76360000D02*
X77385000Y-76360000D01*
X79465000Y-76360000D02*
X80693000Y-76360000D01*
X76179000Y-76320000D02*
X77385000Y-76320000D01*
X79465000Y-76320000D02*
X80671000Y-76320000D01*
X76202000Y-76280000D02*
X77385000Y-76280000D01*
X79465000Y-76280000D02*
X80648000Y-76280000D01*
X76226000Y-76240000D02*
X77385000Y-76240000D01*
X79465000Y-76240000D02*
X80624000Y-76240000D01*
X76250000Y-76200000D02*
X77385000Y-76200000D01*
X79465000Y-76200000D02*
X80600000Y-76200000D01*
X76276000Y-76160000D02*
X77385000Y-76160000D01*
X79465000Y-76160000D02*
X80574000Y-76160000D01*
X76303000Y-76120000D02*
X77385000Y-76120000D01*
X79465000Y-76120000D02*
X80547000Y-76120000D01*
X76331000Y-76080000D02*
X77385000Y-76080000D01*
X79465000Y-76080000D02*
X80519000Y-76080000D01*
X76360000Y-76040000D02*
X77385000Y-76040000D01*
X79465000Y-76040000D02*
X80490000Y-76040000D01*
X76390000Y-76000000D02*
X77385000Y-76000000D01*
X79465000Y-76000000D02*
X80460000Y-76000000D01*
X76422000Y-75960000D02*
X77385000Y-75960000D01*
X79465000Y-75960000D02*
X80428000Y-75960000D01*
X76455000Y-75920000D02*
X77385000Y-75920000D01*
X79465000Y-75920000D02*
X80395000Y-75920000D01*
X76489000Y-75880000D02*
X77385000Y-75880000D01*
X79465000Y-75880000D02*
X80361000Y-75880000D01*
X76524000Y-75840000D02*
X77385000Y-75840000D01*
X79465000Y-75840000D02*
X80326000Y-75840000D01*
X76561000Y-75800000D02*
X77385000Y-75800000D01*
X79465000Y-75800000D02*
X80289000Y-75800000D01*
X76600000Y-75760000D02*
X77385000Y-75760000D01*
X79465000Y-75760000D02*
X80250000Y-75760000D01*
X76640000Y-75720000D02*
X77385000Y-75720000D01*
X79465000Y-75720000D02*
X80210000Y-75720000D01*
X76682000Y-75680000D02*
X77385000Y-75680000D01*
X79465000Y-75680000D02*
X80168000Y-75680000D01*
X76726000Y-75640000D02*
X77385000Y-75640000D01*
X79465000Y-75640000D02*
X80124000Y-75640000D01*
X76773000Y-75600000D02*
X77385000Y-75600000D01*
X79465000Y-75600000D02*
X80077000Y-75600000D01*
X76821000Y-75560000D02*
X80029000Y-75560000D01*
X76872000Y-75520000D02*
X79978000Y-75520000D01*
X76926000Y-75480000D02*
X79924000Y-75480000D01*
X76982000Y-75440000D02*
X79868000Y-75440000D01*
X77042000Y-75400000D02*
X79808000Y-75400000D01*
X77106000Y-75360000D02*
X79744000Y-75360000D01*
X77174000Y-75320000D02*
X79676000Y-75320000D01*
X77248000Y-75280000D02*
X79602000Y-75280000D01*
X77327000Y-75240000D02*
X79523000Y-75240000D01*
X77414000Y-75200000D02*
X79436000Y-75200000D01*
X77511000Y-75160000D02*
X79339000Y-75160000D01*
X77620000Y-75120000D02*
X79230000Y-75120000D01*
X77748000Y-75080000D02*
X79102000Y-75080000D01*
X77908000Y-75040000D02*
X78942000Y-75040000D01*
X78142000Y-75000000D02*
X78708000Y-75000000D01*
X81045000Y-77600000D02*
G75*
G02*
X75805000Y-77600000I-2620000J0D01*
G01*
X75805000Y-77600000D02*
G75*
G02*
X81045000Y-77600000I2620000J0D01*
G01*
%TO.C,C201*%
X53200000Y-80440113D02*
X53200000Y-80940113D01*
X53450000Y-80690113D02*
X52950000Y-80690113D01*
X54305000Y-83244888D02*
X49145000Y-83244888D01*
X54305000Y-83284888D02*
X49145000Y-83284888D01*
X54304000Y-83324888D02*
X49146000Y-83324888D01*
X54302000Y-83364888D02*
X49148000Y-83364888D01*
X54300000Y-83404888D02*
X49150000Y-83404888D01*
X54297000Y-83444888D02*
X49153000Y-83444888D01*
X54294000Y-83484888D02*
X52765000Y-83484888D01*
X50685000Y-83484888D02*
X49156000Y-83484888D01*
X54290000Y-83524888D02*
X52765000Y-83524888D01*
X50685000Y-83524888D02*
X49160000Y-83524888D01*
X54285000Y-83564888D02*
X52765000Y-83564888D01*
X50685000Y-83564888D02*
X49165000Y-83564888D01*
X54280000Y-83604888D02*
X52765000Y-83604888D01*
X50685000Y-83604888D02*
X49170000Y-83604888D01*
X54274000Y-83644888D02*
X52765000Y-83644888D01*
X50685000Y-83644888D02*
X49176000Y-83644888D01*
X54268000Y-83684888D02*
X52765000Y-83684888D01*
X50685000Y-83684888D02*
X49182000Y-83684888D01*
X54261000Y-83724888D02*
X52765000Y-83724888D01*
X50685000Y-83724888D02*
X49189000Y-83724888D01*
X54253000Y-83764888D02*
X52765000Y-83764888D01*
X50685000Y-83764888D02*
X49197000Y-83764888D01*
X54244000Y-83804888D02*
X52765000Y-83804888D01*
X50685000Y-83804888D02*
X49206000Y-83804888D01*
X54235000Y-83844888D02*
X52765000Y-83844888D01*
X50685000Y-83844888D02*
X49215000Y-83844888D01*
X54226000Y-83884888D02*
X52765000Y-83884888D01*
X50685000Y-83884888D02*
X49224000Y-83884888D01*
X54215000Y-83924888D02*
X52765000Y-83924888D01*
X50685000Y-83924888D02*
X49235000Y-83924888D01*
X54204000Y-83964888D02*
X52765000Y-83964888D01*
X50685000Y-83964888D02*
X49246000Y-83964888D01*
X54192000Y-84004888D02*
X52765000Y-84004888D01*
X50685000Y-84004888D02*
X49258000Y-84004888D01*
X54180000Y-84044888D02*
X52765000Y-84044888D01*
X50685000Y-84044888D02*
X49270000Y-84044888D01*
X54167000Y-84084888D02*
X52765000Y-84084888D01*
X50685000Y-84084888D02*
X49283000Y-84084888D01*
X54153000Y-84124888D02*
X52765000Y-84124888D01*
X50685000Y-84124888D02*
X49297000Y-84124888D01*
X54138000Y-84164888D02*
X52765000Y-84164888D01*
X50685000Y-84164888D02*
X49312000Y-84164888D01*
X54123000Y-84204888D02*
X52765000Y-84204888D01*
X50685000Y-84204888D02*
X49327000Y-84204888D01*
X54107000Y-84244888D02*
X52765000Y-84244888D01*
X50685000Y-84244888D02*
X49343000Y-84244888D01*
X54090000Y-84284888D02*
X52765000Y-84284888D01*
X50685000Y-84284888D02*
X49360000Y-84284888D01*
X54072000Y-84324888D02*
X52765000Y-84324888D01*
X50685000Y-84324888D02*
X49378000Y-84324888D01*
X54054000Y-84364888D02*
X52765000Y-84364888D01*
X50685000Y-84364888D02*
X49396000Y-84364888D01*
X54034000Y-84404888D02*
X52765000Y-84404888D01*
X50685000Y-84404888D02*
X49416000Y-84404888D01*
X54014000Y-84444888D02*
X52765000Y-84444888D01*
X50685000Y-84444888D02*
X49436000Y-84444888D01*
X53993000Y-84484888D02*
X52765000Y-84484888D01*
X50685000Y-84484888D02*
X49457000Y-84484888D01*
X53971000Y-84524888D02*
X52765000Y-84524888D01*
X50685000Y-84524888D02*
X49479000Y-84524888D01*
X53948000Y-84564888D02*
X52765000Y-84564888D01*
X50685000Y-84564888D02*
X49502000Y-84564888D01*
X53924000Y-84604888D02*
X52765000Y-84604888D01*
X50685000Y-84604888D02*
X49526000Y-84604888D01*
X53900000Y-84644888D02*
X52765000Y-84644888D01*
X50685000Y-84644888D02*
X49550000Y-84644888D01*
X53874000Y-84684888D02*
X52765000Y-84684888D01*
X50685000Y-84684888D02*
X49576000Y-84684888D01*
X53847000Y-84724888D02*
X52765000Y-84724888D01*
X50685000Y-84724888D02*
X49603000Y-84724888D01*
X53819000Y-84764888D02*
X52765000Y-84764888D01*
X50685000Y-84764888D02*
X49631000Y-84764888D01*
X53790000Y-84804888D02*
X52765000Y-84804888D01*
X50685000Y-84804888D02*
X49660000Y-84804888D01*
X53760000Y-84844888D02*
X52765000Y-84844888D01*
X50685000Y-84844888D02*
X49690000Y-84844888D01*
X53728000Y-84884888D02*
X52765000Y-84884888D01*
X50685000Y-84884888D02*
X49722000Y-84884888D01*
X53695000Y-84924888D02*
X52765000Y-84924888D01*
X50685000Y-84924888D02*
X49755000Y-84924888D01*
X53661000Y-84964888D02*
X52765000Y-84964888D01*
X50685000Y-84964888D02*
X49789000Y-84964888D01*
X53626000Y-85004888D02*
X52765000Y-85004888D01*
X50685000Y-85004888D02*
X49824000Y-85004888D01*
X53589000Y-85044888D02*
X52765000Y-85044888D01*
X50685000Y-85044888D02*
X49861000Y-85044888D01*
X53550000Y-85084888D02*
X52765000Y-85084888D01*
X50685000Y-85084888D02*
X49900000Y-85084888D01*
X53510000Y-85124888D02*
X52765000Y-85124888D01*
X50685000Y-85124888D02*
X49940000Y-85124888D01*
X53468000Y-85164888D02*
X52765000Y-85164888D01*
X50685000Y-85164888D02*
X49982000Y-85164888D01*
X53424000Y-85204888D02*
X52765000Y-85204888D01*
X50685000Y-85204888D02*
X50026000Y-85204888D01*
X53377000Y-85244888D02*
X52765000Y-85244888D01*
X50685000Y-85244888D02*
X50073000Y-85244888D01*
X53329000Y-85284888D02*
X52765000Y-85284888D01*
X50685000Y-85284888D02*
X50121000Y-85284888D01*
X53278000Y-85324888D02*
X52765000Y-85324888D01*
X50685000Y-85324888D02*
X50172000Y-85324888D01*
X53224000Y-85364888D02*
X52765000Y-85364888D01*
X50685000Y-85364888D02*
X50226000Y-85364888D01*
X53168000Y-85404888D02*
X52765000Y-85404888D01*
X50685000Y-85404888D02*
X50282000Y-85404888D01*
X53108000Y-85444888D02*
X52765000Y-85444888D01*
X50685000Y-85444888D02*
X50342000Y-85444888D01*
X53044000Y-85484888D02*
X52765000Y-85484888D01*
X50685000Y-85484888D02*
X50406000Y-85484888D01*
X52976000Y-85524888D02*
X52765000Y-85524888D01*
X50685000Y-85524888D02*
X50474000Y-85524888D01*
X52902000Y-85564888D02*
X50548000Y-85564888D01*
X52823000Y-85604888D02*
X50627000Y-85604888D01*
X52736000Y-85644888D02*
X50714000Y-85644888D01*
X52639000Y-85684888D02*
X50811000Y-85684888D01*
X52530000Y-85724888D02*
X50920000Y-85724888D01*
X52402000Y-85764888D02*
X51048000Y-85764888D01*
X52242000Y-85804888D02*
X51208000Y-85804888D01*
X52008000Y-85844888D02*
X51442000Y-85844888D01*
X54345000Y-83244888D02*
G75*
G02*
X49105000Y-83244888I-2620000J0D01*
G01*
X49105000Y-83244888D02*
G75*
G02*
X54345000Y-83244888I2620000J0D01*
G01*
%TO.C,R202*%
X43605000Y-77470000D02*
X43605000Y-81310000D01*
X43605000Y-81310000D02*
X45445000Y-81310000D01*
X44525000Y-76520000D02*
X44525000Y-77470000D01*
X44525000Y-82260000D02*
X44525000Y-81310000D01*
X45445000Y-77470000D02*
X43605000Y-77470000D01*
X45445000Y-81310000D02*
X45445000Y-77470000D01*
D17*
%TO.C,SW2*%
X63411000Y-108586000D02*
X63411000Y-104014000D01*
X63411000Y-108586000D02*
X63741200Y-108814600D01*
X63715800Y-100254800D02*
X63715800Y-103810800D01*
X63715800Y-103810800D02*
X63411000Y-104014000D01*
X63741200Y-112345200D02*
X63741200Y-108814600D01*
X63741200Y-112345200D02*
X64376200Y-112980200D01*
X64350800Y-99619800D02*
X63715800Y-100254800D01*
X64350800Y-99619800D02*
X71107200Y-99619800D01*
X71081800Y-112980200D02*
X64376200Y-112980200D01*
X71081800Y-112980200D02*
X71716800Y-112345200D01*
X71716800Y-108789200D02*
X71716800Y-112345200D01*
X71716800Y-108789200D02*
X72047000Y-108586000D01*
X71742200Y-100254800D02*
X71107200Y-99619800D01*
X71742200Y-100254800D02*
X71742200Y-103810800D01*
X72047000Y-104014000D02*
X71742200Y-103810800D01*
X72047000Y-108586000D02*
X72047000Y-104014000D01*
D15*
%TO.C,R203*%
X41205000Y-77480000D02*
X41205000Y-81320000D01*
X41205000Y-81320000D02*
X43045000Y-81320000D01*
X42125000Y-76530000D02*
X42125000Y-77480000D01*
X42125000Y-82270000D02*
X42125000Y-81320000D01*
X43045000Y-77480000D02*
X41205000Y-77480000D01*
X43045000Y-81320000D02*
X43045000Y-77480000D01*
%TD*%
M02*
