%TF.GenerationSoftware,KiCad,Pcbnew,9.0.2*%
%TF.CreationDate,2025-12-14T11:37:20+02:00*%
%TF.ProjectId,Sewer,53657765-722e-46b6-9963-61645f706362,1*%
%TF.SameCoordinates,Original*%
%TF.FileFunction,Legend,Bot*%
%TF.FilePolarity,Positive*%
%FSLAX46Y46*%
G04 Gerber Fmt 4.6, Leading zero omitted, Abs format (unit mm)*
G04 Created by KiCad (PCBNEW 9.0.2) date 2025-12-14 11:37:20*
%MOMM*%
%LPD*%
G01*
G04 APERTURE LIST*
%ADD10C,0.101600*%
%ADD11C,0.032512*%
%ADD12C,0.050800*%
%ADD13C,0.063400*%
%ADD14C,0.152400*%
%ADD15C,0.127000*%
G04 APERTURE END LIST*
D10*
X69337666Y-86729414D02*
X69165309Y-86786866D01*
X69165309Y-86786866D02*
X68878047Y-86786866D01*
X68878047Y-86786866D02*
X68763142Y-86729414D01*
X68763142Y-86729414D02*
X68705690Y-86671961D01*
X68705690Y-86671961D02*
X68648237Y-86557056D01*
X68648237Y-86557056D02*
X68648237Y-86442152D01*
X68648237Y-86442152D02*
X68705690Y-86327247D01*
X68705690Y-86327247D02*
X68763142Y-86269794D01*
X68763142Y-86269794D02*
X68878047Y-86212342D01*
X68878047Y-86212342D02*
X69107856Y-86154890D01*
X69107856Y-86154890D02*
X69222761Y-86097437D01*
X69222761Y-86097437D02*
X69280214Y-86039985D01*
X69280214Y-86039985D02*
X69337666Y-85925080D01*
X69337666Y-85925080D02*
X69337666Y-85810175D01*
X69337666Y-85810175D02*
X69280214Y-85695271D01*
X69280214Y-85695271D02*
X69222761Y-85637818D01*
X69222761Y-85637818D02*
X69107856Y-85580366D01*
X69107856Y-85580366D02*
X68820595Y-85580366D01*
X68820595Y-85580366D02*
X68648237Y-85637818D01*
X68246070Y-85580366D02*
X67958808Y-86786866D01*
X67958808Y-86786866D02*
X67728999Y-85925080D01*
X67728999Y-85925080D02*
X67499189Y-86786866D01*
X67499189Y-86786866D02*
X67211928Y-85580366D01*
X66120332Y-86786866D02*
X66809761Y-86786866D01*
X66465047Y-86786866D02*
X66465047Y-85580366D01*
X66465047Y-85580366D02*
X66579951Y-85752723D01*
X66579951Y-85752723D02*
X66694856Y-85867628D01*
X66694856Y-85867628D02*
X66809761Y-85925080D01*
D11*
X74844389Y-78874672D02*
X74862773Y-78929826D01*
X74862773Y-78929826D02*
X74862773Y-79021750D01*
X74862773Y-79021750D02*
X74844389Y-79058519D01*
X74844389Y-79058519D02*
X74826004Y-79076904D01*
X74826004Y-79076904D02*
X74789234Y-79095289D01*
X74789234Y-79095289D02*
X74752465Y-79095289D01*
X74752465Y-79095289D02*
X74715695Y-79076904D01*
X74715695Y-79076904D02*
X74697310Y-79058519D01*
X74697310Y-79058519D02*
X74678926Y-79021750D01*
X74678926Y-79021750D02*
X74660541Y-78948211D01*
X74660541Y-78948211D02*
X74642156Y-78911441D01*
X74642156Y-78911441D02*
X74623771Y-78893056D01*
X74623771Y-78893056D02*
X74587002Y-78874672D01*
X74587002Y-78874672D02*
X74550232Y-78874672D01*
X74550232Y-78874672D02*
X74513463Y-78893056D01*
X74513463Y-78893056D02*
X74495078Y-78911441D01*
X74495078Y-78911441D02*
X74476693Y-78948211D01*
X74476693Y-78948211D02*
X74476693Y-79040134D01*
X74476693Y-79040134D02*
X74495078Y-79095289D01*
X74476693Y-79223982D02*
X74862773Y-79315906D01*
X74862773Y-79315906D02*
X74587002Y-79389445D01*
X74587002Y-79389445D02*
X74862773Y-79462984D01*
X74862773Y-79462984D02*
X74476693Y-79554908D01*
X74862773Y-79701985D02*
X74476693Y-79701985D01*
X74476693Y-79830679D02*
X74476693Y-80051296D01*
X74862773Y-79940988D02*
X74476693Y-79940988D01*
X74826004Y-80400606D02*
X74844389Y-80382222D01*
X74844389Y-80382222D02*
X74862773Y-80327067D01*
X74862773Y-80327067D02*
X74862773Y-80290298D01*
X74862773Y-80290298D02*
X74844389Y-80235144D01*
X74844389Y-80235144D02*
X74807619Y-80198374D01*
X74807619Y-80198374D02*
X74770849Y-80179989D01*
X74770849Y-80179989D02*
X74697310Y-80161605D01*
X74697310Y-80161605D02*
X74642156Y-80161605D01*
X74642156Y-80161605D02*
X74568617Y-80179989D01*
X74568617Y-80179989D02*
X74531848Y-80198374D01*
X74531848Y-80198374D02*
X74495078Y-80235144D01*
X74495078Y-80235144D02*
X74476693Y-80290298D01*
X74476693Y-80290298D02*
X74476693Y-80327067D01*
X74476693Y-80327067D02*
X74495078Y-80382222D01*
X74495078Y-80382222D02*
X74513463Y-80400606D01*
X74862773Y-80566069D02*
X74476693Y-80566069D01*
X74660541Y-80566069D02*
X74660541Y-80786686D01*
X74862773Y-80786686D02*
X74476693Y-80786686D01*
D12*
%TO.C,RV2*%
X79155000Y-55525000D02*
X96935000Y-55525000D01*
X80425000Y-59970000D02*
X80425000Y-69749000D01*
X80425000Y-69749000D02*
X81314000Y-69749000D01*
D13*
X84870000Y-69749000D02*
X86140000Y-69749000D01*
D12*
X88045000Y-64415000D02*
X88045000Y-46635000D01*
X89950000Y-69749000D02*
X91220000Y-69749000D01*
D13*
X94776000Y-69749000D02*
X95665000Y-69749000D01*
D12*
X95665000Y-69749000D02*
X95665000Y-59970000D01*
X79155000Y-55525000D02*
G75*
G02*
X88045002Y-46635000I8889900J100D01*
G01*
X88045000Y-46635000D02*
G75*
G02*
X96935000Y-55525002I100J-8889900D01*
G01*
X88045000Y-64415000D02*
G75*
G02*
X79155000Y-55525000I0J8890000D01*
G01*
X96935000Y-55525000D02*
G75*
G02*
X88045000Y-64415000I-8890001J1D01*
G01*
X88943000Y-55525000D02*
G75*
G02*
X87147000Y-55525000I-898000J0D01*
G01*
X87147000Y-55525000D02*
G75*
G02*
X88943000Y-55525000I898000J0D01*
G01*
%TO.C,RV3*%
X88943000Y-80925000D02*
G75*
G02*
X87147000Y-80925000I-898000J0D01*
G01*
X87147000Y-80925000D02*
G75*
G02*
X88943000Y-80925000I898000J0D01*
G01*
X96935000Y-80925000D02*
G75*
G02*
X88045000Y-89815000I-8890001J1D01*
G01*
X88045000Y-89815000D02*
G75*
G02*
X79155000Y-80925000I0J8890000D01*
G01*
X88045000Y-72035000D02*
G75*
G02*
X96935000Y-80925002I100J-8889900D01*
G01*
X79155000Y-80925000D02*
G75*
G02*
X88045002Y-72035000I8889900J100D01*
G01*
X95665000Y-95149000D02*
X95665000Y-85370000D01*
D13*
X94776000Y-95149000D02*
X95665000Y-95149000D01*
D12*
X89950000Y-95149000D02*
X91220000Y-95149000D01*
X88045000Y-89815000D02*
X88045000Y-72035000D01*
D13*
X84870000Y-95149000D02*
X86140000Y-95149000D01*
D12*
X80425000Y-95149000D02*
X81314000Y-95149000D01*
X80425000Y-85370000D02*
X80425000Y-95149000D01*
X79155000Y-80925000D02*
X96935000Y-80925000D01*
%TO.C,RV4*%
X38515000Y-55525000D02*
X56295000Y-55525000D01*
X39785000Y-59970000D02*
X39785000Y-69749000D01*
X39785000Y-69749000D02*
X40674000Y-69749000D01*
D13*
X44230000Y-69749000D02*
X45500000Y-69749000D01*
D12*
X47405000Y-64415000D02*
X47405000Y-46635000D01*
X49310000Y-69749000D02*
X50580000Y-69749000D01*
D13*
X54136000Y-69749000D02*
X55025000Y-69749000D01*
D12*
X55025000Y-69749000D02*
X55025000Y-59970000D01*
X38515000Y-55525000D02*
G75*
G02*
X47405002Y-46635000I8889900J100D01*
G01*
X47405000Y-46635000D02*
G75*
G02*
X56295000Y-55525002I100J-8889900D01*
G01*
X47405000Y-64415000D02*
G75*
G02*
X38515000Y-55525000I0J8890000D01*
G01*
X56295000Y-55525000D02*
G75*
G02*
X47405000Y-64415000I-8890001J1D01*
G01*
X48303000Y-55525000D02*
G75*
G02*
X46507000Y-55525000I-898000J0D01*
G01*
X46507000Y-55525000D02*
G75*
G02*
X48303000Y-55525000I898000J0D01*
G01*
%TO.C,RV1*%
X48303000Y-80925000D02*
G75*
G02*
X46507000Y-80925000I-898000J0D01*
G01*
X46507000Y-80925000D02*
G75*
G02*
X48303000Y-80925000I898000J0D01*
G01*
X56295000Y-80925000D02*
G75*
G02*
X47405000Y-89815000I-8890001J1D01*
G01*
X47405000Y-89815000D02*
G75*
G02*
X38515000Y-80925000I0J8890000D01*
G01*
X47405000Y-72035000D02*
G75*
G02*
X56295000Y-80925002I100J-8889900D01*
G01*
X38515000Y-80925000D02*
G75*
G02*
X47405002Y-72035000I8889900J100D01*
G01*
X55025000Y-95149000D02*
X55025000Y-85370000D01*
D13*
X54136000Y-95149000D02*
X55025000Y-95149000D01*
D12*
X49310000Y-95149000D02*
X50580000Y-95149000D01*
X47405000Y-89815000D02*
X47405000Y-72035000D01*
D13*
X44230000Y-95149000D02*
X45500000Y-95149000D01*
D12*
X39785000Y-95149000D02*
X40674000Y-95149000D01*
X39785000Y-85370000D02*
X39785000Y-95149000D01*
X38515000Y-80925000D02*
X56295000Y-80925000D01*
D14*
%TO.C,SW1*%
X60617000Y-76836000D02*
X61125000Y-76836000D01*
X60617000Y-84964000D02*
X60617000Y-76836000D01*
X61125000Y-76328000D02*
X74333000Y-76328000D01*
X61125000Y-76836000D02*
X61125000Y-76328000D01*
X61125000Y-84964000D02*
X60617000Y-84964000D01*
X61125000Y-85472000D02*
X61125000Y-84964000D01*
D15*
X67094000Y-80900000D02*
X68364000Y-80900000D01*
X67729000Y-81535000D02*
X67729000Y-80265000D01*
D14*
X74333000Y-76328000D02*
X74333000Y-76836000D01*
X74333000Y-76836000D02*
X74841000Y-76836000D01*
X74333000Y-84964000D02*
X74333000Y-85472000D01*
X74333000Y-85472000D02*
X61125000Y-85472000D01*
X74841000Y-76836000D02*
X74841000Y-84964000D01*
X74841000Y-84964000D02*
X74333000Y-84964000D01*
D15*
X68364000Y-80900000D02*
G75*
G02*
X67094000Y-80900000I-635000J0D01*
G01*
X67094000Y-80900000D02*
G75*
G02*
X68364000Y-80900000I635000J0D01*
G01*
%TD*%
M02*
