%TF.GenerationSoftware,KiCad,Pcbnew,9.0.2*%
%TF.CreationDate,2025-12-14T11:37:20+02:00*%
%TF.ProjectId,Sewer,53657765-722e-46b6-9963-61645f706362,1*%
%TF.SameCoordinates,Original*%
%TF.FileFunction,Soldermask,Bot*%
%TF.FilePolarity,Negative*%
%FSLAX46Y46*%
G04 Gerber Fmt 4.6, Leading zero omitted, Abs format (unit mm)*
G04 Created by KiCad (PCBNEW 9.0.2) date 2025-12-14 11:37:20*
%MOMM*%
%LPD*%
G01*
G04 APERTURE LIST*
G04 Aperture macros list*
%AMRoundRect*
0 Rectangle with rounded corners*
0 $1 Rounding radius*
0 $2 $3 $4 $5 $6 $7 $8 $9 X,Y pos of 4 corners*
0 Add a 4 corners polygon primitive as box body*
4,1,4,$2,$3,$4,$5,$6,$7,$8,$9,$2,$3,0*
0 Add four circle primitives for the rounded corners*
1,1,$1+$1,$2,$3*
1,1,$1+$1,$4,$5*
1,1,$1+$1,$6,$7*
1,1,$1+$1,$8,$9*
0 Add four rect primitives between the rounded corners*
20,1,$1+$1,$2,$3,$4,$5,0*
20,1,$1+$1,$4,$5,$6,$7,0*
20,1,$1+$1,$6,$7,$8,$9,0*
20,1,$1+$1,$8,$9,$2,$3,0*%
G04 Aperture macros list end*
%ADD10C,1.400000*%
%ADD11O,1.400000X1.400000*%
%ADD12R,1.800000X1.800000*%
%ADD13C,1.800000*%
%ADD14RoundRect,0.250000X-0.550000X0.550000X-0.550000X-0.550000X0.550000X-0.550000X0.550000X0.550000X0*%
%ADD15C,1.600000*%
%ADD16RoundRect,0.250000X0.550000X-0.550000X0.550000X0.550000X-0.550000X0.550000X-0.550000X-0.550000X0*%
%ADD17O,1.600000X1.600000*%
%ADD18R,1.600000X1.600000*%
%ADD19C,2.743200*%
%ADD20R,3.416000X3.416000*%
%ADD21O,3.416000X3.416000*%
%ADD22RoundRect,0.250000X-0.675000X-0.675000X0.675000X-0.675000X0.675000X0.675000X-0.675000X0.675000X0*%
%ADD23C,1.850000*%
%ADD24RoundRect,0.101600X1.608000X1.608000X-1.608000X1.608000X-1.608000X-1.608000X1.608000X-1.608000X0*%
G04 APERTURE END LIST*
D10*
%TO.C,R_CLR*%
X78125000Y-111790000D03*
D11*
X78125000Y-119410000D03*
%TD*%
%TO.C,R103*%
X50225000Y-118320000D03*
D10*
X50225000Y-110700000D03*
%TD*%
D11*
%TO.C,R102*%
X52725000Y-110700000D03*
D10*
X52725000Y-118320000D03*
%TD*%
D12*
%TO.C,D3*%
X82125000Y-100760000D03*
D13*
X82125000Y-103300000D03*
%TD*%
D14*
%TO.C,D2*%
X77625000Y-100690000D03*
D15*
X77625000Y-108310000D03*
%TD*%
D12*
%TO.C,D4*%
X82125000Y-106300000D03*
D13*
X82125000Y-108840000D03*
%TD*%
D16*
%TO.C,D1*%
X74325000Y-108310000D03*
D15*
X74325000Y-100690000D03*
%TD*%
D11*
%TO.C,R9*%
X83525000Y-111790000D03*
D10*
X83525000Y-119410000D03*
%TD*%
D11*
%TO.C,R10*%
X80725000Y-119420000D03*
D10*
X80725000Y-111800000D03*
%TD*%
D15*
%TO.C,C9*%
X90125000Y-113000000D03*
X90125000Y-118000000D03*
%TD*%
%TO.C,C10*%
X86625000Y-113000000D03*
X86625000Y-118000000D03*
%TD*%
D11*
%TO.C,R8*%
X92925000Y-119010000D03*
D10*
X92925000Y-111390000D03*
%TD*%
D15*
%TO.C,C11*%
X54625000Y-93000000D03*
X54625000Y-88000000D03*
%TD*%
D11*
%TO.C,R104*%
X45225000Y-110690000D03*
D10*
X45225000Y-118310000D03*
%TD*%
D15*
%TO.C,C1*%
X42325000Y-112200000D03*
X42325000Y-117200000D03*
%TD*%
D11*
%TO.C,R1*%
X42325000Y-100390000D03*
D10*
X42325000Y-108010000D03*
%TD*%
D11*
%TO.C,R2*%
X45225000Y-108010000D03*
D10*
X45225000Y-100390000D03*
%TD*%
D17*
%TO.C,U1*%
X71545000Y-87400000D03*
X71545000Y-89940000D03*
X71545000Y-92480000D03*
X71545000Y-95020000D03*
X63925000Y-95020000D03*
X63925000Y-92480000D03*
X63925000Y-89940000D03*
D18*
X63925000Y-87400000D03*
%TD*%
D19*
%TO.C,RV2*%
X93125000Y-71400000D03*
X88045000Y-71400000D03*
X82965000Y-71400000D03*
%TD*%
%TO.C,RV3*%
X82965000Y-96800000D03*
X88045000Y-96800000D03*
X93125000Y-96800000D03*
%TD*%
%TO.C,RV4*%
X52485000Y-71400000D03*
X47405000Y-71400000D03*
X42325000Y-71400000D03*
%TD*%
%TO.C,RV1*%
X42325000Y-96800000D03*
X47405000Y-96800000D03*
X52485000Y-96800000D03*
%TD*%
D20*
%TO.C,SW1*%
X62895000Y-83313000D03*
D21*
X67725000Y-83313000D03*
X72555000Y-83313000D03*
X62895000Y-78483000D03*
X67725000Y-78483000D03*
X72555000Y-78483000D03*
%TD*%
D14*
%TO.C,C203*%
X46625000Y-88400000D03*
D15*
X46625000Y-90900000D03*
%TD*%
D10*
%TO.C,R6*%
X77625000Y-89410000D03*
D11*
X77625000Y-81790000D03*
%TD*%
D15*
%TO.C,C102*%
X52125000Y-106700000D03*
X52125000Y-101700000D03*
%TD*%
D14*
%TO.C,C4*%
X89625000Y-81000000D03*
D15*
X89625000Y-83000000D03*
%TD*%
D22*
%TO.C,J2*%
X61525000Y-121900000D03*
D23*
X65725000Y-121900000D03*
X69925000Y-121900000D03*
X74125000Y-121900000D03*
%TD*%
D15*
%TO.C,C3*%
X75025000Y-90450000D03*
X75025000Y-87950000D03*
%TD*%
D10*
%TO.C,R3*%
X81125000Y-93110000D03*
D11*
X81125000Y-85490000D03*
%TD*%
D10*
%TO.C,R201*%
X47125000Y-75580000D03*
D11*
X47125000Y-83200000D03*
%TD*%
D15*
%TO.C,C202*%
X60525000Y-90200000D03*
X60525000Y-95200000D03*
%TD*%
D10*
%TO.C,R4*%
X90035000Y-77100000D03*
D11*
X82415000Y-77100000D03*
%TD*%
D10*
%TO.C,R101*%
X47825000Y-110690000D03*
D11*
X47825000Y-118310000D03*
%TD*%
D16*
%TO.C,C7*%
X83625000Y-82405113D03*
D15*
X83625000Y-79905113D03*
%TD*%
D10*
%TO.C,R7*%
X92925000Y-93410000D03*
D11*
X92925000Y-85790000D03*
%TD*%
D15*
%TO.C,C2*%
X48425000Y-106700000D03*
X48425000Y-101700000D03*
%TD*%
D10*
%TO.C,R5*%
X59525000Y-83510000D03*
D11*
X59525000Y-75890000D03*
%TD*%
D14*
%TO.C,C6*%
X55025000Y-75900000D03*
D15*
X55025000Y-77900000D03*
%TD*%
D22*
%TO.C,J1*%
X61525000Y-71400000D03*
D23*
X65725000Y-71400000D03*
X69925000Y-71400000D03*
X74125000Y-71400000D03*
%TD*%
D14*
%TO.C,C8*%
X76725000Y-94800000D03*
D15*
X76725000Y-96800000D03*
%TD*%
%TO.C,C101*%
X57025000Y-101690000D03*
X57025000Y-106690000D03*
%TD*%
D10*
%TO.C,R105*%
X55225000Y-118300000D03*
D11*
X55225000Y-110680000D03*
%TD*%
D16*
%TO.C,C5*%
X78425000Y-78600000D03*
D15*
X78425000Y-76600000D03*
%TD*%
D14*
%TO.C,C201*%
X51725000Y-81994888D03*
D15*
X51725000Y-84494888D03*
%TD*%
D10*
%TO.C,R202*%
X44525000Y-75580000D03*
D11*
X44525000Y-83200000D03*
%TD*%
D24*
%TO.C,SW2*%
X67729000Y-110999000D03*
X67729000Y-106300000D03*
X67729000Y-101601000D03*
%TD*%
D10*
%TO.C,R203*%
X42125000Y-83210000D03*
D11*
X42125000Y-75590000D03*
%TD*%
M02*
